<?xml version="1.0" encoding="utf-8" standalone="no"?>
<!DOCTYPE svg PUBLIC "-//W3C//DTD SVG 1.1//EN"
  "http://www.w3.org/Graphics/SVG/1.1/DTD/svg11.dtd">
<svg xmlns:xlink="http://www.w3.org/1999/xlink" width="354.911811pt" height="167.187402pt" viewBox="0 0 354.911811 167.187402" xmlns="http://www.w3.org/2000/svg" version="1.1">
 <metadata>
  <rdf:RDF xmlns:dc="http://purl.org/dc/elements/1.1/" xmlns:cc="http://creativecommons.org/ns#" xmlns:rdf="http://www.w3.org/1999/02/22-rdf-syntax-ns#">
   <cc:Work>
    <dc:type rdf:resource="http://purl.org/dc/dcmitype/StillImage"/>
    <dc:date>2026-06-20T22:15:56.040143</dc:date>
    <dc:format>image/svg+xml</dc:format>
    <dc:creator>
     <cc:Agent>
      <dc:title>Matplotlib v3.11.0, https://matplotlib.org/</dc:title>
     </cc:Agent>
    </dc:creator>
   </cc:Work>
  </rdf:RDF>
 </metadata>
 <defs>
  <style type="text/css">*{stroke-linejoin: round; stroke-linecap: butt}</style>
 </defs>
 <g id="figure_1">
  <g id="patch_1">
   <path d="M 0 167.187402 
L 354.911811 167.187402 
L 354.911811 0 
L 0 0 
z
" style="fill: #ffffff"/>
  </g>
  <g id="axes_1">
   <g id="patch_2">
    <path d="M 41.251181 106.511811 
L 313.66063 106.511811 
L 313.66063 65.768504 
L 41.251181 65.768504 
z
" clip-path="url(#p8f01ef7d7c)" style="fill: #eef4fa; stroke: #333333; stroke-width: 1.2; stroke-linejoin: miter"/>
   </g>
   <g id="patch_3">
    <path d="M 41.251181 65.768504 
L 313.66063 65.768504 
L 313.66063 54.309449 
L 41.251181 54.309449 
z
" clip-path="url(#p8f01ef7d7c)" style="fill: #d7e8f7; stroke: #0072b2; stroke-linejoin: miter"/>
   </g>
   <g id="patch_4">
    <path d="M 41.251181 117.970866 
L 313.66063 117.970866 
L 313.66063 106.511811 
L 41.251181 106.511811 
z
" clip-path="url(#p8f01ef7d7c)" style="fill: #f9e0cc; stroke: #d55e00; stroke-linejoin: miter"/>
   </g>
   <g id="patch_5">
    <path d="M 88.922835 95.052756 
C 92.083502 95.052756 95.115143 94.113668 97.350072 92.442316 
C 99.585001 90.770964 100.840748 88.503806 100.840748 86.140157 
C 100.840748 83.776509 99.585001 81.509351 97.350072 79.837999 
C 95.115143 78.166647 92.083502 77.227559 88.922835 77.227559 
C 85.762167 77.227559 82.730527 78.166647 80.495597 79.837999 
C 78.260668 81.509351 77.004921 83.776509 77.004921 86.140157 
C 77.004921 88.503806 78.260668 90.770964 80.495597 92.442316 
C 82.730527 94.113668 85.762167 95.052756 88.922835 95.052756 
z
" clip-path="url(#p8f01ef7d7c)" style="fill: #ffffff; stroke: #333333; stroke-linejoin: miter"/>
   </g>
   <g id="patch_6">
    <path d="M 177.455906 95.052756 
C 180.616573 95.052756 183.648213 94.113668 185.883143 92.442316 
C 188.118072 90.770964 189.373819 88.503806 189.373819 86.140157 
C 189.373819 83.776509 188.118072 81.509351 185.883143 79.837999 
C 183.648213 78.166647 180.616573 77.227559 177.455906 77.227559 
C 174.295238 77.227559 171.263598 78.166647 169.028668 79.837999 
C 166.793739 81.509351 165.537992 83.776509 165.537992 86.140157 
C 165.537992 88.503806 166.793739 90.770964 169.028668 92.442316 
C 171.263598 94.113668 174.295238 95.052756 177.455906 95.052756 
z
" clip-path="url(#p8f01ef7d7c)" style="fill: #ffffff; stroke: #333333; stroke-linejoin: miter"/>
   </g>
   <g id="patch_7">
    <path d="M 265.988976 95.052756 
C 269.149644 95.052756 272.181284 94.113668 274.416214 92.442316 
C 276.651143 90.770964 277.90689 88.503806 277.90689 86.140157 
C 277.90689 83.776509 276.651143 81.509351 274.416214 79.837999 
C 272.181284 78.166647 269.149644 77.227559 265.988976 77.227559 
C 262.828309 77.227559 259.796668 78.166647 257.561739 79.837999 
C 255.32681 81.509351 254.071063 83.776509 254.071063 86.140157 
C 254.071063 88.503806 255.32681 90.770964 257.561739 92.442316 
C 259.796668 94.113668 262.828309 95.052756 265.988976 95.052756 
z
" clip-path="url(#p8f01ef7d7c)" style="fill: #ffffff; stroke: #333333; stroke-linejoin: miter"/>
   </g>
   <g id="text_1">
    <!-- 结构示意 / Structure schematic -->
    <g transform="translate(44.656299 50.263829) scale(0.1 -0.1)">
     <defs>
      <path id="SimSun-3503" d="M 4050 3900 
Q 4050 4925 4025 5250 
L 4625 4925 
L 4375 4750 
L 4375 3900 
L 5300 3900 
L 5600 4200 
L 6025 3750 
L 4375 3750 
L 4375 2625 
L 5050 2625 
L 5350 2925 
L 5775 2475 
L 3650 2475 
Q 3325 2475 3050 2400 
L 2825 2625 
L 4050 2625 
L 4050 3750 
L 3425 3750 
Q 3100 3750 2825 3675 
L 2600 3900 
L 4050 3900 
z
M 3025 -600 
Q 3050 -50 3050 675 
Q 3050 1400 3025 1925 
L 3425 1700 
L 5125 1700 
L 5350 1925 
L 5700 1575 
L 5475 1425 
L 5475 400 
Q 5475 -150 5500 -375 
L 5150 -525 
L 5150 -25 
L 3375 -25 
L 3375 -425 
L 3025 -600 
z
M 3375 1550 
L 3375 125 
L 5150 125 
L 5150 1550 
L 3375 1550 
z
M 975 1550 
L 2700 1825 
L 2700 1725 
Q 2400 1650 1750 1462 
Q 1100 1275 800 1050 
L 525 1500 
Q 725 1575 900 1750 
Q 1075 1925 1725 2825 
Q 1425 2775 1150 2712 
Q 875 2650 625 2500 
L 400 2950 
Q 650 2950 987 3662 
Q 1325 4375 1525 5125 
L 2050 4850 
L 1825 4725 
Q 1300 3725 800 2950 
L 1800 2975 
Q 2100 3450 2275 3850 
L 2725 3525 
L 2500 3400 
Q 1800 2475 975 1550 
z
M 650 -250 
L 400 225 
Q 750 275 1237 387 
Q 1725 500 2750 800 
L 2775 700 
Q 925 -25 650 -250 
z
" transform="scale(0.015625)"/>
      <path id="SimSun-1db4" d="M 3475 3825 
Q 3025 3050 2575 2575 
L 2500 2625 
Q 3250 3750 3575 5250 
L 4175 4925 
L 3925 4775 
Q 3725 4325 3550 3975 
L 5350 3975 
L 5575 4225 
L 5975 3850 
L 5750 3700 
Q 5675 650 5637 287 
Q 5600 -75 5400 -300 
Q 5200 -525 4800 -625 
Q 4825 -275 3950 -25 
L 3975 100 
Q 4650 -50 4837 -37 
Q 5025 -25 5125 75 
Q 5225 175 5262 475 
Q 5300 775 5375 3825 
L 3475 3825 
z
M 2975 1225 
L 4400 1275 
Q 4250 1700 4075 2000 
L 4150 2050 
Q 4775 1475 4850 1237 
Q 4925 1000 4787 862 
Q 4650 725 4600 725 
Q 4550 725 4512 825 
Q 4475 925 4425 1175 
Q 4050 1125 3587 1025 
Q 3125 925 2925 750 
L 2650 1225 
Q 2925 1275 3237 2012 
Q 3550 2750 3625 3175 
L 4150 2850 
L 3925 2750 
Q 3350 1625 2975 1225 
z
M 1725 2800 
Q 1725 75 1750 -475 
L 1350 -625 
Q 1375 500 1375 2525 
Q 1025 1575 450 800 
L 350 850 
Q 1025 2050 1375 3600 
L 750 3600 
L 525 3550 
L 325 3750 
L 1375 3750 
Q 1375 4575 1350 5250 
L 1925 4950 
L 1725 4775 
L 1725 3750 
L 2025 3750 
L 2325 4050 
L 2775 3600 
L 1725 3600 
L 1725 2950 
Q 2325 2625 2462 2462 
Q 2600 2300 2600 2150 
Q 2600 2050 2537 1912 
Q 2475 1775 2425 1775 
Q 2350 1775 2225 2050 
Q 2050 2475 1725 2800 
z
" transform="scale(0.015625)"/>
      <path id="SimSun-2f6a" d="M 1075 4675 
L 4600 4675 
L 4975 5050 
L 5475 4525 
L 1900 4525 
Q 1575 4525 1300 4450 
L 1075 4675 
z
M 300 3050 
L 5250 3050 
L 5625 3425 
L 6125 2900 
L 3400 2900 
L 3400 150 
Q 3425 -400 2750 -600 
Q 2700 -175 1875 50 
L 1875 150 
Q 2600 75 2812 87 
Q 3025 100 3025 400 
L 3025 2900 
L 1125 2900 
Q 800 2900 525 2825 
L 300 3050 
z
M 1875 2400 
L 2425 2025 
L 2175 1925 
Q 1375 700 350 -25 
L 275 50 
Q 1325 1075 1875 2400 
z
M 4075 2250 
Q 5025 1550 5387 1200 
Q 5750 850 5762 650 
Q 5775 450 5687 300 
Q 5600 150 5550 150 
Q 5475 150 5375 375 
Q 5200 725 4875 1175 
Q 4550 1625 4000 2175 
L 4075 2250 
z
" transform="scale(0.015625)"/>
      <path id="SimSun-173f" d="M 2800 5250 
Q 3325 5025 3400 4837 
Q 3475 4650 3275 4475 
L 4375 4475 
L 4700 4800 
L 5175 4325 
L 3975 4325 
L 4350 4075 
Q 4100 4000 3650 3450 
L 5075 3450 
L 5450 3825 
L 5975 3300 
L 1250 3300 
Q 925 3300 650 3225 
L 425 3450 
L 3500 3450 
Q 3800 4025 3875 4325 
L 2225 4325 
Q 2600 4100 2675 4000 
Q 2750 3900 2750 3800 
Q 2750 3725 2700 3625 
Q 2650 3525 2537 3512 
Q 2425 3500 2400 3725 
Q 2375 3925 2100 4325 
L 1625 4325 
L 1300 4275 
L 1100 4475 
L 3075 4475 
Q 3075 4800 2750 5200 
L 2800 5250 
z
M 1400 3075 
L 1750 2875 
L 4450 2875 
L 4625 3075 
L 5000 2800 
L 4825 2650 
Q 4825 1575 4850 1300 
L 4500 1150 
L 4500 1375 
L 1750 1375 
L 1750 1250 
L 1400 1125 
Q 1425 1575 1425 2087 
Q 1425 2600 1400 3075 
z
M 1750 2725 
L 1750 2200 
L 4500 2200 
L 4500 2725 
L 1750 2725 
z
M 1750 2050 
L 1750 1525 
L 4500 1525 
L 4500 2050 
L 1750 2050 
z
M 1200 925 
L 1300 900 
Q 1275 200 1162 -12 
Q 1050 -225 862 -262 
Q 675 -300 600 -237 
Q 525 -175 525 -125 
Q 525 -25 750 125 
Q 1050 350 1200 925 
z
M 2650 1250 
L 2700 1325 
Q 3325 1050 3437 925 
Q 3550 800 3550 675 
Q 3550 575 3487 450 
Q 3425 325 3400 325 
Q 3325 325 3225 525 
Q 3075 825 2650 1250 
z
M 4725 925 
L 4800 1000 
Q 5500 650 5650 487 
Q 5800 325 5800 200 
Q 5800 100 5725 -37 
Q 5650 -175 5600 -175 
Q 5525 -175 5425 75 
Q 5250 425 4725 925 
z
M 1875 100 
Q 1875 850 1850 1125 
L 2400 850 
L 2200 700 
L 2200 225 
Q 2175 -75 2475 -100 
L 3975 -100 
Q 4200 -125 4262 75 
Q 4325 275 4350 750 
L 4450 750 
Q 4450 325 4500 137 
Q 4550 -50 4725 -75 
Q 4600 -375 4100 -375 
L 2350 -375 
Q 1850 -350 1875 100 
z
" transform="scale(0.015625)"/>
      <path id="SimSun-3" d="M 0 0 
Q 0 0 0 0 
z
" transform="scale(0.015625)"/>
      <path id="SimSun-12" d="M 400 -475 
L 225 -375 
L 2775 4975 
L 2950 4875 
L 400 -475 
z
" transform="scale(0.015625)"/>
      <path id="SimSun-36" d="M 1500 2150 
Q 825 2450 575 2675 
Q 325 2900 325 3375 
Q 325 3750 637 4087 
Q 950 4425 1525 4425 
Q 1775 4425 2000 4350 
Q 2225 4250 2325 4250 
Q 2400 4250 2462 4287 
Q 2525 4325 2575 4425 
L 2675 3400 
L 2550 3350 
Q 2325 3875 2087 4062 
Q 1850 4250 1475 4250 
Q 1000 4250 825 3987 
Q 650 3725 650 3425 
Q 650 3150 812 2987 
Q 975 2825 1700 2500 
Q 2300 2250 2562 1937 
Q 2825 1625 2825 1200 
Q 2825 750 2512 400 
Q 2200 50 1600 50 
Q 1350 50 1150 150 
Q 925 225 800 225 
Q 725 225 650 175 
Q 575 125 475 50 
L 275 1275 
L 425 1325 
Q 600 700 912 462 
Q 1225 225 1625 225 
Q 2050 225 2262 475 
Q 2475 725 2475 1200 
Q 2475 1450 2237 1687 
Q 2000 1925 1500 2150 
z
" transform="scale(0.015625)"/>
      <path id="SimSun-57" d="M 1500 900 
Q 1500 550 1625 425 
Q 1750 300 2000 300 
Q 2250 300 2400 462 
Q 2550 625 2600 925 
L 2725 875 
Q 2675 525 2462 300 
Q 2250 75 1900 75 
Q 1525 75 1337 300 
Q 1150 525 1150 1000 
L 1150 2750 
L 400 2750 
L 400 2900 
L 600 2900 
Q 900 2900 1087 3087 
Q 1275 3275 1325 3675 
L 1350 3875 
L 1500 3875 
L 1500 2900 
L 2500 2900 
L 2500 2750 
L 1500 2750 
L 1500 900 
z
" transform="scale(0.015625)"/>
      <path id="SimSun-55" d="M 1275 2125 
Q 1525 2525 1812 2737 
Q 2100 2950 2400 2950 
Q 2650 2950 2787 2837 
Q 2925 2725 2925 2575 
Q 2925 2450 2862 2375 
Q 2800 2300 2675 2300 
Q 2550 2300 2487 2375 
Q 2425 2450 2450 2575 
Q 2450 2650 2425 2700 
Q 2400 2750 2275 2750 
Q 2075 2750 1787 2500 
Q 1500 2250 1275 1800 
L 1275 450 
Q 1275 350 1337 300 
Q 1400 250 1500 250 
L 2050 250 
L 2050 100 
L 200 100 
L 200 250 
L 700 250 
Q 825 250 875 300 
Q 925 350 925 450 
L 925 2525 
Q 925 2625 875 2687 
Q 825 2750 700 2750 
L 225 2750 
L 225 2900 
L 425 2900 
Q 600 2900 837 2937 
Q 1075 2975 1200 3025 
L 1275 3025 
L 1275 2125 
z
" transform="scale(0.015625)"/>
      <path id="SimSun-58" d="M 1450 325 
Q 1750 325 1962 475 
Q 2175 625 2275 950 
L 2275 2525 
Q 2275 2625 2225 2687 
Q 2175 2750 2050 2750 
L 1900 2750 
L 1900 2900 
L 2050 2900 
Q 2200 2900 2325 2925 
Q 2450 2950 2575 3050 
L 2625 3050 
L 2625 600 
Q 2625 500 2687 450 
Q 2750 400 2850 400 
L 3000 400 
L 3000 250 
L 2850 250 
Q 2725 250 2600 212 
Q 2475 175 2325 100 
L 2275 100 
L 2275 625 
Q 2150 350 1900 212 
Q 1650 75 1325 75 
Q 925 75 725 300 
Q 525 525 525 1025 
L 525 2525 
Q 525 2625 475 2687 
Q 425 2750 300 2750 
L 150 2750 
L 150 2900 
L 300 2900 
Q 450 2900 575 2925 
Q 700 2950 825 3050 
L 875 3050 
L 875 975 
Q 875 625 1025 475 
Q 1175 325 1450 325 
z
" transform="scale(0.015625)"/>
      <path id="SimSun-46" d="M 2150 2225 
Q 2150 2300 2175 2325 
Q 2175 2350 2200 2425 
Q 2225 2525 2100 2662 
Q 1975 2800 1675 2800 
Q 1300 2800 1037 2437 
Q 775 2075 775 1475 
Q 775 925 1000 587 
Q 1225 250 1750 250 
Q 2100 250 2337 475 
Q 2575 700 2675 1000 
L 2800 950 
Q 2700 575 2425 312 
Q 2150 50 1675 50 
Q 1075 50 725 425 
Q 375 800 375 1500 
Q 375 2125 750 2537 
Q 1125 2950 1725 2950 
Q 2150 2950 2387 2725 
Q 2625 2500 2625 2275 
Q 2625 2125 2562 2062 
Q 2500 2000 2375 2000 
Q 2275 2000 2212 2062 
Q 2150 2125 2150 2225 
z
" transform="scale(0.015625)"/>
      <path id="SimSun-48" d="M 2400 1650 
Q 2425 2200 2212 2487 
Q 2000 2775 1650 2775 
Q 1275 2775 1037 2475 
Q 800 2175 800 1650 
L 2400 1650 
z
M 800 1500 
Q 800 825 1062 537 
Q 1325 250 1750 250 
Q 2075 250 2300 437 
Q 2525 625 2625 900 
L 2750 850 
Q 2675 575 2412 312 
Q 2150 50 1700 50 
Q 1125 50 762 425 
Q 400 800 400 1500 
Q 400 2125 762 2537 
Q 1125 2950 1650 2950 
Q 2125 2950 2475 2625 
Q 2825 2300 2825 1500 
L 800 1500 
z
" transform="scale(0.015625)"/>
      <path id="SimSun-56" d="M 625 2175 
Q 625 2550 912 2750 
Q 1200 2950 1600 2950 
Q 1825 2950 2025 2900 
Q 2225 2825 2300 2825 
Q 2375 2825 2425 2850 
Q 2475 2875 2550 2950 
L 2650 2125 
L 2500 2100 
Q 2400 2425 2162 2612 
Q 1925 2800 1625 2800 
Q 1300 2800 1112 2675 
Q 925 2550 925 2325 
Q 925 2125 1012 2012 
Q 1100 1900 1325 1850 
Q 1500 1775 1775 1700 
Q 2025 1600 2250 1500 
Q 2450 1400 2587 1237 
Q 2725 1075 2725 875 
Q 2725 500 2462 287 
Q 2200 75 1700 75 
Q 1375 75 1225 150 
Q 1050 200 950 200 
Q 875 200 787 162 
Q 700 125 600 75 
L 525 1000 
L 675 1025 
Q 750 625 1000 425 
Q 1250 225 1700 225 
Q 2050 225 2237 350 
Q 2425 475 2425 725 
Q 2425 900 2325 1012 
Q 2225 1125 2125 1175 
Q 1875 1275 1575 1400 
Q 1275 1500 1050 1600 
Q 825 1700 725 1850 
Q 625 2000 625 2175 
z
" transform="scale(0.015625)"/>
      <path id="SimSun-4b" d="M 200 100 
L 200 250 
L 325 250 
Q 450 250 500 300 
Q 550 350 550 450 
L 550 4025 
Q 550 4125 500 4175 
Q 450 4225 325 4225 
L 175 4225 
L 175 4375 
L 450 4375 
Q 550 4375 650 4425 
Q 750 4475 850 4575 
L 900 4575 
L 900 2450 
Q 1125 2725 1362 2837 
Q 1600 2950 1875 2950 
Q 2250 2950 2450 2737 
Q 2650 2525 2650 2075 
L 2650 450 
Q 2650 350 2712 300 
Q 2775 250 2875 250 
L 3000 250 
L 3000 100 
L 1950 100 
L 1950 250 
L 2075 250 
Q 2200 250 2250 300 
Q 2300 350 2300 450 
L 2300 2025 
Q 2300 2450 2162 2587 
Q 2025 2725 1800 2725 
Q 1600 2725 1362 2600 
Q 1125 2475 900 2175 
L 900 450 
Q 900 350 962 300 
Q 1025 250 1125 250 
L 1250 250 
L 1250 100 
L 200 100 
z
" transform="scale(0.015625)"/>
      <path id="SimSun-50" d="M 175 2900 
Q 300 2900 425 2925 
Q 550 2950 625 3000 
L 675 3000 
L 675 2575 
Q 800 2775 950 2862 
Q 1100 2950 1275 2950 
Q 1500 2950 1625 2862 
Q 1750 2775 1775 2575 
Q 1900 2775 2062 2862 
Q 2225 2950 2400 2950 
Q 2700 2950 2812 2775 
Q 2925 2600 2925 2325 
L 2925 425 
Q 2925 325 2975 287 
Q 3025 250 3125 250 
L 3175 250 
L 3175 100 
L 2325 100 
L 2325 250 
L 2375 250 
Q 2475 250 2525 287 
Q 2575 325 2575 425 
L 2575 2300 
Q 2575 2575 2512 2662 
Q 2450 2750 2325 2750 
Q 2150 2750 2012 2625 
Q 1875 2500 1800 2275 
L 1800 425 
Q 1800 325 1850 287 
Q 1900 250 2000 250 
L 2050 250 
L 2050 100 
L 1200 100 
L 1200 250 
L 1250 250 
Q 1350 250 1400 287 
Q 1450 325 1450 425 
L 1450 2300 
Q 1450 2525 1400 2637 
Q 1350 2750 1200 2750 
Q 1025 2750 887 2625 
Q 750 2500 675 2250 
L 675 425 
Q 675 325 725 287 
Q 775 250 875 250 
L 925 250 
L 925 100 
L 75 100 
L 75 250 
L 125 250 
Q 225 250 275 287 
Q 325 325 325 425 
L 325 2600 
Q 325 2675 300 2712 
Q 275 2750 200 2750 
L 100 2750 
L 100 2900 
L 175 2900 
z
" transform="scale(0.015625)"/>
      <path id="SimSun-44" d="M 1225 75 
Q 775 75 525 287 
Q 275 500 275 775 
Q 275 1225 662 1512 
Q 1050 1800 2200 1925 
L 2200 2225 
Q 2200 2475 2087 2637 
Q 1975 2800 1575 2800 
Q 1150 2800 975 2662 
Q 800 2525 850 2375 
Q 875 2325 875 2275 
Q 875 2225 837 2150 
Q 800 2075 650 2075 
Q 550 2075 487 2137 
Q 425 2200 425 2325 
Q 425 2550 750 2750 
Q 1075 2950 1550 2950 
Q 2050 2950 2300 2762 
Q 2550 2575 2550 2225 
L 2550 575 
Q 2550 375 2587 337 
Q 2625 300 2725 300 
Q 2850 300 2900 412 
Q 2950 525 2950 725 
L 3075 725 
Q 3075 375 2950 237 
Q 2825 100 2625 100 
Q 2450 100 2350 175 
Q 2250 250 2200 425 
Q 1950 250 1737 162 
Q 1525 75 1225 75 
z
M 700 850 
Q 700 625 837 437 
Q 975 250 1275 250 
Q 1500 250 1725 337 
Q 1950 425 2200 600 
L 2200 1775 
Q 1350 1675 1025 1437 
Q 700 1200 700 850 
z
" transform="scale(0.015625)"/>
      <path id="SimSun-4c" d="M 1425 2525 
Q 1425 2625 1375 2687 
Q 1325 2750 1200 2750 
L 675 2750 
L 675 2900 
L 925 2900 
Q 1150 2900 1350 2937 
Q 1550 2975 1725 3075 
L 1775 3075 
L 1775 450 
Q 1775 350 1837 300 
Q 1900 250 2000 250 
L 2525 250 
L 2525 100 
L 675 100 
L 675 250 
L 1200 250 
Q 1325 250 1375 300 
Q 1425 350 1425 450 
L 1425 2525 
z
M 1725 3025 
L 1725 3025 
z
M 1625 4425 
Q 1750 4425 1850 4337 
Q 1950 4250 1950 4125 
Q 1950 4000 1850 3900 
Q 1750 3800 1625 3800 
Q 1500 3800 1400 3900 
Q 1300 4000 1300 4125 
Q 1300 4250 1400 4337 
Q 1500 4425 1625 4425 
z
" transform="scale(0.015625)"/>
     </defs>
     <use xlink:href="#SimSun-3503"/>
     <use xlink:href="#SimSun-1db4" transform="translate(100 0)"/>
     <use xlink:href="#SimSun-2f6a" transform="translate(200 0)"/>
     <use xlink:href="#SimSun-173f" transform="translate(300 0)"/>
     <use xlink:href="#SimSun-3" transform="translate(400 0)"/>
     <use xlink:href="#SimSun-12" transform="translate(450 0)"/>
     <use xlink:href="#SimSun-3" transform="translate(500 0)"/>
     <use xlink:href="#SimSun-36" transform="translate(550 0)"/>
     <use xlink:href="#SimSun-57" transform="translate(600 0)"/>
     <use xlink:href="#SimSun-55" transform="translate(650 0)"/>
     <use xlink:href="#SimSun-58" transform="translate(700 0)"/>
     <use xlink:href="#SimSun-46" transform="translate(750 0)"/>
     <use xlink:href="#SimSun-57" transform="translate(800 0)"/>
     <use xlink:href="#SimSun-58" transform="translate(850 0)"/>
     <use xlink:href="#SimSun-55" transform="translate(900 0)"/>
     <use xlink:href="#SimSun-48" transform="translate(950 0)"/>
     <use xlink:href="#SimSun-3" transform="translate(1000 0)"/>
     <use xlink:href="#SimSun-56" transform="translate(1050 0)"/>
     <use xlink:href="#SimSun-46" transform="translate(1100 0)"/>
     <use xlink:href="#SimSun-4b" transform="translate(1150 0)"/>
     <use xlink:href="#SimSun-48" transform="translate(1200 0)"/>
     <use xlink:href="#SimSun-50" transform="translate(1250 0)"/>
     <use xlink:href="#SimSun-44" transform="translate(1300 0)"/>
     <use xlink:href="#SimSun-57" transform="translate(1350 0)"/>
     <use xlink:href="#SimSun-4c" transform="translate(1400 0)"/>
     <use xlink:href="#SimSun-46" transform="translate(1450 0)"/>
    </g>
   </g>
   <g id="text_2">
    <!-- 上层材料 -->
    <g transform="translate(51.466535 63.550591) scale(0.08 -0.08)">
     <defs>
      <path id="SimSun-43a" d="M 2725 5175 
L 3400 4875 
L 3125 4675 
L 3125 3000 
L 4600 3000 
L 4975 3375 
L 5500 2850 
L 3125 2850 
L 3125 25 
L 5175 25 
L 5575 425 
L 6125 -125 
L 1125 -125 
Q 800 -125 525 -200 
L 300 25 
L 2750 25 
L 2750 4225 
Q 2750 4675 2725 5175 
z
" transform="scale(0.015625)"/>
      <path id="SimSun-1272" d="M 2075 2775 
L 4775 2775 
L 5075 3075 
L 5525 2625 
L 2900 2625 
Q 2525 2625 2300 2550 
L 2075 2775 
z
M 4350 850 
Q 4825 575 5162 300 
Q 5500 25 5525 -175 
Q 5550 -375 5450 -487 
Q 5350 -600 5325 -600 
Q 5250 -600 5225 -525 
Q 5125 -350 4975 -75 
Q 3800 -175 3087 -275 
Q 2375 -375 2150 -525 
L 1900 -50 
Q 2225 -25 2700 575 
Q 3175 1175 3350 1625 
L 2400 1625 
Q 2075 1625 1800 1550 
L 1575 1775 
L 5225 1775 
L 5550 2100 
L 6025 1625 
L 3425 1625 
L 3900 1300 
Q 3675 1225 3275 825 
Q 2875 400 2350 -50 
L 4925 25 
Q 4700 375 4275 775 
L 4350 850 
z
M 1550 4675 
L 1550 3825 
L 5050 3825 
L 5050 4675 
L 1550 4675 
z
M 250 -575 
Q 725 150 925 925 
Q 1125 1700 1150 2462 
Q 1175 3225 1175 3862 
Q 1175 4500 1150 5025 
L 1550 4825 
L 5025 4825 
L 5275 5075 
L 5625 4725 
L 5425 4575 
Q 5425 4300 5425 4012 
Q 5425 3725 5450 3525 
L 5050 3375 
L 5050 3675 
L 1550 3675 
Q 1550 2925 1475 2150 
Q 1400 1375 1162 700 
Q 925 25 325 -650 
L 250 -575 
z
" transform="scale(0.015625)"/>
      <path id="SimSun-1d80" d="M 3750 75 
Q 4325 -25 4537 -12 
Q 4750 0 4750 225 
L 4750 2800 
Q 3975 1375 2600 525 
L 2525 600 
Q 3875 1625 4675 3550 
L 3650 3550 
L 3425 3500 
L 3225 3700 
L 4750 3700 
Q 4750 4500 4725 5250 
L 5350 4975 
L 5125 4800 
L 5125 3700 
L 5425 3700 
L 5725 4000 
L 6175 3550 
L 5125 3550 
L 5125 -25 
Q 5125 -400 4575 -625 
Q 4575 -300 3750 -50 
L 3750 75 
z
M 1950 2925 
Q 1950 0 1975 -500 
L 1550 -675 
Q 1575 500 1575 2375 
Q 1200 1450 325 550 
L 250 625 
Q 1125 1750 1575 3525 
L 675 3525 
L 450 3475 
L 250 3675 
L 1575 3675 
Q 1575 4500 1550 5250 
L 2175 4950 
L 1950 4750 
L 1950 3675 
L 2375 3675 
L 2675 3975 
L 3125 3525 
L 1950 3525 
L 1950 3050 
Q 2575 2725 2762 2550 
Q 2950 2375 2950 2200 
Q 2950 2125 2887 1962 
Q 2825 1800 2775 1800 
Q 2675 1800 2550 2100 
Q 2350 2550 1950 2925 
z
" transform="scale(0.015625)"/>
      <path id="SimSun-1bc9" d="M 1900 225 
Q 1900 -25 1925 -400 
L 1550 -625 
Q 1575 550 1575 2125 
Q 1125 1150 300 425 
L 250 500 
Q 1050 1450 1475 2800 
L 850 2800 
L 625 2750 
L 425 2950 
L 1575 2950 
Q 1575 4075 1550 5200 
L 2100 4950 
L 1900 4775 
L 1900 2950 
L 2400 2950 
L 2700 3250 
L 3150 2800 
L 1900 2800 
L 1900 2400 
Q 2600 2125 2750 2012 
Q 2900 1900 2900 1725 
Q 2900 1675 2850 1525 
Q 2800 1375 2775 1375 
Q 2700 1375 2600 1550 
Q 2400 1850 1900 2275 
L 1900 225 
z
M 650 4500 
Q 1125 4100 1187 3937 
Q 1250 3775 1250 3675 
Q 1250 3525 1150 3412 
Q 1050 3300 1025 3300 
Q 925 3300 900 3550 
Q 850 3900 575 4450 
L 650 4500 
z
M 3425 4425 
Q 3950 4200 4100 4050 
Q 4250 3900 4250 3775 
Q 4250 3675 4162 3512 
Q 4075 3350 4025 3350 
Q 3950 3350 3875 3575 
Q 3750 3925 3375 4350 
L 3425 4425 
z
M 3375 2850 
Q 3800 2650 3987 2500 
Q 4175 2350 4175 2200 
Q 4175 2125 4100 1962 
Q 4025 1800 4000 1800 
Q 3925 1800 3850 2000 
Q 3700 2325 3325 2775 
L 3375 2850 
z
M 4775 1425 
Q 4775 3625 4750 5225 
L 5350 4975 
L 5125 4800 
L 5125 1500 
L 5475 1575 
L 5700 1950 
L 6175 1550 
L 5125 1350 
Q 5125 175 5150 -425 
L 4750 -600 
Q 4775 375 4775 1275 
L 2950 950 
L 2750 825 
L 2450 1025 
L 4775 1425 
z
M 3000 4225 
L 2800 4100 
Q 2475 3625 2150 3200 
L 2075 3250 
Q 2400 3800 2550 4550 
L 3000 4225 
z
" transform="scale(0.015625)"/>
     </defs>
     <use xlink:href="#SimSun-43a"/>
     <use xlink:href="#SimSun-1272" transform="translate(100 0)"/>
     <use xlink:href="#SimSun-1d80" transform="translate(200 0)"/>
     <use xlink:href="#SimSun-1bc9" transform="translate(300 0)"/>
    </g>
   </g>
   <g id="text_3">
    <!-- Layer A -->
    <g transform="translate(245.558268 62.585747) scale(0.08 -0.08)">
     <defs>
      <path id="TimesNewRomanPSMT-2f" d="M 3669 1172 
L 3772 1150 
L 3409 0 
L 128 0 
L 128 116 
L 288 116 
Q 556 116 672 291 
Q 738 391 738 753 
L 738 3488 
Q 738 3884 650 3984 
Q 528 4122 288 4122 
L 128 4122 
L 128 4238 
L 2047 4238 
L 2047 4122 
Q 1709 4125 1573 4059 
Q 1438 3994 1388 3894 
Q 1338 3794 1338 3416 
L 1338 753 
Q 1338 494 1388 397 
Q 1425 331 1503 300 
Q 1581 269 1991 269 
L 2300 269 
Q 2788 269 2984 341 
Q 3181 413 3343 595 
Q 3506 778 3669 1172 
z
" transform="scale(0.015625)"/>
      <path id="TimesNewRomanPSMT-44" d="M 1822 413 
Q 1381 72 1269 19 
Q 1100 -59 909 -59 
Q 613 -59 420 144 
Q 228 347 228 678 
Q 228 888 322 1041 
Q 450 1253 767 1440 
Q 1084 1628 1822 1897 
L 1822 2009 
Q 1822 2438 1686 2597 
Q 1550 2756 1291 2756 
Q 1094 2756 978 2650 
Q 859 2544 859 2406 
L 866 2225 
Q 866 2081 792 2003 
Q 719 1925 600 1925 
Q 484 1925 411 2006 
Q 338 2088 338 2228 
Q 338 2497 613 2722 
Q 888 2947 1384 2947 
Q 1766 2947 2009 2819 
Q 2194 2722 2281 2516 
Q 2338 2381 2338 1966 
L 2338 994 
Q 2338 584 2353 492 
Q 2369 400 2405 369 
Q 2441 338 2488 338 
Q 2538 338 2575 359 
Q 2641 400 2828 588 
L 2828 413 
Q 2478 -56 2159 -56 
Q 2006 -56 1915 50 
Q 1825 156 1822 413 
z
M 1822 616 
L 1822 1706 
Q 1350 1519 1213 1441 
Q 966 1303 859 1153 
Q 753 1003 753 825 
Q 753 600 887 451 
Q 1022 303 1197 303 
Q 1434 303 1822 616 
z
" transform="scale(0.015625)"/>
      <path id="TimesNewRomanPSMT-5c" d="M 38 2863 
L 1372 2863 
L 1372 2747 
L 1306 2747 
Q 1166 2747 1095 2686 
Q 1025 2625 1025 2534 
Q 1025 2413 1128 2197 
L 1825 753 
L 2466 2334 
Q 2519 2463 2519 2588 
Q 2519 2644 2497 2672 
Q 2472 2706 2419 2726 
Q 2366 2747 2231 2747 
L 2231 2863 
L 3163 2863 
L 3163 2747 
Q 3047 2734 2984 2696 
Q 2922 2659 2847 2556 
Q 2819 2513 2741 2316 
L 1575 -541 
Q 1406 -956 1132 -1168 
Q 859 -1381 606 -1381 
Q 422 -1381 303 -1275 
Q 184 -1169 184 -1031 
Q 184 -900 270 -820 
Q 356 -741 506 -741 
Q 609 -741 788 -809 
Q 913 -856 944 -856 
Q 1038 -856 1148 -759 
Q 1259 -663 1372 -384 
L 1575 113 
L 547 2272 
Q 500 2369 397 2513 
Q 319 2622 269 2659 
Q 197 2709 38 2747 
L 38 2863 
z
" transform="scale(0.015625)"/>
      <path id="TimesNewRomanPSMT-48" d="M 681 1784 
Q 678 1147 991 784 
Q 1303 422 1725 422 
Q 2006 422 2214 576 
Q 2422 731 2563 1106 
L 2659 1044 
Q 2594 616 2278 264 
Q 1963 -88 1488 -88 
Q 972 -88 605 314 
Q 238 716 238 1394 
Q 238 2128 614 2539 
Q 991 2950 1559 2950 
Q 2041 2950 2350 2633 
Q 2659 2316 2659 1784 
L 681 1784 
z
M 681 1966 
L 2006 1966 
Q 1991 2241 1941 2353 
Q 1863 2528 1708 2628 
Q 1553 2728 1384 2728 
Q 1125 2728 920 2526 
Q 716 2325 681 1966 
z
" transform="scale(0.015625)"/>
      <path id="TimesNewRomanPSMT-55" d="M 1038 2947 
L 1038 2303 
Q 1397 2947 1775 2947 
Q 1947 2947 2059 2842 
Q 2172 2738 2172 2600 
Q 2172 2478 2090 2393 
Q 2009 2309 1897 2309 
Q 1788 2309 1652 2417 
Q 1516 2525 1450 2525 
Q 1394 2525 1328 2463 
Q 1188 2334 1038 2041 
L 1038 669 
Q 1038 431 1097 309 
Q 1138 225 1241 169 
Q 1344 113 1538 113 
L 1538 0 
L 72 0 
L 72 113 
Q 291 113 397 181 
Q 475 231 506 341 
Q 522 394 522 644 
L 522 1753 
Q 522 2253 501 2348 
Q 481 2444 426 2487 
Q 372 2531 291 2531 
Q 194 2531 72 2484 
L 41 2597 
L 906 2947 
L 1038 2947 
z
" transform="scale(0.015625)"/>
      <path id="TimesNewRomanPSMT-3" transform="scale(0.015625)"/>
      <path id="TimesNewRomanPSMT-24" d="M 2928 1419 
L 1288 1419 
L 1000 750 
Q 894 503 894 381 
Q 894 284 986 211 
Q 1078 138 1384 116 
L 1384 0 
L 50 0 
L 50 116 
Q 316 163 394 238 
Q 553 388 747 847 
L 2238 4334 
L 2347 4334 
L 3822 809 
Q 4000 384 4145 257 
Q 4291 131 4550 116 
L 4550 0 
L 2878 0 
L 2878 116 
Q 3131 128 3220 200 
Q 3309 272 3309 375 
Q 3309 513 3184 809 
L 2928 1419 
z
M 2841 1650 
L 2122 3363 
L 1384 1650 
L 2841 1650 
z
" transform="scale(0.015625)"/>
     </defs>
     <use xlink:href="#TimesNewRomanPSMT-2f"/>
     <use xlink:href="#TimesNewRomanPSMT-44" transform="translate(61.078125 0)"/>
     <use xlink:href="#TimesNewRomanPSMT-5c" transform="translate(105.46875 0)"/>
     <use xlink:href="#TimesNewRomanPSMT-48" transform="translate(155.46875 0)"/>
     <use xlink:href="#TimesNewRomanPSMT-55" transform="translate(199.859375 0)"/>
     <use xlink:href="#TimesNewRomanPSMT-3" transform="translate(233.15625 0)"/>
     <use xlink:href="#TimesNewRomanPSMT-24" transform="translate(252.640625 0)"/>
    </g>
   </g>
   <g id="text_4">
    <!-- 功能层 -->
    <g transform="translate(51.466535 115.752953) scale(0.08 -0.08)">
     <defs>
      <path id="SimSun-8cf" d="M 4000 3475 
Q 4025 4675 3975 5250 
L 4575 4975 
L 4350 4775 
Q 4350 4000 4325 3475 
L 5375 3475 
L 5600 3725 
L 5975 3400 
L 5775 3250 
Q 5675 1350 5625 687 
Q 5575 25 5387 -225 
Q 5200 -475 4825 -600 
Q 4800 -250 3875 50 
L 3900 175 
Q 4750 25 4962 25 
Q 5175 25 5250 550 
Q 5325 1075 5425 3325 
L 4325 3325 
Q 4250 2300 4037 1625 
Q 3825 950 3325 412 
Q 2825 -125 1825 -600 
L 1750 -525 
Q 2575 -50 3025 462 
Q 3475 975 3700 1612 
Q 3925 2250 4000 3325 
L 3325 3325 
L 3025 3275 
L 2825 3475 
L 4000 3475 
z
M 1950 1275 
Q 2650 1450 3175 1625 
L 3225 1525 
Q 2125 1125 1462 850 
Q 800 575 700 425 
L 350 900 
Q 725 950 1625 1200 
L 1625 4000 
L 1250 4000 
Q 925 4000 650 3925 
L 425 4150 
L 2500 4150 
L 2775 4425 
L 3200 4000 
L 1950 4000 
L 1950 1275 
z
" transform="scale(0.015625)"/>
      <path id="SimSun-372d" d="M 1775 5250 
L 2225 4875 
Q 1950 4800 1550 4375 
Q 1150 3925 900 3700 
L 2800 3750 
Q 2575 4175 2375 4400 
L 2425 4475 
Q 2850 4225 3075 4012 
Q 3300 3800 3287 3612 
Q 3275 3425 3175 3337 
Q 3075 3250 3025 3250 
Q 2975 3250 2975 3325 
Q 2925 3450 2850 3650 
Q 2425 3600 1700 3525 
Q 975 3450 750 3275 
L 500 3750 
Q 750 3750 1175 4275 
Q 1600 4800 1775 5250 
z
M 825 -600 
Q 850 -75 850 1325 
Q 850 2725 825 3100 
L 1200 2900 
L 2475 2900 
L 2675 3150 
L 3050 2825 
L 2850 2650 
L 2850 100 
Q 2900 -375 2350 -600 
Q 2325 -275 1700 -100 
L 1700 0 
Q 2175 -50 2350 -50 
Q 2525 -50 2525 225 
L 2525 1100 
L 1200 1100 
L 1200 -400 
L 825 -600 
z
M 1200 2750 
L 1200 2125 
L 2525 2125 
L 2525 2750 
L 1200 2750 
z
M 1200 1975 
L 1200 1250 
L 2525 1250 
L 2525 1975 
L 1200 1975 
z
M 3700 3075 
Q 3700 4825 3675 5100 
L 4250 4850 
L 4025 4650 
L 4025 3775 
Q 4800 4175 5175 4675 
L 5550 4250 
L 5325 4225 
Q 4600 3850 4025 3650 
L 4025 3175 
Q 4025 2900 4400 2900 
L 5250 2900 
Q 5500 2925 5525 3162 
Q 5550 3400 5550 3800 
L 5650 3800 
Q 5675 3500 5725 3262 
Q 5775 3025 6000 2950 
Q 5850 2625 5275 2625 
L 4225 2625 
Q 3700 2600 3700 3075 
z
M 3625 50 
Q 3625 2000 3600 2300 
L 4175 2025 
L 3950 1850 
L 3950 1050 
Q 4825 1525 5250 2125 
L 5650 1650 
L 5425 1650 
Q 4600 1200 3950 900 
L 3950 275 
Q 3950 -125 4325 -100 
L 5300 -100 
Q 5575 -75 5600 250 
Q 5600 550 5625 925 
L 5725 925 
Q 5750 500 5812 262 
Q 5875 25 6075 -25 
Q 5950 -375 5325 -400 
L 4175 -400 
Q 3650 -400 3625 50 
z
" transform="scale(0.015625)"/>
     </defs>
     <use xlink:href="#SimSun-8cf"/>
     <use xlink:href="#SimSun-372d" transform="translate(100 0)"/>
     <use xlink:href="#SimSun-1272" transform="translate(200 0)"/>
    </g>
   </g>
   <g id="text_5">
    <!-- Functional layer -->
    <g transform="translate(245.558268 114.792172) scale(0.08 -0.08)">
     <defs>
      <path id="TimesNewRomanPSMT-29" d="M 1309 4006 
L 1309 2341 
L 2081 2341 
Q 2347 2341 2470 2458 
Q 2594 2575 2634 2922 
L 2750 2922 
L 2750 1488 
L 2634 1488 
Q 2631 1734 2570 1850 
Q 2509 1966 2401 2023 
Q 2294 2081 2081 2081 
L 1309 2081 
L 1309 750 
Q 1309 428 1350 325 
Q 1381 247 1481 191 
Q 1619 116 1769 116 
L 1922 116 
L 1922 0 
L 103 0 
L 103 116 
L 253 116 
Q 516 116 634 269 
Q 709 369 709 750 
L 709 3488 
Q 709 3809 669 3913 
Q 638 3991 541 4047 
Q 406 4122 253 4122 
L 103 4122 
L 103 4238 
L 3256 4238 
L 3297 3306 
L 3188 3306 
Q 3106 3603 2998 3742 
Q 2891 3881 2733 3943 
Q 2575 4006 2244 4006 
L 1309 4006 
z
" transform="scale(0.015625)"/>
      <path id="TimesNewRomanPSMT-58" d="M 2709 2863 
L 2709 1128 
Q 2709 631 2732 520 
Q 2756 409 2807 365 
Q 2859 322 2928 322 
Q 3025 322 3147 375 
L 3191 266 
L 2334 -88 
L 2194 -88 
L 2194 519 
Q 1825 119 1631 15 
Q 1438 -88 1222 -88 
Q 981 -88 804 51 
Q 628 191 559 409 
Q 491 628 491 1028 
L 491 2306 
Q 491 2509 447 2587 
Q 403 2666 317 2708 
Q 231 2750 6 2747 
L 6 2863 
L 1009 2863 
L 1009 947 
Q 1009 547 1148 422 
Q 1288 297 1484 297 
Q 1619 297 1789 381 
Q 1959 466 2194 703 
L 2194 2325 
Q 2194 2569 2105 2655 
Q 2016 2741 1734 2747 
L 1734 2863 
L 2709 2863 
z
" transform="scale(0.015625)"/>
      <path id="TimesNewRomanPSMT-51" d="M 1034 2341 
Q 1538 2947 1994 2947 
Q 2228 2947 2397 2830 
Q 2566 2713 2666 2444 
Q 2734 2256 2734 1869 
L 2734 647 
Q 2734 375 2778 278 
Q 2813 200 2889 156 
Q 2966 113 3172 113 
L 3172 0 
L 1756 0 
L 1756 113 
L 1816 113 
Q 2016 113 2095 173 
Q 2175 234 2206 353 
Q 2219 400 2219 647 
L 2219 1819 
Q 2219 2209 2117 2386 
Q 2016 2563 1775 2563 
Q 1403 2563 1034 2156 
L 1034 647 
Q 1034 356 1069 288 
Q 1113 197 1189 155 
Q 1266 113 1500 113 
L 1500 0 
L 84 0 
L 84 113 
L 147 113 
Q 366 113 442 223 
Q 519 334 519 647 
L 519 1709 
Q 519 2225 495 2337 
Q 472 2450 423 2490 
Q 375 2531 294 2531 
Q 206 2531 84 2484 
L 38 2597 
L 900 2947 
L 1034 2947 
L 1034 2341 
z
" transform="scale(0.015625)"/>
      <path id="TimesNewRomanPSMT-46" d="M 2631 1088 
Q 2516 522 2178 217 
Q 1841 -88 1431 -88 
Q 944 -88 581 321 
Q 219 731 219 1428 
Q 219 2103 620 2525 
Q 1022 2947 1584 2947 
Q 2006 2947 2278 2723 
Q 2550 2500 2550 2259 
Q 2550 2141 2473 2067 
Q 2397 1994 2259 1994 
Q 2075 1994 1981 2113 
Q 1928 2178 1911 2362 
Q 1894 2547 1784 2644 
Q 1675 2738 1481 2738 
Q 1169 2738 978 2506 
Q 725 2200 725 1697 
Q 725 1184 976 792 
Q 1228 400 1656 400 
Q 1963 400 2206 609 
Q 2378 753 2541 1131 
L 2631 1088 
z
" transform="scale(0.015625)"/>
      <path id="TimesNewRomanPSMT-57" d="M 1031 3803 
L 1031 2863 
L 1700 2863 
L 1700 2644 
L 1031 2644 
L 1031 788 
Q 1031 509 1111 412 
Q 1191 316 1316 316 
Q 1419 316 1516 380 
Q 1613 444 1666 569 
L 1788 569 
Q 1678 263 1478 108 
Q 1278 -47 1066 -47 
Q 922 -47 784 33 
Q 647 113 581 261 
Q 516 409 516 719 
L 516 2644 
L 63 2644 
L 63 2747 
Q 234 2816 414 2980 
Q 594 3144 734 3369 
Q 806 3488 934 3803 
L 1031 3803 
z
" transform="scale(0.015625)"/>
      <path id="TimesNewRomanPSMT-4c" d="M 928 4444 
Q 1059 4444 1151 4351 
Q 1244 4259 1244 4128 
Q 1244 3997 1151 3903 
Q 1059 3809 928 3809 
Q 797 3809 703 3903 
Q 609 3997 609 4128 
Q 609 4259 701 4351 
Q 794 4444 928 4444 
z
M 1188 2947 
L 1188 647 
Q 1188 378 1227 289 
Q 1266 200 1342 156 
Q 1419 113 1622 113 
L 1622 0 
L 231 0 
L 231 113 
Q 441 113 512 153 
Q 584 194 626 287 
Q 669 381 669 647 
L 669 1750 
Q 669 2216 641 2353 
Q 619 2453 572 2492 
Q 525 2531 444 2531 
Q 356 2531 231 2484 
L 188 2597 
L 1050 2947 
L 1188 2947 
z
" transform="scale(0.015625)"/>
      <path id="TimesNewRomanPSMT-52" d="M 1600 2947 
Q 2250 2947 2644 2453 
Q 2978 2031 2978 1484 
Q 2978 1100 2793 706 
Q 2609 313 2286 112 
Q 1963 -88 1566 -88 
Q 919 -88 538 428 
Q 216 863 216 1403 
Q 216 1797 411 2186 
Q 606 2575 925 2761 
Q 1244 2947 1600 2947 
z
M 1503 2744 
Q 1338 2744 1170 2645 
Q 1003 2547 900 2300 
Q 797 2053 797 1666 
Q 797 1041 1045 587 
Q 1294 134 1700 134 
Q 2003 134 2200 384 
Q 2397 634 2397 1244 
Q 2397 2006 2069 2444 
Q 1847 2744 1503 2744 
z
" transform="scale(0.015625)"/>
      <path id="TimesNewRomanPSMT-4f" d="M 1184 4444 
L 1184 647 
Q 1184 378 1223 290 
Q 1263 203 1344 158 
Q 1425 113 1647 113 
L 1647 0 
L 244 0 
L 244 113 
Q 441 113 512 153 
Q 584 194 625 287 
Q 666 381 666 647 
L 666 3247 
Q 666 3731 644 3842 
Q 622 3953 573 3993 
Q 525 4034 450 4034 
Q 369 4034 244 3984 
L 191 4094 
L 1044 4444 
L 1184 4444 
z
" transform="scale(0.015625)"/>
     </defs>
     <use xlink:href="#TimesNewRomanPSMT-29"/>
     <use xlink:href="#TimesNewRomanPSMT-58" transform="translate(55.609375 0)"/>
     <use xlink:href="#TimesNewRomanPSMT-51" transform="translate(105.609375 0)"/>
     <use xlink:href="#TimesNewRomanPSMT-46" transform="translate(155.609375 0)"/>
     <use xlink:href="#TimesNewRomanPSMT-57" transform="translate(200 0)"/>
     <use xlink:href="#TimesNewRomanPSMT-4c" transform="translate(227.78125 0)"/>
     <use xlink:href="#TimesNewRomanPSMT-52" transform="translate(255.5625 0)"/>
     <use xlink:href="#TimesNewRomanPSMT-51" transform="translate(305.5625 0)"/>
     <use xlink:href="#TimesNewRomanPSMT-44" transform="translate(355.5625 0)"/>
     <use xlink:href="#TimesNewRomanPSMT-4f" transform="translate(399.953125 0)"/>
     <use xlink:href="#TimesNewRomanPSMT-3" transform="translate(427.734375 0)"/>
     <use xlink:href="#TimesNewRomanPSMT-4f" transform="translate(452.734375 0)"/>
     <use xlink:href="#TimesNewRomanPSMT-44" transform="translate(480.515625 0)"/>
     <use xlink:href="#TimesNewRomanPSMT-5c" transform="translate(524.90625 0)"/>
     <use xlink:href="#TimesNewRomanPSMT-48" transform="translate(574.90625 0)"/>
     <use xlink:href="#TimesNewRomanPSMT-55" transform="translate(619.296875 0)"/>
    </g>
   </g>
   <g id="patch_8">
    <path d="M 177.455906 34.6637 
Q 177.455906 54.94674 177.455906 74.111746 
" style="fill: none; stroke: #000000; stroke-linecap: round"/>
    <path d="M 179.055906 70.911746 
L 177.455906 74.111746 
L 175.855906 70.911746 
" style="fill: none; stroke: #000000; stroke-linecap: round"/>
   </g>
   <g id="text_6">
    <!-- load / 载荷 -->
    <g transform="translate(182.563583 35.539567) scale(0.08 -0.08)">
     <defs>
      <path id="SimSun-4f" d="M 925 4375 
Q 1150 4375 1350 4425 
Q 1550 4475 1725 4575 
L 1775 4575 
L 1775 450 
Q 1775 350 1837 300 
Q 1900 250 2000 250 
L 2575 250 
L 2575 100 
L 625 100 
L 625 250 
L 1200 250 
Q 1325 250 1375 300 
Q 1425 350 1425 450 
L 1425 4025 
Q 1425 4125 1375 4175 
Q 1325 4225 1200 4225 
L 650 4225 
L 650 4375 
L 925 4375 
z
" transform="scale(0.015625)"/>
      <path id="SimSun-52" d="M 2900 1500 
Q 2900 875 2525 462 
Q 2150 50 1600 50 
Q 1025 50 662 475 
Q 300 900 300 1500 
Q 300 2050 662 2500 
Q 1025 2950 1600 2950 
Q 2200 2950 2550 2500 
Q 2900 2050 2900 1500 
z
M 700 1475 
Q 700 825 962 512 
Q 1225 200 1600 200 
Q 2025 200 2262 537 
Q 2500 875 2500 1475 
Q 2500 2125 2237 2462 
Q 1975 2800 1600 2800 
Q 1250 2800 975 2462 
Q 700 2125 700 1475 
z
" transform="scale(0.015625)"/>
      <path id="SimSun-47" d="M 2300 2350 
Q 2175 2550 1975 2637 
Q 1775 2725 1575 2725 
Q 1200 2725 987 2375 
Q 775 2025 775 1450 
Q 775 850 975 562 
Q 1175 275 1550 275 
Q 1825 275 2012 450 
Q 2200 625 2300 975 
L 2300 2350 
z
M 1475 75 
Q 1025 75 700 437 
Q 375 800 375 1500 
Q 375 2150 725 2537 
Q 1075 2925 1550 2925 
Q 1750 2925 1962 2837 
Q 2175 2750 2300 2575 
L 2300 3925 
Q 2300 4075 2250 4150 
Q 2200 4225 2075 4225 
L 1875 4225 
L 1875 4375 
L 2150 4375 
Q 2275 4375 2400 4425 
Q 2525 4475 2650 4575 
L 2650 625 
Q 2650 500 2700 450 
Q 2750 400 2850 400 
L 3025 400 
L 3025 250 
L 2875 250 
Q 2775 250 2637 212 
Q 2500 175 2350 100 
L 2300 100 
L 2300 575 
Q 2175 350 1962 212 
Q 1750 75 1475 75 
z
" transform="scale(0.015625)"/>
      <path id="SimSun-45ad" d="M 1850 5200 
L 2375 5000 
L 2200 4825 
L 2200 4325 
L 2675 4325 
L 2975 4600 
L 3400 4175 
L 2200 4175 
L 2200 3525 
L 3700 3525 
Q 3675 4525 3650 5200 
L 4200 4950 
L 4000 4775 
Q 4000 3950 4025 3525 
L 5250 3525 
L 5625 3850 
L 6100 3375 
L 4050 3375 
Q 4125 2300 4425 1400 
Q 4925 2200 5175 3075 
L 5650 2750 
L 5450 2575 
Q 5075 1775 4575 1050 
Q 4950 350 5650 -50 
L 5875 1050 
L 5975 1025 
Q 5925 350 5950 25 
Q 5975 -300 6075 -500 
Q 6125 -625 6025 -625 
Q 5975 -625 5775 -562 
Q 5575 -500 5125 -150 
Q 4675 200 4350 775 
Q 3575 -125 2625 -600 
L 2575 -525 
Q 3575 175 4175 1075 
Q 3825 1950 3725 3375 
L 1100 3375 
Q 775 3375 500 3300 
L 275 3525 
L 1875 3525 
L 1875 4175 
L 1525 4175 
Q 1200 4175 925 4100 
L 700 4325 
L 1875 4325 
Q 1875 4800 1850 5200 
z
M 4500 4850 
Q 5000 4650 5212 4512 
Q 5425 4375 5400 4187 
Q 5375 4000 5300 3925 
Q 5225 3850 5200 3850 
Q 5125 3850 5025 4050 
Q 4900 4325 4450 4775 
L 4500 4850 
z
M 500 525 
Q 850 550 1975 725 
L 1975 1400 
L 1150 1400 
L 975 1250 
L 700 1575 
Q 900 1575 1350 2450 
L 1150 2450 
Q 850 2450 575 2375 
L 350 2600 
L 1425 2600 
Q 1625 3025 1700 3300 
L 2150 3025 
L 1975 2950 
Q 1900 2850 1775 2600 
L 2700 2600 
L 3025 2900 
L 3425 2450 
L 1700 2450 
L 1175 1550 
L 1975 1550 
Q 1975 1925 1950 2300 
L 2450 2075 
L 2300 1900 
L 2300 1550 
L 2800 1550 
L 3075 1850 
L 3475 1400 
L 2300 1400 
L 2300 775 
L 3400 925 
L 3425 850 
L 2300 575 
Q 2300 -50 2325 -400 
L 1950 -550 
Q 1975 225 1975 500 
Q 850 275 725 100 
L 500 525 
z
" transform="scale(0.015625)"/>
      <path id="SimSun-39a7" d="M 2200 3450 
L 2200 4200 
L 1175 4200 
Q 850 4200 575 4125 
L 350 4350 
L 2200 4350 
Q 2200 4775 2175 5200 
L 2775 4925 
L 2550 4750 
L 2550 4350 
L 3825 4350 
Q 3825 4800 3800 5175 
L 4375 4925 
L 4175 4750 
L 4175 4350 
L 5050 4350 
L 5475 4700 
L 5975 4200 
L 4175 4200 
L 4175 3575 
L 3825 3450 
L 3825 4200 
L 2550 4200 
L 2550 3625 
L 2200 3450 
z
M 3875 0 
Q 4400 -75 4587 -100 
Q 4775 -125 4775 125 
L 4775 2900 
L 2975 2900 
Q 2650 2900 2375 2825 
L 2150 3050 
L 5150 3050 
L 5550 3400 
L 6050 2900 
L 5125 2900 
L 5125 -25 
Q 5150 -525 4575 -625 
Q 4550 -275 3875 -100 
L 3875 0 
z
M 2375 100 
Q 2400 725 2400 1300 
Q 2400 1875 2375 2375 
L 2750 2175 
L 3525 2175 
L 3775 2425 
L 4125 2075 
L 3900 1925 
Q 3900 850 3925 550 
L 3575 375 
L 3575 700 
L 2725 700 
L 2725 250 
L 2375 100 
z
M 2725 2025 
L 2725 850 
L 3575 850 
L 3575 2025 
L 2725 2025 
z
M 1825 2200 
L 1600 2075 
Q 1600 -75 1625 -450 
L 1225 -650 
Q 1250 -150 1250 2125 
Q 725 1550 275 1275 
L 225 1350 
Q 675 1775 1100 2412 
Q 1525 3050 1725 3675 
L 2225 3300 
L 2000 3200 
Q 1750 2800 1500 2450 
L 1825 2200 
z
" transform="scale(0.015625)"/>
     </defs>
     <use xlink:href="#SimSun-4f"/>
     <use xlink:href="#SimSun-52" transform="translate(50 0)"/>
     <use xlink:href="#SimSun-44" transform="translate(100 0)"/>
     <use xlink:href="#SimSun-47" transform="translate(150 0)"/>
     <use xlink:href="#SimSun-3" transform="translate(200 0)"/>
     <use xlink:href="#SimSun-12" transform="translate(250 0)"/>
     <use xlink:href="#SimSun-3" transform="translate(300 0)"/>
     <use xlink:href="#SimSun-45ad" transform="translate(350 0)"/>
     <use xlink:href="#SimSun-39a7" transform="translate(450 0)"/>
    </g>
   </g>
  </g>
 </g>
 <defs>
  <clipPath id="p8f01ef7d7c">
   <rect x="7.2" y="7.2" width="340.511811" height="152.787402"/>
  </clipPath>
 </defs>
</svg>
