<?xml version="1.0" encoding="utf-8" standalone="no"?>
<!DOCTYPE svg PUBLIC "-//W3C//DTD SVG 1.1//EN"
  "http://www.w3.org/Graphics/SVG/1.1/DTD/svg11.dtd">
<svg xmlns:xlink="http://www.w3.org/1999/xlink" width="354.911811pt" height="167.187402pt" viewBox="0 0 354.911811 167.187402" xmlns="http://www.w3.org/2000/svg" version="1.1">
 <metadata>
  <rdf:RDF xmlns:dc="http://purl.org/dc/elements/1.1/" xmlns:cc="http://creativecommons.org/ns#" xmlns:rdf="http://www.w3.org/1999/02/22-rdf-syntax-ns#">
   <cc:Work>
    <dc:type rdf:resource="http://purl.org/dc/dcmitype/StillImage"/>
    <dc:date>2026-06-20T22:15:56.676899</dc:date>
    <dc:format>image/svg+xml</dc:format>
    <dc:creator>
     <cc:Agent>
      <dc:title>Matplotlib v3.11.0, https://matplotlib.org/</dc:title>
     </cc:Agent>
    </dc:creator>
   </cc:Work>
  </rdf:RDF>
 </metadata>
 <defs>
  <style type="text/css">*{stroke-linejoin: round; stroke-linecap: butt}</style>
 </defs>
 <g id="figure_1">
  <g id="patch_1">
   <path d="M 0 167.187402 
L 354.911811 167.187402 
L 354.911811 0 
L 0 0 
z
" style="fill: #ffffff"/>
  </g>
  <g id="axes_1">
   <g id="patch_2">
    <path d="M 34.440945 95.052756 
L 80.410039 95.052756 
L 80.410039 72.134646 
L 34.440945 72.134646 
z
" clip-path="url(#p9facd8410a)" style="fill: #f7f7f7; stroke: #333333; stroke-linejoin: miter"/>
   </g>
   <g id="patch_3">
    <path d="M 109.353543 74.681102 
L 155.322638 74.681102 
L 155.322638 51.762992 
L 109.353543 51.762992 
z
" clip-path="url(#p9facd8410a)" style="fill: #f7f7f7; stroke: #333333; stroke-linejoin: miter"/>
   </g>
   <g id="patch_4">
    <path d="M 184.266142 74.681102 
L 230.235236 74.681102 
L 230.235236 51.762992 
L 184.266142 51.762992 
z
" clip-path="url(#p9facd8410a)" style="fill: #f7f7f7; stroke: #333333; stroke-linejoin: miter"/>
   </g>
   <g id="patch_5">
    <path d="M 259.17874 74.681102 
L 305.147835 74.681102 
L 305.147835 51.762992 
L 259.17874 51.762992 
z
" clip-path="url(#p9facd8410a)" style="fill: #f7f7f7; stroke: #333333; stroke-linejoin: miter"/>
   </g>
   <g id="patch_6">
    <path d="M 82.045884 82.442324 
Q 94.881351 73.408184 106.619686 65.146251 
" clip-path="url(#p9facd8410a)" style="fill: none; stroke-dasharray: 4.44,1.92; stroke-dashoffset: 0; stroke: #d55e00; stroke-width: 1.2; stroke-linecap: round"/>
    <path d="M 102.197535 65.81302 
L 106.619686 65.146251 
L 104.499811 69.084033 
" clip-path="url(#p9facd8410a)" style="fill: none; stroke-dasharray: 4.44,1.92; stroke-dashoffset: 0; stroke: #d55e00; stroke-width: 1.2; stroke-linecap: round"/>
   </g>
   <g id="patch_7">
    <path d="M 157.32593 63.222047 
Q 169.794657 63.222047 180.921743 63.222047 
" clip-path="url(#p9facd8410a)" style="fill: none; stroke: #000000; stroke-width: 1.2; stroke-linecap: round"/>
    <path d="M 176.921743 61.222047 
L 180.921743 63.222047 
L 176.921743 65.222047 
" clip-path="url(#p9facd8410a)" style="fill: none; stroke: #000000; stroke-width: 1.2; stroke-linecap: round"/>
   </g>
   <g id="patch_8">
    <path d="M 232.238528 63.222047 
Q 244.707255 63.222047 255.834342 63.222047 
" clip-path="url(#p9facd8410a)" style="fill: none; stroke: #000000; stroke-width: 1.2; stroke-linecap: round"/>
    <path d="M 251.834342 61.222047 
L 255.834342 63.222047 
L 251.834342 65.222047 
" clip-path="url(#p9facd8410a)" style="fill: none; stroke: #000000; stroke-width: 1.2; stroke-linecap: round"/>
   </g>
   <g id="patch_9">
    <path d="M 39.845042 121.790551 
Q 172.347507 121.790551 302.837511 121.790551 
" clip-path="url(#p9facd8410a)" style="fill: none; stroke: #0072b2; stroke-width: 1.8; stroke-linecap: round"/>
    <path d="M 298.837511 119.790551 
L 302.837511 121.790551 
L 298.837511 123.790551 
" clip-path="url(#p9facd8410a)" style="fill: none; stroke: #0072b2; stroke-width: 1.8; stroke-linecap: round"/>
   </g>
   <g id="text_1">
    <!-- 样品 -->
    <g transform="translate(49.425492 81.906201) scale(0.08 -0.08)">
     <defs>
      <path id="SimSun-1e67" d="M 2800 5025 
L 2850 5100 
Q 3625 4675 3700 4512 
Q 3775 4350 3775 4300 
Q 3775 4175 3675 4037 
Q 3575 3900 3550 3900 
Q 3450 3900 3375 4125 
Q 3250 4475 2800 5025 
z
M 4275 1325 
Q 4275 75 4300 -475 
L 3900 -625 
Q 3925 275 3925 1325 
L 3075 1325 
Q 2750 1325 2475 1250 
L 2250 1475 
L 3925 1475 
L 3925 2525 
L 3500 2525 
Q 3175 2525 2900 2450 
L 2675 2675 
L 3925 2675 
L 3925 3600 
L 3475 3600 
Q 3150 3600 2875 3525 
L 2650 3750 
L 4275 3750 
Q 4725 4600 4875 5250 
L 5400 4900 
Q 5150 4775 4900 4425 
Q 4650 4075 4425 3750 
L 5150 3750 
L 5450 4050 
L 5900 3600 
L 4275 3600 
L 4275 2675 
L 4975 2675 
L 5275 2975 
L 5725 2525 
L 4275 2525 
L 4275 1475 
L 5275 1475 
L 5600 1800 
L 6075 1325 
L 4275 1325 
z
M 1650 750 
Q 1650 400 1675 -500 
L 1275 -650 
Q 1300 825 1300 2375 
Q 875 1375 300 725 
L 225 775 
Q 925 1875 1300 3600 
L 1125 3600 
Q 800 3600 525 3525 
L 300 3750 
L 1300 3750 
Q 1300 4375 1275 5250 
L 1850 4950 
L 1650 4775 
L 1650 3750 
L 1975 3750 
L 2250 4025 
L 2675 3600 
L 1650 3600 
L 1650 2925 
Q 2125 2700 2300 2550 
Q 2475 2400 2475 2250 
Q 2475 2150 2412 2000 
Q 2350 1850 2300 1850 
Q 2225 1850 2125 2075 
Q 1950 2450 1650 2775 
L 1650 750 
z
" transform="scale(0.015625)"/>
      <path id="SimSun-af1" d="M 5550 1850 
Q 5550 50 5575 -200 
L 5200 -350 
L 5200 200 
L 3900 200 
L 3900 -275 
L 3525 -425 
Q 3550 150 3550 950 
Q 3550 1750 3525 2325 
L 3900 2075 
L 5150 2075 
L 5350 2325 
L 5750 2000 
L 5550 1850 
z
M 3900 1925 
L 3900 350 
L 5200 350 
L 5200 1925 
L 3900 1925 
z
M 4575 4625 
Q 4575 3400 4600 2750 
L 4225 2600 
L 4225 2975 
L 2150 2975 
L 2150 2650 
L 1775 2525 
Q 1800 3325 1800 3937 
Q 1800 4550 1775 5075 
L 2175 4850 
L 4175 4850 
L 4375 5100 
L 4775 4775 
L 4575 4625 
z
M 2150 4700 
L 2150 3125 
L 4225 3125 
L 4225 4700 
L 2150 4700 
z
M 2725 1825 
Q 2725 450 2750 -150 
L 2375 -325 
L 2375 200 
L 1150 200 
L 1150 -350 
L 775 -500 
Q 800 125 800 937 
Q 800 1750 775 2300 
L 1150 2075 
L 2325 2075 
L 2525 2325 
L 2925 1975 
L 2725 1825 
z
M 1150 1925 
L 1150 350 
L 2375 350 
L 2375 1925 
L 1150 1925 
z
" transform="scale(0.015625)"/>
     </defs>
     <use xlink:href="#SimSun-1e67"/>
     <use xlink:href="#SimSun-af1" transform="translate(100 0)"/>
    </g>
    <!-- Sample -->
    <g transform="translate(45.425492 91.031201) scale(0.08 -0.08)">
     <defs>
      <path id="SimSun-36" d="M 1500 2150 
Q 825 2450 575 2675 
Q 325 2900 325 3375 
Q 325 3750 637 4087 
Q 950 4425 1525 4425 
Q 1775 4425 2000 4350 
Q 2225 4250 2325 4250 
Q 2400 4250 2462 4287 
Q 2525 4325 2575 4425 
L 2675 3400 
L 2550 3350 
Q 2325 3875 2087 4062 
Q 1850 4250 1475 4250 
Q 1000 4250 825 3987 
Q 650 3725 650 3425 
Q 650 3150 812 2987 
Q 975 2825 1700 2500 
Q 2300 2250 2562 1937 
Q 2825 1625 2825 1200 
Q 2825 750 2512 400 
Q 2200 50 1600 50 
Q 1350 50 1150 150 
Q 925 225 800 225 
Q 725 225 650 175 
Q 575 125 475 50 
L 275 1275 
L 425 1325 
Q 600 700 912 462 
Q 1225 225 1625 225 
Q 2050 225 2262 475 
Q 2475 725 2475 1200 
Q 2475 1450 2237 1687 
Q 2000 1925 1500 2150 
z
" transform="scale(0.015625)"/>
      <path id="SimSun-44" d="M 1225 75 
Q 775 75 525 287 
Q 275 500 275 775 
Q 275 1225 662 1512 
Q 1050 1800 2200 1925 
L 2200 2225 
Q 2200 2475 2087 2637 
Q 1975 2800 1575 2800 
Q 1150 2800 975 2662 
Q 800 2525 850 2375 
Q 875 2325 875 2275 
Q 875 2225 837 2150 
Q 800 2075 650 2075 
Q 550 2075 487 2137 
Q 425 2200 425 2325 
Q 425 2550 750 2750 
Q 1075 2950 1550 2950 
Q 2050 2950 2300 2762 
Q 2550 2575 2550 2225 
L 2550 575 
Q 2550 375 2587 337 
Q 2625 300 2725 300 
Q 2850 300 2900 412 
Q 2950 525 2950 725 
L 3075 725 
Q 3075 375 2950 237 
Q 2825 100 2625 100 
Q 2450 100 2350 175 
Q 2250 250 2200 425 
Q 1950 250 1737 162 
Q 1525 75 1225 75 
z
M 700 850 
Q 700 625 837 437 
Q 975 250 1275 250 
Q 1500 250 1725 337 
Q 1950 425 2200 600 
L 2200 1775 
Q 1350 1675 1025 1437 
Q 700 1200 700 850 
z
" transform="scale(0.015625)"/>
      <path id="SimSun-50" d="M 175 2900 
Q 300 2900 425 2925 
Q 550 2950 625 3000 
L 675 3000 
L 675 2575 
Q 800 2775 950 2862 
Q 1100 2950 1275 2950 
Q 1500 2950 1625 2862 
Q 1750 2775 1775 2575 
Q 1900 2775 2062 2862 
Q 2225 2950 2400 2950 
Q 2700 2950 2812 2775 
Q 2925 2600 2925 2325 
L 2925 425 
Q 2925 325 2975 287 
Q 3025 250 3125 250 
L 3175 250 
L 3175 100 
L 2325 100 
L 2325 250 
L 2375 250 
Q 2475 250 2525 287 
Q 2575 325 2575 425 
L 2575 2300 
Q 2575 2575 2512 2662 
Q 2450 2750 2325 2750 
Q 2150 2750 2012 2625 
Q 1875 2500 1800 2275 
L 1800 425 
Q 1800 325 1850 287 
Q 1900 250 2000 250 
L 2050 250 
L 2050 100 
L 1200 100 
L 1200 250 
L 1250 250 
Q 1350 250 1400 287 
Q 1450 325 1450 425 
L 1450 2300 
Q 1450 2525 1400 2637 
Q 1350 2750 1200 2750 
Q 1025 2750 887 2625 
Q 750 2500 675 2250 
L 675 425 
Q 675 325 725 287 
Q 775 250 875 250 
L 925 250 
L 925 100 
L 75 100 
L 75 250 
L 125 250 
Q 225 250 275 287 
Q 325 325 325 425 
L 325 2600 
Q 325 2675 300 2712 
Q 275 2750 200 2750 
L 100 2750 
L 100 2900 
L 175 2900 
z
" transform="scale(0.015625)"/>
      <path id="SimSun-53" d="M 1150 -675 
L 1325 -675 
L 1325 -825 
L 175 -825 
L 175 -675 
L 325 -675 
Q 450 -675 500 -625 
Q 550 -575 550 -450 
L 550 2500 
Q 550 2600 500 2662 
Q 450 2725 325 2725 
L 175 2725 
L 175 2875 
L 400 2875 
Q 525 2875 637 2900 
Q 750 2925 850 3000 
L 900 3000 
L 900 2425 
Q 1075 2675 1287 2800 
Q 1500 2925 1750 2925 
Q 2250 2925 2575 2587 
Q 2900 2250 2900 1525 
Q 2900 825 2550 450 
Q 2200 75 1725 75 
Q 1450 75 1262 162 
Q 1075 250 900 425 
L 900 -450 
Q 900 -575 975 -625 
Q 1050 -675 1150 -675 
z
M 900 750 
Q 1025 500 1212 375 
Q 1400 250 1650 250 
Q 2000 250 2250 562 
Q 2500 875 2500 1525 
Q 2500 2125 2312 2425 
Q 2125 2725 1750 2725 
Q 1525 2725 1300 2587 
Q 1075 2450 900 2150 
L 900 750 
z
" transform="scale(0.015625)"/>
      <path id="SimSun-4f" d="M 925 4375 
Q 1150 4375 1350 4425 
Q 1550 4475 1725 4575 
L 1775 4575 
L 1775 450 
Q 1775 350 1837 300 
Q 1900 250 2000 250 
L 2575 250 
L 2575 100 
L 625 100 
L 625 250 
L 1200 250 
Q 1325 250 1375 300 
Q 1425 350 1425 450 
L 1425 4025 
Q 1425 4125 1375 4175 
Q 1325 4225 1200 4225 
L 650 4225 
L 650 4375 
L 925 4375 
z
" transform="scale(0.015625)"/>
      <path id="SimSun-48" d="M 2400 1650 
Q 2425 2200 2212 2487 
Q 2000 2775 1650 2775 
Q 1275 2775 1037 2475 
Q 800 2175 800 1650 
L 2400 1650 
z
M 800 1500 
Q 800 825 1062 537 
Q 1325 250 1750 250 
Q 2075 250 2300 437 
Q 2525 625 2625 900 
L 2750 850 
Q 2675 575 2412 312 
Q 2150 50 1700 50 
Q 1125 50 762 425 
Q 400 800 400 1500 
Q 400 2125 762 2537 
Q 1125 2950 1650 2950 
Q 2125 2950 2475 2625 
Q 2825 2300 2825 1500 
L 800 1500 
z
" transform="scale(0.015625)"/>
     </defs>
     <use xlink:href="#SimSun-36"/>
     <use xlink:href="#SimSun-44" transform="translate(50 0)"/>
     <use xlink:href="#SimSun-50" transform="translate(100 0)"/>
     <use xlink:href="#SimSun-53" transform="translate(150 0)"/>
     <use xlink:href="#SimSun-4f" transform="translate(200 0)"/>
     <use xlink:href="#SimSun-48" transform="translate(250 0)"/>
    </g>
   </g>
   <g id="text_2">
    <!-- 传感器 -->
    <g transform="translate(120.338091 61.534547) scale(0.08 -0.08)">
     <defs>
      <path id="SimSun-550" d="M 3700 2500 
Q 3600 2075 3500 1625 
L 4925 1625 
L 5175 1900 
L 5650 1450 
Q 5375 1450 5025 1100 
Q 4675 750 4250 275 
Q 4825 50 4962 -112 
Q 5100 -275 5100 -400 
Q 5100 -450 5062 -562 
Q 5025 -675 4950 -675 
Q 4875 -675 4775 -550 
Q 4550 -325 4075 -12 
Q 3600 300 2975 600 
L 3000 700 
Q 3800 450 4125 325 
L 4925 1475 
L 3500 1475 
L 3300 1250 
L 2950 1575 
L 3150 1725 
Q 3250 2025 3350 2500 
L 2825 2500 
Q 2500 2500 2225 2425 
L 2000 2650 
L 3375 2650 
Q 3475 3150 3575 3650 
L 3100 3650 
Q 2775 3650 2500 3575 
L 2275 3800 
L 3600 3800 
Q 3750 4525 3800 5200 
L 4375 4925 
L 4150 4750 
Q 4050 4300 3950 3800 
L 5075 3800 
L 5350 4075 
L 5775 3650 
L 3925 3650 
Q 3825 3200 3725 2650 
L 5325 2650 
L 5625 2950 
L 6075 2500 
L 3700 2500 
z
M 1775 3175 
L 1775 700 
Q 1775 400 1800 -475 
L 1375 -625 
Q 1400 250 1400 650 
L 1400 3125 
Q 775 2150 275 1675 
L 200 1750 
Q 625 2275 1100 3175 
Q 1575 4075 1875 5200 
L 2425 4850 
Q 2225 4750 2100 4475 
Q 1950 4175 1650 3550 
L 2000 3350 
L 1775 3175 
z
" transform="scale(0.015625)"/>
      <path id="SimSun-174f" d="M 1525 3600 
L 3075 3600 
L 3325 3850 
L 3725 3450 
L 2225 3450 
Q 1950 3450 1725 3400 
L 1525 3600 
z
M 3475 2675 
Q 3475 2050 3500 1775 
L 3150 1625 
L 3150 1875 
L 2175 1875 
L 2175 1650 
L 1825 1500 
Q 1850 1925 1850 2325 
Q 1850 2725 1825 3125 
L 2200 2925 
L 3125 2925 
L 3300 3125 
L 3650 2825 
L 3475 2675 
z
M 2175 2775 
L 2175 2025 
L 3150 2025 
L 3150 2775 
L 2175 2775 
z
M 4525 5225 
Q 4925 5000 5050 4900 
Q 5175 4800 5175 4700 
Q 5175 4650 5137 4562 
Q 5100 4475 5000 4425 
Q 4900 4375 4825 4625 
Q 4725 4850 4475 5150 
L 4525 5225 
z
M 5625 1550 
L 5775 2450 
L 5875 2450 
Q 5850 2200 5875 1800 
Q 5900 1400 6050 1225 
Q 6100 1150 6100 1125 
Q 6100 1050 5837 1087 
Q 5575 1125 5150 1375 
Q 4725 1625 4375 2075 
Q 3875 1625 3225 1250 
L 3150 1300 
Q 3800 1825 4200 2300 
Q 4050 2575 3925 3087 
Q 3800 3600 3775 4200 
L 1400 4200 
Q 1400 3050 1237 2375 
Q 1075 1700 350 1000 
L 275 1050 
Q 825 1800 925 2412 
Q 1025 3025 1037 3450 
Q 1050 3875 1025 4600 
L 1400 4350 
L 3750 4350 
Q 3725 4900 3700 5275 
L 4225 5050 
L 4050 4900 
Q 4050 4725 4075 4350 
L 5275 4350 
L 5600 4675 
L 6075 4200 
L 4100 4200 
Q 4150 3275 4450 2600 
Q 4775 3075 4912 3325 
Q 5050 3575 5175 3875 
L 5675 3525 
L 5450 3450 
Q 5000 2750 4600 2325 
Q 5025 1775 5625 1550 
z
M 1150 1025 
L 1250 1025 
Q 1225 250 1100 50 
Q 975 -150 800 -187 
Q 625 -225 562 -137 
Q 500 -50 500 0 
Q 500 100 700 225 
Q 950 400 1150 1025 
z
M 2750 1275 
L 2800 1350 
Q 3350 1125 3512 987 
Q 3675 850 3675 750 
Q 3675 675 3600 537 
Q 3525 400 3475 400 
Q 3400 400 3325 575 
Q 3175 850 2750 1275 
z
M 4750 1100 
L 4825 1175 
Q 5550 725 5612 600 
Q 5675 475 5675 375 
Q 5675 225 5587 125 
Q 5500 25 5450 25 
Q 5350 25 5275 275 
Q 5150 650 4750 1100 
z
M 1850 -25 
Q 1850 775 1825 1175 
L 2400 900 
L 2175 725 
L 2175 150 
Q 2125 -225 2575 -175 
L 3925 -175 
Q 4200 -200 4262 37 
Q 4325 275 4350 700 
L 4450 700 
Q 4475 325 4525 150 
Q 4575 -25 4750 -100 
Q 4525 -500 3925 -450 
L 2425 -450 
Q 1850 -500 1850 -25 
z
" transform="scale(0.015625)"/>
      <path id="SimSun-c98" d="M 1475 4625 
L 1475 3650 
L 2475 3650 
L 2475 4625 
L 1475 4625 
z
M 1125 3075 
Q 1150 3575 1150 4062 
Q 1150 4550 1125 5000 
L 1475 4775 
L 2450 4775 
L 2625 5000 
L 3025 4675 
L 2800 4525 
Q 2800 3625 2825 3350 
L 2475 3200 
L 2475 3500 
L 1475 3500 
L 1475 3250 
L 1125 3075 
z
M 5250 1200 
Q 5250 150 5275 -225 
L 4900 -375 
L 4900 25 
L 3775 25 
L 3775 -350 
L 3425 -475 
Q 3450 50 3450 562 
Q 3450 1075 3425 1550 
L 3775 1375 
L 4825 1375 
L 4875 1425 
Q 4025 1900 3600 2525 
L 2850 2525 
Q 2200 1750 1425 1375 
L 2475 1375 
L 2650 1600 
L 3025 1300 
L 2850 1150 
Q 2850 100 2875 -225 
L 2525 -350 
L 2525 25 
L 1550 25 
L 1550 -300 
L 1200 -425 
Q 1225 0 1225 475 
Q 1225 950 1225 1275 
Q 725 1100 275 1000 
L 250 1075 
Q 950 1325 1475 1662 
Q 2000 2000 2450 2525 
L 1250 2525 
Q 925 2525 650 2450 
L 425 2675 
L 2525 2675 
Q 2750 3025 2925 3400 
L 3400 3075 
Q 3150 2975 2925 2675 
L 4500 2675 
Q 4375 3025 4000 3275 
L 4050 3350 
Q 4525 3225 4650 3125 
Q 4775 3025 4775 2950 
Q 4775 2825 4650 2675 
L 5150 2675 
L 5500 3025 
L 6000 2525 
L 3750 2525 
Q 4175 2125 4737 1850 
Q 5300 1575 6125 1550 
L 6125 1450 
Q 5725 1400 5650 1100 
L 5275 1225 
L 5250 1200 
z
M 1550 1225 
L 1550 175 
L 2525 175 
L 2525 1225 
L 1550 1225 
z
M 3775 1225 
L 3775 175 
L 4900 175 
L 4900 1225 
L 3775 1225 
z
M 3925 4625 
L 3925 3650 
L 4900 3650 
L 4900 4625 
L 3925 4625 
z
M 3575 3200 
Q 3600 3650 3600 4112 
Q 3600 4575 3575 5000 
L 3925 4775 
L 4875 4775 
L 5050 5000 
L 5425 4700 
L 5225 4525 
Q 5225 3700 5250 3375 
L 4900 3250 
L 4900 3500 
L 3925 3500 
L 3925 3325 
L 3575 3200 
z
" transform="scale(0.015625)"/>
     </defs>
     <use xlink:href="#SimSun-550"/>
     <use xlink:href="#SimSun-174f" transform="translate(100 0)"/>
     <use xlink:href="#SimSun-c98" transform="translate(200 0)"/>
    </g>
    <!-- Sensor -->
    <g transform="translate(120.338091 70.659547) scale(0.08 -0.08)">
     <defs>
      <path id="SimSun-51" d="M 200 100 
L 200 250 
L 325 250 
Q 450 250 500 300 
Q 550 350 550 450 
L 550 2600 
Q 550 2675 525 2712 
Q 500 2750 425 2750 
L 225 2750 
L 225 2900 
L 400 2900 
Q 525 2900 637 2925 
Q 750 2950 850 3025 
L 900 3025 
L 900 2450 
Q 1125 2700 1350 2825 
Q 1575 2950 1825 2950 
Q 2250 2950 2450 2725 
Q 2650 2500 2650 2050 
L 2650 450 
Q 2650 350 2712 300 
Q 2775 250 2875 250 
L 3000 250 
L 3000 100 
L 1950 100 
L 1950 250 
L 2075 250 
Q 2200 250 2250 300 
Q 2300 350 2300 450 
L 2300 2125 
Q 2300 2425 2175 2587 
Q 2050 2750 1800 2750 
Q 1575 2750 1337 2600 
Q 1100 2450 900 2175 
L 900 450 
Q 900 350 962 300 
Q 1025 250 1125 250 
L 1250 250 
L 1250 100 
L 200 100 
z
" transform="scale(0.015625)"/>
      <path id="SimSun-56" d="M 625 2175 
Q 625 2550 912 2750 
Q 1200 2950 1600 2950 
Q 1825 2950 2025 2900 
Q 2225 2825 2300 2825 
Q 2375 2825 2425 2850 
Q 2475 2875 2550 2950 
L 2650 2125 
L 2500 2100 
Q 2400 2425 2162 2612 
Q 1925 2800 1625 2800 
Q 1300 2800 1112 2675 
Q 925 2550 925 2325 
Q 925 2125 1012 2012 
Q 1100 1900 1325 1850 
Q 1500 1775 1775 1700 
Q 2025 1600 2250 1500 
Q 2450 1400 2587 1237 
Q 2725 1075 2725 875 
Q 2725 500 2462 287 
Q 2200 75 1700 75 
Q 1375 75 1225 150 
Q 1050 200 950 200 
Q 875 200 787 162 
Q 700 125 600 75 
L 525 1000 
L 675 1025 
Q 750 625 1000 425 
Q 1250 225 1700 225 
Q 2050 225 2237 350 
Q 2425 475 2425 725 
Q 2425 900 2325 1012 
Q 2225 1125 2125 1175 
Q 1875 1275 1575 1400 
Q 1275 1500 1050 1600 
Q 825 1700 725 1850 
Q 625 2000 625 2175 
z
" transform="scale(0.015625)"/>
      <path id="SimSun-52" d="M 2900 1500 
Q 2900 875 2525 462 
Q 2150 50 1600 50 
Q 1025 50 662 475 
Q 300 900 300 1500 
Q 300 2050 662 2500 
Q 1025 2950 1600 2950 
Q 2200 2950 2550 2500 
Q 2900 2050 2900 1500 
z
M 700 1475 
Q 700 825 962 512 
Q 1225 200 1600 200 
Q 2025 200 2262 537 
Q 2500 875 2500 1475 
Q 2500 2125 2237 2462 
Q 1975 2800 1600 2800 
Q 1250 2800 975 2462 
Q 700 2125 700 1475 
z
" transform="scale(0.015625)"/>
      <path id="SimSun-55" d="M 1275 2125 
Q 1525 2525 1812 2737 
Q 2100 2950 2400 2950 
Q 2650 2950 2787 2837 
Q 2925 2725 2925 2575 
Q 2925 2450 2862 2375 
Q 2800 2300 2675 2300 
Q 2550 2300 2487 2375 
Q 2425 2450 2450 2575 
Q 2450 2650 2425 2700 
Q 2400 2750 2275 2750 
Q 2075 2750 1787 2500 
Q 1500 2250 1275 1800 
L 1275 450 
Q 1275 350 1337 300 
Q 1400 250 1500 250 
L 2050 250 
L 2050 100 
L 200 100 
L 200 250 
L 700 250 
Q 825 250 875 300 
Q 925 350 925 450 
L 925 2525 
Q 925 2625 875 2687 
Q 825 2750 700 2750 
L 225 2750 
L 225 2900 
L 425 2900 
Q 600 2900 837 2937 
Q 1075 2975 1200 3025 
L 1275 3025 
L 1275 2125 
z
" transform="scale(0.015625)"/>
     </defs>
     <use xlink:href="#SimSun-36"/>
     <use xlink:href="#SimSun-48" transform="translate(50 0)"/>
     <use xlink:href="#SimSun-51" transform="translate(100 0)"/>
     <use xlink:href="#SimSun-56" transform="translate(150 0)"/>
     <use xlink:href="#SimSun-52" transform="translate(200 0)"/>
     <use xlink:href="#SimSun-55" transform="translate(250 0)"/>
    </g>
   </g>
   <g id="text_3">
    <!-- DAQ -->
    <g transform="translate(201.250689 66.097047) scale(0.08 -0.08)">
     <defs>
      <path id="SimSun-27" d="M 2500 2275 
Q 2500 3350 2175 3787 
Q 1850 4225 1275 4225 
Q 1100 4225 1012 4175 
Q 925 4125 925 4025 
L 925 450 
Q 925 350 1000 300 
Q 1075 250 1200 250 
Q 1750 250 2125 662 
Q 2500 1075 2500 2275 
z
M 525 4025 
Q 525 4125 475 4175 
Q 425 4225 300 4225 
L 150 4225 
L 150 4375 
L 1275 4375 
Q 2050 4375 2512 3875 
Q 2975 3375 2975 2325 
Q 2975 1175 2525 637 
Q 2075 100 1200 100 
L 125 100 
L 125 250 
L 300 250 
Q 425 250 475 300 
Q 525 350 525 450 
L 525 4025 
z
" transform="scale(0.015625)"/>
      <path id="SimSun-24" d="M 2025 1700 
L 900 1700 
L 675 750 
Q 650 625 650 550 
Q 650 450 687 350 
Q 725 250 900 250 
L 975 250 
L 975 100 
L 50 100 
L 50 250 
L 125 250 
Q 225 250 300 312 
Q 375 375 400 525 
L 1375 4350 
L 1750 4475 
L 2700 525 
Q 2750 375 2825 312 
Q 2900 250 3000 250 
L 3075 250 
L 3075 100 
L 2000 100 
L 2000 250 
L 2100 250 
Q 2250 250 2275 312 
Q 2300 375 2300 425 
Q 2300 525 2275 600 
L 2025 1700 
z
M 325 250 
L 325 250 
z
M 575 250 
L 575 250 
z
M 2350 250 
L 2350 250 
z
M 2775 250 
L 2775 250 
z
M 1500 3925 
L 1475 3925 
L 950 1850 
L 2000 1850 
L 1500 3925 
z
" transform="scale(0.015625)"/>
      <path id="SimSun-34" d="M 1850 275 
Q 1775 650 1675 887 
Q 1575 1125 1375 1125 
Q 1275 1125 1137 1025 
Q 1000 925 1000 700 
Q 1000 525 1175 387 
Q 1350 250 1600 250 
Q 1700 250 1762 250 
Q 1825 250 1850 275 
z
M 1425 1375 
Q 1725 1375 1887 1162 
Q 2050 950 2175 525 
Q 2350 650 2437 1087 
Q 2525 1525 2525 2250 
Q 2525 3225 2312 3737 
Q 2100 4250 1600 4250 
Q 1175 4250 925 3750 
Q 675 3250 675 2250 
Q 675 1750 712 1412 
Q 750 1075 825 925 
Q 925 1150 1050 1262 
Q 1175 1375 1425 1375 
z
M 1600 75 
Q 1050 75 625 575 
Q 200 1075 200 2250 
Q 200 3250 575 3837 
Q 950 4425 1600 4425 
Q 2200 4425 2600 3862 
Q 3000 3300 3000 2250 
Q 3000 1375 2787 925 
Q 2575 475 2275 250 
Q 2325 75 2400 0 
Q 2475 -75 2550 -75 
Q 2650 -75 2725 -25 
Q 2800 25 2825 150 
L 2925 100 
Q 2850 -200 2725 -337 
Q 2600 -475 2425 -475 
Q 2300 -475 2187 -400 
Q 2075 -325 1900 100 
Q 1875 75 1800 75 
Q 1725 75 1600 75 
z
" transform="scale(0.015625)"/>
     </defs>
     <use xlink:href="#SimSun-27"/>
     <use xlink:href="#SimSun-24" transform="translate(50 0)"/>
     <use xlink:href="#SimSun-34" transform="translate(100 0)"/>
    </g>
   </g>
   <g id="text_4">
    <!-- 计算机 -->
    <g transform="translate(270.163287 61.534547) scale(0.08 -0.08)">
     <defs>
      <path id="SimSun-41d1" d="M 975 4975 
L 1000 5050 
Q 1550 4800 1762 4625 
Q 1975 4450 1975 4275 
Q 1975 4100 1887 4025 
Q 1800 3950 1775 3950 
Q 1650 3950 1550 4250 
Q 1375 4625 975 4975 
z
M 1650 375 
L 2625 1225 
L 2675 1150 
Q 1800 25 1600 -350 
L 1225 75 
Q 1325 225 1325 550 
L 1325 2800 
L 675 2800 
L 900 2800 
Q 750 2800 475 2725 
L 250 2950 
L 1275 2950 
L 1550 3225 
L 1900 2875 
L 1650 2700 
L 1650 375 
z
M 3850 2925 
Q 3850 4600 3825 5100 
L 4425 4825 
L 4225 4625 
L 4225 2925 
L 5350 2925 
L 5675 3250 
L 6125 2775 
L 4225 2775 
L 4225 500 
Q 4225 0 4250 -425 
L 3825 -600 
Q 3850 175 3850 575 
L 3850 2775 
L 2575 2775 
L 2950 2775 
Q 2650 2775 2375 2700 
L 2150 2925 
L 3850 2925 
z
" transform="scale(0.015625)"/>
      <path id="SimSun-31c7" d="M 2675 1525 
Q 2650 1125 2600 750 
L 3825 750 
L 3825 1525 
L 2675 1525 
z
M 4900 2075 
Q 4900 1875 4925 1425 
L 4550 1275 
L 4550 1525 
L 4175 1525 
L 4175 775 
L 5300 775 
L 5650 1100 
L 6100 625 
L 4175 625 
Q 4175 -225 4200 -475 
L 3800 -650 
Q 3825 100 3825 600 
L 2575 600 
Q 2400 50 1837 -250 
Q 1275 -550 625 -650 
L 600 -575 
Q 1325 -325 1687 -62 
Q 2050 200 2200 600 
L 1125 600 
Q 800 600 525 525 
L 300 750 
L 2225 750 
Q 2275 1100 2300 1525 
L 1850 1525 
L 1850 1325 
L 1500 1200 
Q 1525 1975 1512 2787 
Q 1500 3600 1475 3775 
L 1850 3575 
L 4525 3575 
L 4675 3800 
L 5075 3525 
L 4900 3375 
L 4900 2075 
z
M 1850 3425 
L 1850 2975 
L 4550 2975 
L 4550 3425 
L 1850 3425 
z
M 1850 2825 
L 1850 2350 
L 4550 2350 
L 4550 2825 
L 1850 2825 
z
M 1850 2200 
L 1850 1675 
L 4550 1675 
L 4550 2200 
L 1850 2200 
z
M 1575 5275 
L 2075 5000 
Q 1925 4925 1837 4825 
Q 1750 4725 1600 4500 
L 2700 4500 
L 3000 4800 
L 3400 4350 
L 2125 4350 
Q 2650 4075 2587 3887 
Q 2525 3700 2462 3662 
Q 2400 3625 2350 3625 
Q 2275 3625 2250 3712 
Q 2225 3800 2200 3975 
Q 2150 4125 1950 4350 
L 1525 4350 
Q 1275 3975 1050 3725 
Q 825 3475 475 3225 
L 425 3300 
Q 650 3525 950 3950 
Q 1250 4375 1575 5275 
z
M 4000 5250 
L 4450 4950 
Q 4325 4925 4200 4775 
Q 4075 4625 3975 4475 
L 5325 4475 
L 5625 4750 
L 6000 4325 
L 4675 4325 
Q 5300 4125 5300 3937 
Q 5300 3750 5212 3675 
Q 5125 3600 5100 3600 
Q 5050 3600 4987 3712 
Q 4925 3825 4850 3962 
Q 4775 4100 4500 4325 
L 3900 4325 
Q 3725 4150 3575 3975 
Q 3400 3775 3225 3625 
L 3150 3675 
Q 3450 4050 3712 4562 
Q 3975 5075 4000 5250 
z
" transform="scale(0.015625)"/>
      <path id="SimSun-1d6a" d="M 3400 4425 
L 3400 2250 
Q 3400 400 2000 -575 
L 1925 -500 
Q 3050 525 3050 2250 
L 3050 3450 
Q 3050 4125 3025 4825 
L 3400 4575 
L 4550 4575 
L 4775 4825 
L 5175 4475 
L 4925 4325 
L 4925 250 
Q 4925 0 5175 0 
L 5475 0 
Q 5600 0 5650 200 
Q 5700 400 5725 1100 
L 5850 1100 
Q 5850 550 5900 362 
Q 5950 175 6150 75 
Q 6000 -225 5837 -262 
Q 5675 -300 5525 -300 
L 5000 -300 
Q 4575 -300 4575 100 
L 4575 4425 
L 3400 4425 
z
M 1725 2700 
Q 1725 50 1750 -500 
L 1350 -675 
Q 1375 425 1375 2375 
Q 1000 1325 275 525 
L 225 600 
Q 975 1775 1350 3500 
L 750 3500 
L 525 3450 
L 325 3650 
L 1375 3650 
Q 1375 4525 1350 5275 
L 1900 5050 
L 1725 4875 
L 1725 3650 
L 2075 3650 
L 2350 3925 
L 2775 3500 
L 1725 3500 
L 1725 2825 
Q 2325 2600 2512 2475 
Q 2700 2350 2700 2150 
Q 2700 2025 2662 1900 
Q 2625 1775 2600 1775 
Q 2525 1775 2375 2025 
Q 2150 2375 1725 2700 
z
" transform="scale(0.015625)"/>
     </defs>
     <use xlink:href="#SimSun-41d1"/>
     <use xlink:href="#SimSun-31c7" transform="translate(100 0)"/>
     <use xlink:href="#SimSun-1d6a" transform="translate(200 0)"/>
    </g>
    <!-- Computer -->
    <g transform="translate(266.163287 70.659547) scale(0.08 -0.08)">
     <defs>
      <path id="SimSun-26" d="M 1725 50 
Q 1025 50 612 575 
Q 200 1100 200 2225 
Q 200 3175 637 3800 
Q 1075 4425 1825 4425 
Q 2000 4425 2175 4375 
Q 2350 4300 2475 4300 
Q 2575 4300 2637 4325 
Q 2700 4350 2750 4425 
L 2975 3325 
L 2825 3275 
Q 2675 3750 2425 4000 
Q 2175 4250 1775 4250 
Q 1250 4250 962 3675 
Q 675 3100 675 2250 
Q 675 1325 925 800 
Q 1175 275 1750 275 
Q 2150 275 2437 562 
Q 2725 850 2825 1325 
L 2975 1250 
Q 2850 725 2512 387 
Q 2175 50 1725 50 
z
" transform="scale(0.015625)"/>
      <path id="SimSun-58" d="M 1450 325 
Q 1750 325 1962 475 
Q 2175 625 2275 950 
L 2275 2525 
Q 2275 2625 2225 2687 
Q 2175 2750 2050 2750 
L 1900 2750 
L 1900 2900 
L 2050 2900 
Q 2200 2900 2325 2925 
Q 2450 2950 2575 3050 
L 2625 3050 
L 2625 600 
Q 2625 500 2687 450 
Q 2750 400 2850 400 
L 3000 400 
L 3000 250 
L 2850 250 
Q 2725 250 2600 212 
Q 2475 175 2325 100 
L 2275 100 
L 2275 625 
Q 2150 350 1900 212 
Q 1650 75 1325 75 
Q 925 75 725 300 
Q 525 525 525 1025 
L 525 2525 
Q 525 2625 475 2687 
Q 425 2750 300 2750 
L 150 2750 
L 150 2900 
L 300 2900 
Q 450 2900 575 2925 
Q 700 2950 825 3050 
L 875 3050 
L 875 975 
Q 875 625 1025 475 
Q 1175 325 1450 325 
z
" transform="scale(0.015625)"/>
      <path id="SimSun-57" d="M 1500 900 
Q 1500 550 1625 425 
Q 1750 300 2000 300 
Q 2250 300 2400 462 
Q 2550 625 2600 925 
L 2725 875 
Q 2675 525 2462 300 
Q 2250 75 1900 75 
Q 1525 75 1337 300 
Q 1150 525 1150 1000 
L 1150 2750 
L 400 2750 
L 400 2900 
L 600 2900 
Q 900 2900 1087 3087 
Q 1275 3275 1325 3675 
L 1350 3875 
L 1500 3875 
L 1500 2900 
L 2500 2900 
L 2500 2750 
L 1500 2750 
L 1500 900 
z
" transform="scale(0.015625)"/>
     </defs>
     <use xlink:href="#SimSun-26"/>
     <use xlink:href="#SimSun-52" transform="translate(50 0)"/>
     <use xlink:href="#SimSun-50" transform="translate(100 0)"/>
     <use xlink:href="#SimSun-53" transform="translate(150 0)"/>
     <use xlink:href="#SimSun-58" transform="translate(200 0)"/>
     <use xlink:href="#SimSun-57" transform="translate(250 0)"/>
     <use xlink:href="#SimSun-48" transform="translate(300 0)"/>
     <use xlink:href="#SimSun-55" transform="translate(350 0)"/>
    </g>
   </g>
   <g id="text_5">
    <!-- 物理流 / physical flow -->
    <g transform="translate(136.594488 129.429921) scale(0.08 -0.08)">
     <defs>
      <path id="SimSun-2899" d="M 3425 5225 
L 3975 4925 
L 3775 4800 
Q 3600 4400 3400 3950 
L 5500 3950 
L 5675 4200 
L 6075 3875 
L 5900 3725 
Q 5775 650 5575 137 
Q 5375 -375 4650 -525 
Q 4700 -150 3975 100 
L 4000 200 
Q 4650 50 4875 50 
Q 5100 50 5250 387 
Q 5400 725 5550 3800 
L 5075 3800 
Q 4825 2050 4150 1112 
Q 3475 175 2450 -375 
L 2400 -300 
Q 3375 400 3925 1325 
Q 4475 2250 4700 3800 
L 4175 3800 
Q 3750 2075 2400 975 
L 2350 1050 
Q 3525 2375 3800 3800 
L 3350 3800 
Q 2875 2975 2475 2550 
L 2400 2600 
Q 2850 3325 3112 4062 
Q 3375 4800 3425 5225 
z
M 1925 2050 
L 2700 2375 
L 2725 2275 
L 1925 1825 
Q 1925 200 1950 -425 
L 1575 -600 
Q 1600 -75 1600 1675 
Q 725 1275 625 1050 
L 350 1475 
Q 775 1575 1600 1925 
L 1600 3425 
L 950 3425 
Q 675 2825 325 2325 
L 250 2375 
Q 525 2950 687 3625 
Q 850 4300 850 4650 
L 1425 4375 
L 1200 4225 
Q 1100 3950 975 3575 
L 1600 3575 
Q 1600 4775 1575 5200 
L 2150 4950 
L 1925 4775 
L 1925 3575 
L 2100 3575 
L 2375 3875 
L 2775 3425 
L 1925 3425 
L 1925 2050 
z
" transform="scale(0.015625)"/>
      <path id="SimSun-2a36" d="M 325 575 
Q 1075 775 1350 875 
L 1350 2550 
L 1225 2550 
Q 900 2550 625 2475 
L 400 2700 
L 1350 2700 
L 1350 4225 
L 1175 4225 
Q 850 4225 575 4150 
L 350 4375 
L 1925 4375 
L 2225 4675 
L 2650 4225 
L 1675 4225 
L 1675 2700 
L 1925 2700 
L 2225 3000 
L 2650 2550 
L 1675 2550 
L 1675 975 
L 2700 1325 
L 2725 1225 
Q 1775 800 825 325 
L 625 125 
L 325 575 
z
M 2800 1800 
Q 2825 2600 2825 3350 
Q 2825 4100 2800 4900 
L 3125 4675 
L 5200 4675 
L 5375 4900 
L 5750 4600 
L 5550 4450 
L 5550 3275 
Q 5550 2475 5575 2025 
L 5250 1875 
L 5250 2175 
L 4350 2175 
L 4350 1100 
L 5075 1100 
L 5375 1400 
L 5800 950 
L 4350 950 
L 4350 -75 
L 5400 -75 
L 5725 250 
L 6175 -225 
L 2775 -225 
Q 2450 -225 2175 -300 
L 1950 -75 
L 4050 -75 
L 4050 950 
L 3500 950 
Q 3175 950 2900 875 
L 2675 1100 
L 4050 1100 
L 4050 2175 
L 3125 2175 
L 3125 1925 
L 2800 1800 
z
M 3125 4525 
L 3125 3525 
L 4050 3525 
L 4050 4525 
L 3125 4525 
z
M 4350 4525 
L 4350 3525 
L 5250 3525 
L 5250 4525 
L 4350 4525 
z
M 3125 3375 
L 3125 2325 
L 4050 2325 
L 4050 3375 
L 3125 3375 
z
M 4350 3375 
L 4350 2325 
L 5250 2325 
L 5250 3375 
L 4350 3375 
z
" transform="scale(0.015625)"/>
      <path id="SimSun-2371" d="M 3500 -475 
Q 3525 -100 3525 250 
L 3525 1850 
Q 3525 2150 3500 2425 
L 4075 2175 
L 3850 2000 
L 3850 375 
Q 3850 25 3875 -325 
L 3500 -475 
z
M 2525 2525 
L 3075 2250 
L 2875 2100 
Q 2850 1025 2612 487 
Q 2375 -50 1450 -525 
L 1400 -450 
Q 2100 25 2325 575 
Q 2550 1125 2525 2525 
z
M 4575 150 
L 4575 1800 
Q 4575 2200 4550 2475 
L 5100 2225 
L 4900 2050 
L 4900 250 
Q 4875 -25 5125 -25 
L 5475 -25 
Q 5675 -25 5700 225 
Q 5725 475 5750 1000 
L 5850 1000 
Q 5850 500 5900 300 
Q 5950 100 6125 50 
Q 5975 -300 5575 -300 
L 4950 -300 
Q 4575 -300 4575 150 
z
M 4925 3025 
Q 4700 3425 4475 3700 
L 4525 3750 
Q 5100 3375 5275 3175 
Q 5450 2975 5450 2850 
Q 5450 2725 5362 2600 
Q 5275 2475 5225 2475 
Q 5175 2475 5150 2550 
Q 5075 2725 4975 2925 
Q 4000 2850 3437 2775 
Q 2875 2700 2650 2550 
L 2400 3000 
Q 2625 3025 2950 3375 
Q 3275 3725 3575 4250 
L 2975 4250 
Q 2650 4250 2375 4175 
L 2150 4400 
L 3725 4400 
Q 3675 4800 3275 5175 
L 3300 5250 
Q 3925 5000 3987 4887 
Q 4050 4775 4050 4675 
Q 4050 4550 3925 4400 
L 5125 4400 
L 5475 4725 
L 5900 4250 
L 3700 4250 
L 4075 3975 
L 3775 3925 
Q 3125 3250 2825 3000 
Q 3350 3000 4925 3025 
z
M 2275 3850 
Q 1425 1425 1362 1112 
Q 1300 800 1287 337 
Q 1275 -125 1275 -300 
Q 1275 -375 1175 -375 
Q 1100 -375 937 -312 
Q 775 -250 775 -75 
Q 775 75 850 300 
Q 925 550 925 700 
Q 925 850 812 950 
Q 700 1050 325 1150 
L 325 1250 
Q 775 1225 875 1237 
Q 975 1250 1125 1450 
Q 1275 1650 2175 3900 
L 2275 3850 
z
M 325 3500 
Q 1175 3100 1175 2862 
Q 1175 2625 1087 2525 
Q 1000 2425 975 2425 
Q 900 2425 825 2650 
Q 700 2950 275 3450 
L 325 3500 
z
M 925 4925 
Q 1625 4575 1700 4425 
Q 1775 4275 1775 4225 
Q 1775 4100 1687 3975 
Q 1600 3850 1550 3850 
Q 1450 3850 1375 4075 
Q 1250 4425 875 4850 
L 925 4925 
z
" transform="scale(0.015625)"/>
      <path id="SimSun-3" d="M 0 0 
Q 0 0 0 0 
z
" transform="scale(0.015625)"/>
      <path id="SimSun-12" d="M 400 -475 
L 225 -375 
L 2775 4975 
L 2950 4875 
L 400 -475 
z
" transform="scale(0.015625)"/>
      <path id="SimSun-4b" d="M 200 100 
L 200 250 
L 325 250 
Q 450 250 500 300 
Q 550 350 550 450 
L 550 4025 
Q 550 4125 500 4175 
Q 450 4225 325 4225 
L 175 4225 
L 175 4375 
L 450 4375 
Q 550 4375 650 4425 
Q 750 4475 850 4575 
L 900 4575 
L 900 2450 
Q 1125 2725 1362 2837 
Q 1600 2950 1875 2950 
Q 2250 2950 2450 2737 
Q 2650 2525 2650 2075 
L 2650 450 
Q 2650 350 2712 300 
Q 2775 250 2875 250 
L 3000 250 
L 3000 100 
L 1950 100 
L 1950 250 
L 2075 250 
Q 2200 250 2250 300 
Q 2300 350 2300 450 
L 2300 2025 
Q 2300 2450 2162 2587 
Q 2025 2725 1800 2725 
Q 1600 2725 1362 2600 
Q 1125 2475 900 2175 
L 900 450 
Q 900 350 962 300 
Q 1025 250 1125 250 
L 1250 250 
L 1250 100 
L 200 100 
z
" transform="scale(0.015625)"/>
      <path id="SimSun-5c" d="M 1650 800 
L 1700 800 
L 2250 2475 
Q 2300 2600 2237 2675 
Q 2175 2750 2075 2750 
L 1925 2750 
L 1925 2900 
L 2975 2900 
L 2975 2750 
L 2825 2750 
Q 2725 2750 2625 2675 
Q 2525 2600 2475 2475 
L 1625 0 
Q 1500 -375 1312 -587 
Q 1125 -800 825 -800 
Q 650 -800 550 -737 
Q 450 -675 450 -550 
Q 450 -475 512 -400 
Q 575 -325 700 -325 
Q 800 -325 900 -425 
Q 1000 -500 1050 -500 
Q 1125 -500 1175 -475 
Q 1225 -450 1250 -375 
Q 1325 -250 1400 -62 
Q 1475 125 1525 325 
L 675 2525 
Q 650 2625 562 2687 
Q 475 2750 375 2750 
L 275 2750 
L 275 2900 
L 1325 2900 
L 1325 2750 
L 1225 2750 
Q 1125 2750 1075 2687 
Q 1025 2625 1050 2500 
L 1650 800 
z
M 950 2750 
L 950 2750 
z
M 600 2750 
L 600 2750 
z
M 2575 2750 
L 2575 2750 
z
M 2325 2750 
L 2325 2750 
z
" transform="scale(0.015625)"/>
      <path id="SimSun-4c" d="M 1425 2525 
Q 1425 2625 1375 2687 
Q 1325 2750 1200 2750 
L 675 2750 
L 675 2900 
L 925 2900 
Q 1150 2900 1350 2937 
Q 1550 2975 1725 3075 
L 1775 3075 
L 1775 450 
Q 1775 350 1837 300 
Q 1900 250 2000 250 
L 2525 250 
L 2525 100 
L 675 100 
L 675 250 
L 1200 250 
Q 1325 250 1375 300 
Q 1425 350 1425 450 
L 1425 2525 
z
M 1725 3025 
L 1725 3025 
z
M 1625 4425 
Q 1750 4425 1850 4337 
Q 1950 4250 1950 4125 
Q 1950 4000 1850 3900 
Q 1750 3800 1625 3800 
Q 1500 3800 1400 3900 
Q 1300 4000 1300 4125 
Q 1300 4250 1400 4337 
Q 1500 4425 1625 4425 
z
" transform="scale(0.015625)"/>
      <path id="SimSun-46" d="M 2150 2225 
Q 2150 2300 2175 2325 
Q 2175 2350 2200 2425 
Q 2225 2525 2100 2662 
Q 1975 2800 1675 2800 
Q 1300 2800 1037 2437 
Q 775 2075 775 1475 
Q 775 925 1000 587 
Q 1225 250 1750 250 
Q 2100 250 2337 475 
Q 2575 700 2675 1000 
L 2800 950 
Q 2700 575 2425 312 
Q 2150 50 1675 50 
Q 1075 50 725 425 
Q 375 800 375 1500 
Q 375 2125 750 2537 
Q 1125 2950 1725 2950 
Q 2150 2950 2387 2725 
Q 2625 2500 2625 2275 
Q 2625 2125 2562 2062 
Q 2500 2000 2375 2000 
Q 2275 2000 2212 2062 
Q 2150 2125 2150 2225 
z
" transform="scale(0.015625)"/>
      <path id="SimSun-49" d="M 1125 3325 
Q 1125 3850 1450 4112 
Q 1775 4375 2175 4375 
Q 2600 4375 2812 4225 
Q 3025 4075 3025 3875 
Q 3025 3775 2975 3700 
Q 2925 3625 2775 3625 
Q 2675 3625 2612 3675 
Q 2550 3725 2550 3850 
Q 2550 3875 2575 3925 
Q 2575 3975 2575 4000 
Q 2575 4100 2500 4162 
Q 2425 4225 2150 4225 
Q 1850 4225 1662 4037 
Q 1475 3850 1475 3400 
L 1475 2900 
L 2525 2900 
L 2525 2750 
L 1475 2750 
L 1475 450 
Q 1475 350 1537 300 
Q 1600 250 1700 250 
L 2300 250 
L 2300 100 
L 475 100 
L 475 250 
L 900 250 
Q 1025 250 1075 300 
Q 1125 350 1125 450 
L 1125 2750 
L 350 2750 
L 350 2900 
L 1125 2900 
L 1125 3325 
z
" transform="scale(0.015625)"/>
      <path id="SimSun-5a" d="M 2325 2900 
L 3175 2900 
L 3175 2750 
L 3075 2750 
Q 2975 2750 2900 2675 
Q 2825 2600 2775 2425 
L 2175 75 
L 2025 75 
L 1575 1975 
L 1100 75 
L 950 75 
L 375 2375 
Q 350 2550 275 2650 
Q 200 2750 125 2750 
L 25 2750 
L 25 2900 
L 925 2900 
L 925 2750 
L 825 2750 
Q 725 2750 700 2662 
Q 675 2575 700 2425 
L 1075 800 
L 1125 800 
L 1500 2300 
Q 1475 2525 1400 2637 
Q 1325 2750 1225 2750 
L 1150 2750 
L 1150 2900 
L 2000 2900 
L 2000 2750 
L 1925 2750 
Q 1825 2750 1800 2662 
Q 1775 2575 1800 2425 
L 2175 800 
L 2200 800 
L 2625 2550 
Q 2650 2650 2600 2700 
Q 2550 2750 2450 2750 
L 2325 2750 
L 2325 2900 
z
M 1725 2750 
L 1725 2750 
z
M 625 2750 
L 625 2750 
z
M 275 2750 
L 275 2750 
z
M 2875 2750 
L 2875 2750 
z
M 2675 2750 
L 2675 2750 
z
" transform="scale(0.015625)"/>
     </defs>
     <use xlink:href="#SimSun-2899"/>
     <use xlink:href="#SimSun-2a36" transform="translate(100 0)"/>
     <use xlink:href="#SimSun-2371" transform="translate(200 0)"/>
     <use xlink:href="#SimSun-3" transform="translate(300 0)"/>
     <use xlink:href="#SimSun-12" transform="translate(350 0)"/>
     <use xlink:href="#SimSun-3" transform="translate(400 0)"/>
     <use xlink:href="#SimSun-53" transform="translate(450 0)"/>
     <use xlink:href="#SimSun-4b" transform="translate(500 0)"/>
     <use xlink:href="#SimSun-5c" transform="translate(550 0)"/>
     <use xlink:href="#SimSun-56" transform="translate(600 0)"/>
     <use xlink:href="#SimSun-4c" transform="translate(650 0)"/>
     <use xlink:href="#SimSun-46" transform="translate(700 0)"/>
     <use xlink:href="#SimSun-44" transform="translate(750 0)"/>
     <use xlink:href="#SimSun-4f" transform="translate(800 0)"/>
     <use xlink:href="#SimSun-3" transform="translate(850 0)"/>
     <use xlink:href="#SimSun-49" transform="translate(900 0)"/>
     <use xlink:href="#SimSun-4f" transform="translate(950 0)"/>
     <use xlink:href="#SimSun-52" transform="translate(1000 0)"/>
     <use xlink:href="#SimSun-5a" transform="translate(1050 0)"/>
    </g>
   </g>
   <g id="text_6">
    <!-- 试验系统示意 / Experimental setup -->
    <g transform="translate(119.568898 39.030709) scale(0.1 -0.1)">
     <defs>
      <path id="SimSun-4205" d="M 825 4800 
L 900 4850 
Q 1250 4600 1475 4362 
Q 1700 4125 1650 3925 
Q 1600 3725 1500 3650 
L 1375 3575 
Q 1275 3575 1225 3875 
Q 1150 4225 825 4800 
z
M 1600 300 
L 2475 1275 
L 2550 1200 
Q 2125 550 1925 250 
Q 1725 -50 1550 -400 
L 1150 25 
Q 1275 175 1250 425 
L 1250 2600 
L 950 2600 
Q 750 2600 475 2525 
L 250 2750 
L 1225 2750 
L 1375 3000 
L 1825 2700 
L 1600 2525 
L 1600 300 
z
M 5725 75 
L 5925 1100 
L 6025 1100 
Q 5975 525 5975 200 
Q 5975 -125 6075 -450 
Q 6125 -600 6050 -600 
Q 5950 -600 5487 -250 
Q 5025 100 4650 1050 
Q 4275 2000 4200 3525 
L 2725 3525 
Q 2525 3525 2250 3450 
L 2025 3675 
L 4175 3675 
Q 4125 4450 4125 5175 
L 4725 4850 
L 4500 4675 
Q 4500 4100 4525 3675 
L 5375 3675 
L 5700 4025 
L 6150 3525 
L 4550 3525 
Q 4625 1025 5725 75 
z
M 4875 5000 
Q 5300 4825 5512 4675 
Q 5725 4525 5700 4362 
Q 5675 4200 5600 4100 
Q 5525 4000 5500 4000 
Q 5425 4000 5325 4250 
Q 5175 4575 4825 4925 
L 4875 5000 
z
M 3425 625 
L 4375 900 
L 4400 800 
Q 3525 450 2650 25 
L 2475 -175 
L 2175 275 
Q 2775 425 3075 525 
L 3075 2325 
L 2850 2325 
Q 2650 2325 2375 2250 
L 2150 2475 
L 3575 2475 
L 3875 2775 
L 4250 2325 
L 3425 2325 
L 3425 625 
z
" transform="scale(0.015625)"/>
      <path id="SimSun-50bc" d="M 4050 5225 
L 4550 4925 
L 4350 4800 
Q 5050 3225 6125 2975 
L 6125 2900 
Q 5750 2850 5650 2600 
Q 4700 3325 4275 4725 
Q 3575 3225 2525 2475 
L 2475 2550 
Q 3075 3150 3500 3925 
Q 3925 4700 4050 5225 
z
M 3025 2800 
L 4650 2800 
L 4950 3100 
L 5350 2650 
L 3850 2650 
Q 3525 2650 3250 2575 
L 3025 2800 
z
M 2925 2000 
L 3000 2050 
Q 3475 1300 3537 1100 
Q 3600 900 3600 775 
Q 3600 625 3512 475 
Q 3425 325 3312 337 
Q 3200 350 3175 800 
Q 3150 1250 2925 2000 
z
M 3650 2225 
L 3725 2275 
Q 4375 1450 4425 1100 
Q 4475 750 4337 650 
Q 4200 550 4175 550 
Q 4075 550 4050 800 
Q 4025 1150 3900 1562 
Q 3775 1975 3650 2225 
z
M 5175 2300 
L 5700 1950 
Q 5525 1875 5325 1412 
Q 5125 950 4675 -150 
L 5300 -150 
L 5650 200 
L 6100 -300 
L 3375 -300 
Q 3050 -300 2775 -375 
L 2550 -150 
L 4525 -150 
Q 5175 1900 5175 2300 
z
M 400 4675 
L 1950 4675 
L 2150 4925 
L 2525 4600 
L 2300 4450 
L 2050 2275 
L 2225 2275 
L 2375 2475 
L 2750 2175 
L 2550 2025 
Q 2425 500 2300 175 
Q 2175 -150 1975 -287 
Q 1775 -425 1550 -475 
Q 1525 -125 825 100 
L 850 200 
Q 1550 50 1725 62 
Q 1900 75 2012 437 
Q 2125 800 2225 2125 
L 1000 2125 
L 825 1925 
L 500 2225 
L 675 2325 
Q 875 3750 900 4200 
L 1400 3925 
L 1200 3775 
L 1000 2275 
L 1725 2275 
L 1975 4525 
L 1225 4525 
Q 900 4525 625 4450 
L 400 4675 
z
M 225 1075 
Q 725 1125 2000 1375 
L 2025 1275 
Q 600 850 500 650 
L 225 1075 
z
" transform="scale(0.015625)"/>
      <path id="SimSun-332b" d="M 4975 1950 
L 3600 1850 
L 3600 200 
Q 3650 -400 3025 -575 
Q 3025 -175 2250 0 
L 2250 100 
Q 2900 25 3087 25 
Q 3275 25 3250 375 
L 3250 1800 
Q 2550 1750 2112 1662 
Q 1675 1575 1425 1475 
L 1175 1950 
Q 1450 1975 2037 2250 
Q 2625 2525 3675 3175 
Q 2675 3075 2275 2987 
Q 1875 2900 1625 2775 
L 1375 3275 
Q 1725 3300 2237 3687 
Q 2750 4075 3075 4550 
Q 1600 4450 1025 4450 
L 1025 4550 
Q 2525 4675 3475 4837 
Q 4425 5000 5075 5250 
L 5450 4775 
Q 5075 4800 4437 4725 
Q 3800 4650 3175 4575 
L 3675 4325 
Q 3350 4275 2800 3825 
Q 2225 3375 1925 3250 
L 3900 3325 
Q 4375 3650 4625 3975 
L 5100 3575 
Q 4825 3550 4475 3350 
Q 4100 3125 3212 2625 
Q 2325 2125 1900 1925 
L 4875 2075 
Q 4500 2450 4250 2625 
L 4300 2700 
Q 4975 2450 5287 2262 
Q 5600 2075 5612 1862 
Q 5625 1650 5512 1475 
Q 5400 1300 5287 1500 
Q 5175 1700 4975 1950 
z
M 4000 1300 
Q 5175 800 5462 600 
Q 5750 400 5775 162 
Q 5800 -75 5712 -200 
Q 5625 -325 5600 -325 
Q 5475 -325 5325 -25 
Q 5075 425 3950 1225 
L 4000 1300 
z
M 2250 1400 
L 2700 950 
Q 2500 950 1875 475 
Q 1250 -25 425 -375 
L 375 -300 
Q 925 25 1437 462 
Q 1950 900 2250 1400 
z
" transform="scale(0.015625)"/>
      <path id="SimSun-350f" d="M 3675 5150 
L 3725 5225 
Q 4350 4925 4425 4737 
Q 4500 4550 4375 4387 
Q 4250 4225 4200 4225 
Q 4125 4225 4075 4450 
Q 3975 4800 3675 5150 
z
M 2675 2525 
Q 2950 2600 3337 3100 
Q 3725 3600 3900 4050 
L 3350 4050 
Q 3025 4050 2750 3975 
L 2525 4200 
L 5225 4200 
L 5575 4550 
L 6000 4050 
L 4025 4050 
L 4400 3750 
Q 4150 3675 3875 3400 
Q 3600 3125 3100 2525 
L 5175 2625 
Q 4900 2950 4550 3275 
L 4600 3350 
Q 5025 3150 5362 2950 
Q 5700 2750 5737 2650 
Q 5775 2550 5775 2450 
Q 5775 2300 5712 2175 
Q 5650 2050 5600 2050 
Q 5575 2050 5525 2150 
Q 5425 2300 5275 2500 
Q 4525 2425 3862 2337 
Q 3200 2250 2900 2050 
L 2675 2525 
z
M 3500 2275 
L 3875 2350 
L 3850 1775 
Q 3775 550 3325 112 
Q 2875 -325 1950 -600 
L 1925 -525 
Q 2625 -175 2950 150 
Q 3275 475 3387 962 
Q 3500 1450 3500 2275 
z
M 4475 2450 
L 4800 2500 
L 4800 1750 
L 4800 175 
Q 4775 -150 5175 -125 
L 5375 -125 
Q 5625 -125 5650 87 
Q 5675 300 5700 825 
L 5825 825 
Q 5825 425 5875 187 
Q 5925 -50 6100 -75 
Q 5975 -425 5600 -425 
L 4975 -425 
Q 4475 -450 4475 25 
L 4475 2450 
z
M 425 500 
Q 675 525 1212 637 
Q 1750 750 2700 975 
L 2725 875 
Q 2200 700 1550 462 
Q 900 225 675 -25 
L 425 500 
z
M 1000 1825 
Q 1275 1850 2625 2025 
L 2650 1925 
Q 2050 1800 1550 1650 
Q 1050 1500 800 1300 
L 500 1825 
Q 725 1875 1125 2312 
Q 1525 2750 1825 3175 
Q 1450 3100 1175 3037 
Q 900 2975 650 2800 
L 400 3225 
Q 675 3300 1050 3912 
Q 1425 4525 1650 5225 
L 2125 4900 
Q 1925 4775 1675 4400 
Q 1425 4000 825 3225 
Q 1475 3275 1900 3300 
Q 2100 3575 2300 4025 
L 2750 3675 
Q 2525 3575 2100 3050 
Q 1650 2525 1000 1825 
z
" transform="scale(0.015625)"/>
      <path id="SimSun-2f6a" d="M 1075 4675 
L 4600 4675 
L 4975 5050 
L 5475 4525 
L 1900 4525 
Q 1575 4525 1300 4450 
L 1075 4675 
z
M 300 3050 
L 5250 3050 
L 5625 3425 
L 6125 2900 
L 3400 2900 
L 3400 150 
Q 3425 -400 2750 -600 
Q 2700 -175 1875 50 
L 1875 150 
Q 2600 75 2812 87 
Q 3025 100 3025 400 
L 3025 2900 
L 1125 2900 
Q 800 2900 525 2825 
L 300 3050 
z
M 1875 2400 
L 2425 2025 
L 2175 1925 
Q 1375 700 350 -25 
L 275 50 
Q 1325 1075 1875 2400 
z
M 4075 2250 
Q 5025 1550 5387 1200 
Q 5750 850 5762 650 
Q 5775 450 5687 300 
Q 5600 150 5550 150 
Q 5475 150 5375 375 
Q 5200 725 4875 1175 
Q 4550 1625 4000 2175 
L 4075 2250 
z
" transform="scale(0.015625)"/>
      <path id="SimSun-173f" d="M 2800 5250 
Q 3325 5025 3400 4837 
Q 3475 4650 3275 4475 
L 4375 4475 
L 4700 4800 
L 5175 4325 
L 3975 4325 
L 4350 4075 
Q 4100 4000 3650 3450 
L 5075 3450 
L 5450 3825 
L 5975 3300 
L 1250 3300 
Q 925 3300 650 3225 
L 425 3450 
L 3500 3450 
Q 3800 4025 3875 4325 
L 2225 4325 
Q 2600 4100 2675 4000 
Q 2750 3900 2750 3800 
Q 2750 3725 2700 3625 
Q 2650 3525 2537 3512 
Q 2425 3500 2400 3725 
Q 2375 3925 2100 4325 
L 1625 4325 
L 1300 4275 
L 1100 4475 
L 3075 4475 
Q 3075 4800 2750 5200 
L 2800 5250 
z
M 1400 3075 
L 1750 2875 
L 4450 2875 
L 4625 3075 
L 5000 2800 
L 4825 2650 
Q 4825 1575 4850 1300 
L 4500 1150 
L 4500 1375 
L 1750 1375 
L 1750 1250 
L 1400 1125 
Q 1425 1575 1425 2087 
Q 1425 2600 1400 3075 
z
M 1750 2725 
L 1750 2200 
L 4500 2200 
L 4500 2725 
L 1750 2725 
z
M 1750 2050 
L 1750 1525 
L 4500 1525 
L 4500 2050 
L 1750 2050 
z
M 1200 925 
L 1300 900 
Q 1275 200 1162 -12 
Q 1050 -225 862 -262 
Q 675 -300 600 -237 
Q 525 -175 525 -125 
Q 525 -25 750 125 
Q 1050 350 1200 925 
z
M 2650 1250 
L 2700 1325 
Q 3325 1050 3437 925 
Q 3550 800 3550 675 
Q 3550 575 3487 450 
Q 3425 325 3400 325 
Q 3325 325 3225 525 
Q 3075 825 2650 1250 
z
M 4725 925 
L 4800 1000 
Q 5500 650 5650 487 
Q 5800 325 5800 200 
Q 5800 100 5725 -37 
Q 5650 -175 5600 -175 
Q 5525 -175 5425 75 
Q 5250 425 4725 925 
z
M 1875 100 
Q 1875 850 1850 1125 
L 2400 850 
L 2200 700 
L 2200 225 
Q 2175 -75 2475 -100 
L 3975 -100 
Q 4200 -125 4262 75 
Q 4325 275 4350 750 
L 4450 750 
Q 4450 325 4500 137 
Q 4550 -50 4725 -75 
Q 4600 -375 4100 -375 
L 2350 -375 
Q 1850 -350 1875 100 
z
" transform="scale(0.015625)"/>
      <path id="SimSun-28" d="M 200 4225 
L 200 4375 
L 2650 4375 
L 2925 3525 
L 2800 3475 
Q 2600 3850 2375 4037 
Q 2150 4225 1875 4225 
L 1175 4225 
Q 1075 4225 1012 4175 
Q 950 4125 950 4025 
L 950 2475 
L 1675 2475 
Q 1925 2475 2037 2600 
Q 2150 2725 2150 2975 
L 2150 3125 
L 2300 3125 
L 2300 1650 
L 2150 1650 
L 2150 1750 
Q 2150 2025 2037 2175 
Q 1925 2325 1675 2325 
L 950 2325 
L 950 450 
Q 950 350 1012 300 
Q 1075 250 1175 250 
L 1825 250 
Q 2200 250 2462 462 
Q 2725 675 2875 1125 
L 3000 1075 
L 2725 100 
L 175 100 
L 175 250 
L 325 250 
Q 450 250 500 300 
Q 550 350 550 450 
L 550 4025 
Q 550 4125 500 4175 
Q 450 4225 325 4225 
L 200 4225 
z
" transform="scale(0.015625)"/>
      <path id="SimSun-5b" d="M 1675 1825 
L 2125 2500 
Q 2200 2600 2187 2675 
Q 2175 2750 2000 2750 
L 1850 2750 
L 1850 2900 
L 2825 2900 
L 2825 2750 
L 2700 2750 
Q 2650 2750 2575 2737 
Q 2500 2725 2450 2650 
L 1775 1650 
L 2475 500 
Q 2550 375 2662 312 
Q 2775 250 2825 250 
L 2925 250 
L 2925 100 
L 1825 100 
L 1825 250 
L 1975 250 
Q 2125 250 2137 325 
Q 2150 400 2100 500 
L 1575 1350 
L 975 475 
Q 950 350 987 300 
Q 1025 250 1125 250 
L 1200 250 
L 1200 100 
L 225 100 
L 225 250 
L 375 250 
Q 475 250 600 325 
Q 725 400 800 550 
L 1450 1525 
L 800 2575 
Q 775 2625 700 2687 
Q 625 2750 500 2750 
L 375 2750 
L 375 2900 
L 1450 2900 
L 1450 2750 
L 1375 2750 
Q 1250 2750 1225 2675 
Q 1200 2600 1250 2500 
L 1675 1825 
z
M 600 250 
L 600 250 
z
M 825 250 
L 825 250 
z
M 2525 2750 
L 2525 2750 
z
M 2300 2750 
L 2300 2750 
z
M 2250 250 
L 2250 250 
z
M 2625 250 
L 2625 250 
z
M 1100 2750 
L 1100 2750 
z
M 700 2750 
L 700 2750 
z
" transform="scale(0.015625)"/>
     </defs>
     <use xlink:href="#SimSun-4205"/>
     <use xlink:href="#SimSun-50bc" transform="translate(100 0)"/>
     <use xlink:href="#SimSun-332b" transform="translate(200 0)"/>
     <use xlink:href="#SimSun-350f" transform="translate(300 0)"/>
     <use xlink:href="#SimSun-2f6a" transform="translate(400 0)"/>
     <use xlink:href="#SimSun-173f" transform="translate(500 0)"/>
     <use xlink:href="#SimSun-3" transform="translate(600 0)"/>
     <use xlink:href="#SimSun-12" transform="translate(650 0)"/>
     <use xlink:href="#SimSun-3" transform="translate(700 0)"/>
     <use xlink:href="#SimSun-28" transform="translate(750 0)"/>
     <use xlink:href="#SimSun-5b" transform="translate(800 0)"/>
     <use xlink:href="#SimSun-53" transform="translate(850 0)"/>
     <use xlink:href="#SimSun-48" transform="translate(900 0)"/>
     <use xlink:href="#SimSun-55" transform="translate(950 0)"/>
     <use xlink:href="#SimSun-4c" transform="translate(1000 0)"/>
     <use xlink:href="#SimSun-50" transform="translate(1050 0)"/>
     <use xlink:href="#SimSun-48" transform="translate(1100 0)"/>
     <use xlink:href="#SimSun-51" transform="translate(1150 0)"/>
     <use xlink:href="#SimSun-57" transform="translate(1200 0)"/>
     <use xlink:href="#SimSun-44" transform="translate(1250 0)"/>
     <use xlink:href="#SimSun-4f" transform="translate(1300 0)"/>
     <use xlink:href="#SimSun-3" transform="translate(1350 0)"/>
     <use xlink:href="#SimSun-56" transform="translate(1400 0)"/>
     <use xlink:href="#SimSun-48" transform="translate(1450 0)"/>
     <use xlink:href="#SimSun-57" transform="translate(1500 0)"/>
     <use xlink:href="#SimSun-58" transform="translate(1550 0)"/>
     <use xlink:href="#SimSun-53" transform="translate(1600 0)"/>
    </g>
   </g>
  </g>
 </g>
 <defs>
  <clipPath id="p9facd8410a">
   <rect x="7.2" y="7.2" width="340.511811" height="152.787402"/>
  </clipPath>
 </defs>
</svg>
