<?xml version="1.0" encoding="utf-8" standalone="no"?>
<!DOCTYPE svg PUBLIC "-//W3C//DTD SVG 1.1//EN"
  "http://www.w3.org/Graphics/SVG/1.1/DTD/svg11.dtd">
<svg xmlns:xlink="http://www.w3.org/1999/xlink" width="354.911811pt" height="167.187402pt" viewBox="0 0 354.911811 167.187402" xmlns="http://www.w3.org/2000/svg" version="1.1">
 <metadata>
  <rdf:RDF xmlns:dc="http://purl.org/dc/elements/1.1/" xmlns:cc="http://creativecommons.org/ns#" xmlns:rdf="http://www.w3.org/1999/02/22-rdf-syntax-ns#">
   <cc:Work>
    <dc:type rdf:resource="http://purl.org/dc/dcmitype/StillImage"/>
    <dc:date>2026-06-20T22:15:57.072728</dc:date>
    <dc:format>image/svg+xml</dc:format>
    <dc:creator>
     <cc:Agent>
      <dc:title>Matplotlib v3.11.0, https://matplotlib.org/</dc:title>
     </cc:Agent>
    </dc:creator>
   </cc:Work>
  </rdf:RDF>
 </metadata>
 <defs>
  <style type="text/css">*{stroke-linejoin: round; stroke-linecap: butt}</style>
 </defs>
 <g id="figure_1">
  <g id="patch_1">
   <path d="M 0 167.187402 
L 354.911811 167.187402 
L 354.911811 0 
L 0 0 
z
" style="fill: #ffffff"/>
  </g>
  <g id="axes_1">
   <g id="patch_2">
    <path d="M 44.656299 98.872441 
L 95.733071 98.872441 
L 95.733071 73.407874 
L 44.656299 73.407874 
z
" clip-path="url(#p4aa2b8cfad)" style="fill: #eef4fa; stroke: #0072b2; stroke-linejoin: miter"/>
   </g>
   <g id="patch_3">
    <path d="M 119.568898 98.872441 
L 170.645669 98.872441 
L 170.645669 73.407874 
L 119.568898 73.407874 
z
" clip-path="url(#p4aa2b8cfad)" style="fill: #eef4fa; stroke: #0072b2; stroke-linejoin: miter"/>
   </g>
   <g id="patch_4">
    <path d="M 194.481496 98.872441 
L 245.558268 98.872441 
L 245.558268 73.407874 
L 194.481496 73.407874 
z
" clip-path="url(#p4aa2b8cfad)" style="fill: #eef4fa; stroke: #0072b2; stroke-linejoin: miter"/>
   </g>
   <g id="patch_5">
    <path d="M 269.394094 98.872441 
L 320.470866 98.872441 
L 320.470866 73.407874 
L 269.394094 73.407874 
z
" clip-path="url(#p4aa2b8cfad)" style="fill: #eef4fa; stroke: #0072b2; stroke-linejoin: miter"/>
   </g>
   <g id="patch_6">
    <path d="M 97.733245 86.140157 
Q 105.947342 86.140157 112.819798 86.140157 
" clip-path="url(#p4aa2b8cfad)" style="fill: none; stroke: #000000; stroke-width: 1.2; stroke-linecap: round"/>
    <path d="M 108.819798 84.140157 
L 112.819798 86.140157 
L 108.819798 88.140157 
" clip-path="url(#p4aa2b8cfad)" style="fill: none; stroke: #000000; stroke-width: 1.2; stroke-linecap: round"/>
   </g>
   <g id="patch_7">
    <path d="M 172.645844 86.140157 
Q 180.85994 86.140157 187.732396 86.140157 
" clip-path="url(#p4aa2b8cfad)" style="fill: none; stroke: #000000; stroke-width: 1.2; stroke-linecap: round"/>
    <path d="M 183.732396 84.140157 
L 187.732396 86.140157 
L 183.732396 88.140157 
" clip-path="url(#p4aa2b8cfad)" style="fill: none; stroke: #000000; stroke-width: 1.2; stroke-linecap: round"/>
   </g>
   <g id="patch_8">
    <path d="M 247.558442 86.140157 
Q 255.772539 86.140157 262.644995 86.140157 
" clip-path="url(#p4aa2b8cfad)" style="fill: none; stroke: #000000; stroke-width: 1.2; stroke-linecap: round"/>
    <path d="M 258.644995 84.140157 
L 262.644995 86.140157 
L 258.644995 88.140157 
" clip-path="url(#p4aa2b8cfad)" style="fill: none; stroke: #000000; stroke-width: 1.2; stroke-linecap: round"/>
   </g>
   <g id="text_1">
    <!-- 初始状态 -->
    <g transform="translate(54.194685 84.452657) scale(0.08 -0.08)">
     <defs>
      <path id="SimSun-84d" d="M 2850 4300 
L 5450 4300 
L 5675 4550 
L 6050 4225 
L 5825 4050 
Q 5625 250 5437 -87 
Q 5250 -425 4825 -550 
Q 4675 -175 4000 0 
L 4000 125 
Q 4850 25 4937 37 
Q 5025 50 5137 187 
Q 5250 325 5475 4150 
L 4100 4150 
Q 4075 3050 3937 2212 
Q 3800 1375 3387 687 
Q 2975 0 2175 -500 
L 2125 -425 
Q 2825 200 3162 825 
Q 3500 1450 3612 2287 
Q 3725 3125 3750 4150 
L 3375 4150 
L 3050 4100 
L 2850 4300 
z
M 1325 5275 
Q 2050 4850 2062 4625 
Q 2075 4400 1975 4312 
Q 1875 4225 1825 4225 
Q 1725 4225 1675 4450 
Q 1575 4750 1250 5200 
L 1325 5275 
z
M 1875 2250 
Q 1950 2225 2125 2175 
Q 2575 2875 2725 3200 
L 3125 2850 
Q 2925 2775 2700 2587 
Q 2475 2400 2250 2125 
Q 2825 1900 2862 1787 
Q 2900 1675 2900 1575 
Q 2900 1425 2850 1337 
Q 2800 1250 2775 1250 
Q 2700 1250 2600 1450 
Q 2425 1700 1875 2125 
L 1875 325 
Q 1875 25 1900 -425 
L 1525 -575 
Q 1550 275 1550 700 
L 1550 2525 
Q 950 1850 275 1425 
L 225 1500 
Q 800 2000 1262 2587 
Q 1725 3175 2100 3875 
L 1150 3875 
Q 825 3875 550 3800 
L 325 4025 
L 2100 4025 
L 2325 4250 
L 2700 3875 
L 2450 3750 
Q 2100 3275 1875 2950 
L 1875 2250 
z
" transform="scale(0.015625)"/>
      <path id="SimSun-ffb" d="M 3600 1800 
L 3600 150 
L 5250 150 
L 5250 1800 
L 3600 1800 
z
M 4025 5250 
L 4575 4900 
L 4350 4775 
Q 3575 3375 3275 3025 
Q 3875 3050 5450 3100 
Q 5200 3575 4775 4025 
L 4850 4100 
Q 5850 3425 5912 3250 
Q 5975 3075 5975 2950 
Q 5975 2775 5875 2650 
Q 5775 2525 5725 2525 
Q 5675 2525 5650 2625 
Q 5575 2800 5500 2975 
Q 4425 2900 3887 2787 
Q 3350 2675 3150 2500 
L 2850 3025 
Q 3125 3125 3437 3700 
Q 3750 4275 4025 5250 
z
M 5600 1700 
Q 5600 -50 5625 -325 
L 5250 -500 
L 5250 0 
L 3600 0 
L 3600 -400 
L 3225 -550 
Q 3250 -175 3250 762 
Q 3250 1700 3225 2175 
L 3600 1950 
L 5200 1950 
L 5375 2200 
L 5800 1875 
L 5600 1700 
z
M 1500 3525 
Q 1325 2950 900 1500 
Q 1350 1350 1725 1200 
Q 2100 2050 2325 3525 
L 1500 3525 
z
M 2050 4925 
L 1825 4775 
Q 1725 4450 1525 3675 
L 2300 3675 
L 2475 3900 
L 2875 3575 
L 2675 3425 
Q 2400 1925 2050 1075 
Q 2525 825 2625 700 
Q 2725 575 2725 375 
Q 2725 250 2700 137 
Q 2675 25 2650 25 
Q 2575 25 2450 225 
Q 2225 550 1925 800 
Q 1300 -100 375 -600 
L 325 -525 
Q 1200 175 1625 950 
Q 1000 1300 575 1450 
Q 875 2450 1150 3525 
L 1100 3525 
Q 775 3525 500 3450 
L 275 3675 
L 1175 3675 
Q 1425 4750 1475 5200 
L 2050 4925 
z
" transform="scale(0.015625)"/>
      <path id="SimSun-28e6" d="M 4250 4875 
L 4000 4675 
L 4000 3175 
L 5200 3175 
L 5575 3550 
L 6050 3025 
L 4275 3025 
Q 4725 550 6125 -100 
L 6125 -200 
Q 5725 -175 5525 -475 
Q 4350 725 4150 3025 
L 4000 3025 
Q 3875 375 2150 -650 
L 2100 -575 
Q 3525 650 3650 3025 
L 3050 3025 
Q 2725 3025 2450 2950 
L 2225 3175 
L 3650 3175 
Q 3650 4575 3625 5150 
L 4250 4875 
z
M 4600 4825 
Q 5200 4575 5375 4437 
Q 5550 4300 5550 4125 
Q 5550 4000 5475 3837 
Q 5400 3675 5375 3675 
Q 5300 3675 5200 3900 
Q 5025 4250 4550 4750 
L 4600 4825 
z
M 1725 -600 
Q 1750 -25 1750 2150 
Q 775 1150 575 775 
L 250 1225 
Q 650 1375 1750 2325 
Q 1750 4850 1725 5175 
L 2350 4900 
L 2100 4725 
L 2100 825 
Q 2100 25 2125 -400 
L 1725 -600 
z
M 450 4050 
L 500 4125 
Q 1175 3625 1275 3450 
Q 1375 3275 1375 3175 
Q 1375 3050 1262 2887 
Q 1150 2725 1100 2725 
Q 1025 2725 950 3025 
Q 825 3475 450 4050 
z
" transform="scale(0.015625)"/>
      <path id="SimSun-1631" d="M 2850 5225 
L 3500 4925 
L 3250 4800 
Q 3200 4475 3125 4025 
L 5050 4025 
L 5425 4400 
L 5950 3875 
L 3350 3875 
Q 3875 2950 4650 2550 
Q 5425 2150 6075 2100 
L 6075 2000 
Q 5600 1925 5550 1675 
Q 4525 2050 3987 2662 
Q 3450 3275 3225 3875 
L 3100 3875 
Q 2850 3125 2500 2675 
Q 2950 2500 3237 2325 
Q 3525 2150 3525 1962 
Q 3525 1775 3462 1700 
Q 3400 1625 3375 1625 
Q 3275 1625 3125 1875 
Q 2900 2225 2425 2575 
Q 1650 1875 300 1550 
L 250 1650 
Q 1225 1925 1850 2462 
Q 2475 3000 2725 3875 
L 1225 3875 
Q 900 3875 625 3800 
L 400 4025 
L 2750 4025 
Q 2850 4750 2850 5225 
z
M 1325 1250 
Q 1325 800 1237 462 
Q 1150 125 1012 62 
Q 875 0 775 0 
Q 650 0 562 37 
Q 475 75 475 125 
Q 475 200 675 375 
Q 975 600 1225 1275 
L 1325 1250 
z
M 2600 1600 
L 2650 1675 
Q 3125 1475 3362 1312 
Q 3600 1150 3587 975 
Q 3575 800 3487 700 
Q 3400 600 3375 600 
Q 3275 600 3200 825 
Q 3075 1125 2600 1600 
z
M 4625 1300 
L 4700 1350 
Q 5300 1025 5525 812 
Q 5750 600 5712 400 
Q 5675 200 5587 125 
Q 5500 50 5475 50 
Q 5375 50 5275 350 
Q 5125 750 4625 1300 
z
M 1900 50 
Q 1900 1075 1875 1625 
L 2450 1325 
L 2250 1150 
L 2250 175 
Q 2200 -150 2550 -125 
L 3875 -125 
Q 4175 -125 4225 125 
Q 4275 375 4275 900 
L 4400 900 
Q 4425 450 4475 200 
Q 4525 -50 4775 -100 
Q 4575 -450 4075 -425 
L 2575 -425 
Q 1875 -475 1900 50 
z
" transform="scale(0.015625)"/>
     </defs>
     <use xlink:href="#SimSun-84d"/>
     <use xlink:href="#SimSun-ffb" transform="translate(100 0)"/>
     <use xlink:href="#SimSun-28e6" transform="translate(200 0)"/>
     <use xlink:href="#SimSun-1631" transform="translate(300 0)"/>
    </g>
    <!-- Initial -->
    <g transform="translate(56.194685 93.577657) scale(0.08 -0.08)">
     <defs>
      <path id="SimSun-2c" d="M 600 4225 
L 600 4375 
L 2600 4375 
L 2600 4225 
L 2025 4225 
Q 1925 4225 1862 4175 
Q 1800 4125 1800 4025 
L 1800 450 
Q 1800 350 1862 300 
Q 1925 250 2025 250 
L 2600 250 
L 2600 100 
L 600 100 
L 600 250 
L 1175 250 
Q 1300 250 1350 300 
Q 1400 350 1400 450 
L 1400 4025 
Q 1400 4125 1350 4175 
Q 1300 4225 1175 4225 
L 600 4225 
z
" transform="scale(0.015625)"/>
      <path id="SimSun-51" d="M 200 100 
L 200 250 
L 325 250 
Q 450 250 500 300 
Q 550 350 550 450 
L 550 2600 
Q 550 2675 525 2712 
Q 500 2750 425 2750 
L 225 2750 
L 225 2900 
L 400 2900 
Q 525 2900 637 2925 
Q 750 2950 850 3025 
L 900 3025 
L 900 2450 
Q 1125 2700 1350 2825 
Q 1575 2950 1825 2950 
Q 2250 2950 2450 2725 
Q 2650 2500 2650 2050 
L 2650 450 
Q 2650 350 2712 300 
Q 2775 250 2875 250 
L 3000 250 
L 3000 100 
L 1950 100 
L 1950 250 
L 2075 250 
Q 2200 250 2250 300 
Q 2300 350 2300 450 
L 2300 2125 
Q 2300 2425 2175 2587 
Q 2050 2750 1800 2750 
Q 1575 2750 1337 2600 
Q 1100 2450 900 2175 
L 900 450 
Q 900 350 962 300 
Q 1025 250 1125 250 
L 1250 250 
L 1250 100 
L 200 100 
z
" transform="scale(0.015625)"/>
      <path id="SimSun-4c" d="M 1425 2525 
Q 1425 2625 1375 2687 
Q 1325 2750 1200 2750 
L 675 2750 
L 675 2900 
L 925 2900 
Q 1150 2900 1350 2937 
Q 1550 2975 1725 3075 
L 1775 3075 
L 1775 450 
Q 1775 350 1837 300 
Q 1900 250 2000 250 
L 2525 250 
L 2525 100 
L 675 100 
L 675 250 
L 1200 250 
Q 1325 250 1375 300 
Q 1425 350 1425 450 
L 1425 2525 
z
M 1725 3025 
L 1725 3025 
z
M 1625 4425 
Q 1750 4425 1850 4337 
Q 1950 4250 1950 4125 
Q 1950 4000 1850 3900 
Q 1750 3800 1625 3800 
Q 1500 3800 1400 3900 
Q 1300 4000 1300 4125 
Q 1300 4250 1400 4337 
Q 1500 4425 1625 4425 
z
" transform="scale(0.015625)"/>
      <path id="SimSun-57" d="M 1500 900 
Q 1500 550 1625 425 
Q 1750 300 2000 300 
Q 2250 300 2400 462 
Q 2550 625 2600 925 
L 2725 875 
Q 2675 525 2462 300 
Q 2250 75 1900 75 
Q 1525 75 1337 300 
Q 1150 525 1150 1000 
L 1150 2750 
L 400 2750 
L 400 2900 
L 600 2900 
Q 900 2900 1087 3087 
Q 1275 3275 1325 3675 
L 1350 3875 
L 1500 3875 
L 1500 2900 
L 2500 2900 
L 2500 2750 
L 1500 2750 
L 1500 900 
z
" transform="scale(0.015625)"/>
      <path id="SimSun-44" d="M 1225 75 
Q 775 75 525 287 
Q 275 500 275 775 
Q 275 1225 662 1512 
Q 1050 1800 2200 1925 
L 2200 2225 
Q 2200 2475 2087 2637 
Q 1975 2800 1575 2800 
Q 1150 2800 975 2662 
Q 800 2525 850 2375 
Q 875 2325 875 2275 
Q 875 2225 837 2150 
Q 800 2075 650 2075 
Q 550 2075 487 2137 
Q 425 2200 425 2325 
Q 425 2550 750 2750 
Q 1075 2950 1550 2950 
Q 2050 2950 2300 2762 
Q 2550 2575 2550 2225 
L 2550 575 
Q 2550 375 2587 337 
Q 2625 300 2725 300 
Q 2850 300 2900 412 
Q 2950 525 2950 725 
L 3075 725 
Q 3075 375 2950 237 
Q 2825 100 2625 100 
Q 2450 100 2350 175 
Q 2250 250 2200 425 
Q 1950 250 1737 162 
Q 1525 75 1225 75 
z
M 700 850 
Q 700 625 837 437 
Q 975 250 1275 250 
Q 1500 250 1725 337 
Q 1950 425 2200 600 
L 2200 1775 
Q 1350 1675 1025 1437 
Q 700 1200 700 850 
z
" transform="scale(0.015625)"/>
      <path id="SimSun-4f" d="M 925 4375 
Q 1150 4375 1350 4425 
Q 1550 4475 1725 4575 
L 1775 4575 
L 1775 450 
Q 1775 350 1837 300 
Q 1900 250 2000 250 
L 2575 250 
L 2575 100 
L 625 100 
L 625 250 
L 1200 250 
Q 1325 250 1375 300 
Q 1425 350 1425 450 
L 1425 4025 
Q 1425 4125 1375 4175 
Q 1325 4225 1200 4225 
L 650 4225 
L 650 4375 
L 925 4375 
z
" transform="scale(0.015625)"/>
     </defs>
     <use xlink:href="#SimSun-2c"/>
     <use xlink:href="#SimSun-51" transform="translate(50 0)"/>
     <use xlink:href="#SimSun-4c" transform="translate(100 0)"/>
     <use xlink:href="#SimSun-57" transform="translate(150 0)"/>
     <use xlink:href="#SimSun-4c" transform="translate(200 0)"/>
     <use xlink:href="#SimSun-44" transform="translate(250 0)"/>
     <use xlink:href="#SimSun-4f" transform="translate(300 0)"/>
    </g>
   </g>
   <g id="text_2">
    <!-- 驱动因素 -->
    <g transform="translate(129.107283 84.452657) scale(0.08 -0.08)">
     <defs>
      <path id="SimSun-50a1" d="M 325 850 
Q 900 900 2225 1275 
L 2275 1200 
Q 1875 1050 1262 800 
Q 650 550 600 400 
L 325 850 
z
M 1250 100 
Q 1700 -25 1937 -62 
Q 2175 -100 2300 362 
Q 2425 825 2550 2000 
L 1125 2000 
L 925 1800 
L 625 2100 
L 800 2225 
Q 850 2450 900 3075 
Q 950 3700 950 4200 
L 1475 3950 
L 1300 3775 
L 1100 2150 
L 1950 2150 
L 2175 4550 
L 1250 4550 
Q 925 4550 650 4475 
L 425 4700 
L 2150 4700 
L 2325 4925 
L 2725 4625 
L 2500 4475 
L 2275 2150 
L 2500 2150 
L 2675 2400 
L 3075 2100 
L 2875 1925 
Q 2750 875 2675 487 
Q 2600 100 2437 -212 
Q 2275 -525 1800 -600 
Q 1825 -275 1225 0 
L 1250 100 
z
M 5375 3900 
L 5825 3550 
L 5625 3425 
Q 5350 2875 5050 2250 
Q 5400 1850 5562 1587 
Q 5725 1325 5725 1162 
Q 5725 1000 5662 875 
Q 5600 750 5550 750 
Q 5475 750 5350 1100 
Q 5150 1575 4900 1975 
Q 4400 1175 3750 525 
L 3675 600 
Q 4375 1450 4700 2200 
Q 4375 2750 3800 3500 
L 3850 3550 
Q 4275 3175 4850 2475 
Q 5200 3250 5375 3900 
z
M 3250 0 
Q 3250 3250 3225 4825 
L 3575 4600 
L 5375 4600 
L 5675 4900 
L 6075 4450 
L 3575 4450 
L 3575 -75 
L 5400 -75 
L 5725 250 
L 6150 -225 
L 3625 -225 
L 3425 -450 
L 3100 -125 
L 3250 0 
z
" transform="scale(0.015625)"/>
      <path id="SimSun-8d8" d="M 5950 3500 
L 5750 3325 
Q 5725 675 5587 137 
Q 5450 -400 4850 -575 
Q 4825 -300 4075 25 
L 4100 150 
Q 4625 25 4925 25 
Q 5075 25 5162 87 
Q 5250 150 5312 737 
Q 5375 1325 5425 3425 
L 4375 3425 
Q 4350 2475 4162 1725 
Q 3975 975 3487 400 
Q 3000 -175 2200 -625 
L 2125 -550 
Q 2925 0 3312 562 
Q 3700 1125 3862 1825 
Q 4025 2525 4050 3425 
L 3600 3425 
L 3300 3375 
L 3100 3575 
L 4050 3575 
Q 4050 4625 4025 5175 
L 4550 4925 
L 4375 4750 
L 4375 3575 
L 5375 3575 
L 5575 3800 
L 5950 3500 
z
M 475 4325 
L 2275 4325 
L 2575 4625 
L 3025 4175 
L 1200 4175 
Q 925 4175 700 4100 
L 475 4325 
z
M 275 3050 
L 2625 3050 
L 2925 3350 
L 3375 2900 
L 1700 2900 
L 2100 2600 
Q 1850 2500 1450 1875 
Q 1025 1250 675 875 
L 2650 1100 
Q 2400 1600 2125 2025 
L 2200 2075 
Q 3075 1275 3125 987 
Q 3175 700 3062 587 
Q 2950 475 2925 475 
Q 2850 475 2825 600 
Q 2775 775 2700 975 
Q 875 650 600 350 
L 325 850 
Q 600 925 1025 1687 
Q 1450 2450 1550 2900 
L 750 2900 
L 475 2850 
L 275 3050 
z
" transform="scale(0.015625)"/>
      <path id="SimSun-d10" d="M 2950 3725 
Q 2950 4025 2925 4425 
L 3525 4150 
L 3300 3950 
L 3300 3125 
L 4175 3125 
L 4500 3450 
L 4975 2975 
L 3300 2975 
Q 3275 2650 3250 2375 
Q 3975 1925 4287 1625 
Q 4600 1325 4625 1087 
Q 4650 850 4562 737 
Q 4475 625 4425 625 
Q 4325 625 4175 1000 
Q 3975 1475 3225 2250 
Q 3075 1650 2650 1175 
Q 2225 700 1475 400 
L 1425 475 
Q 2100 850 2500 1437 
Q 2900 2025 2950 2975 
L 2225 2975 
Q 1900 2975 1625 2900 
L 1400 3125 
L 2950 3125 
L 2950 3725 
z
M 750 5025 
L 1125 4800 
L 5175 4800 
L 5375 5050 
L 5750 4725 
L 5575 4575 
L 5575 425 
Q 5575 75 5600 -350 
L 5225 -525 
L 5225 -100 
L 1125 -100 
L 1125 -400 
L 750 -550 
Q 775 -50 775 400 
L 775 4050 
Q 775 4425 750 5025 
z
M 1125 4650 
L 1125 50 
L 5225 50 
L 5225 4650 
L 1125 4650 
z
" transform="scale(0.015625)"/>
      <path id="SimSun-3350" d="M 2025 1275 
L 4500 1450 
Q 4275 1725 3975 1975 
L 4025 2050 
Q 4600 1775 4875 1575 
Q 5150 1375 5137 1175 
Q 5125 975 5062 900 
Q 5000 825 4975 825 
Q 4900 825 4850 950 
Q 4725 1150 4600 1325 
L 3375 1175 
L 3375 -50 
Q 3400 -500 2800 -650 
Q 2775 -275 2025 -125 
L 2025 -25 
Q 2700 -75 2862 -75 
Q 3025 -75 3025 100 
L 3025 1150 
Q 2150 1025 1887 950 
Q 1625 875 1425 775 
L 1175 1250 
Q 1450 1300 1950 1500 
Q 2450 1700 3350 2225 
Q 2750 2175 2312 2100 
Q 1875 2025 1600 1875 
L 1350 2325 
Q 1625 2375 1937 2562 
Q 2250 2750 2525 3025 
L 1150 3025 
Q 825 3025 550 2950 
L 325 3175 
L 3025 3175 
L 3025 3725 
L 2125 3725 
Q 1800 3725 1525 3650 
L 1300 3875 
L 3025 3875 
L 3025 4425 
L 1675 4425 
Q 1350 4425 1075 4350 
L 850 4575 
L 3025 4575 
Q 3025 5000 3000 5250 
L 3600 5025 
L 3375 4875 
L 3375 4575 
L 4875 4575 
L 5200 4875 
L 5650 4425 
L 3375 4425 
L 3375 3875 
L 4425 3875 
L 4775 4150 
L 5175 3725 
L 3375 3725 
L 3375 3175 
L 5300 3175 
L 5675 3475 
L 6100 3025 
L 2725 3025 
L 3025 2850 
Q 2825 2800 2475 2625 
Q 2100 2450 1725 2275 
L 3475 2350 
Q 3750 2575 3975 2850 
L 4400 2500 
Q 4175 2450 3675 2150 
Q 3150 1825 2025 1275 
z
M 2025 875 
L 2450 475 
Q 2200 450 1600 50 
Q 1000 -350 500 -525 
L 450 -450 
Q 1000 -150 1387 200 
Q 1775 550 2025 875 
z
M 3925 800 
Q 4875 450 5212 275 
Q 5550 100 5575 -87 
Q 5600 -275 5537 -387 
Q 5475 -500 5450 -500 
Q 5325 -500 5150 -250 
Q 4850 125 3875 725 
L 3925 800 
z
" transform="scale(0.015625)"/>
     </defs>
     <use xlink:href="#SimSun-50a1"/>
     <use xlink:href="#SimSun-8d8" transform="translate(100 0)"/>
     <use xlink:href="#SimSun-d10" transform="translate(200 0)"/>
     <use xlink:href="#SimSun-3350" transform="translate(300 0)"/>
    </g>
    <!-- Driver -->
    <g transform="translate(133.107283 93.577657) scale(0.08 -0.08)">
     <defs>
      <path id="SimSun-27" d="M 2500 2275 
Q 2500 3350 2175 3787 
Q 1850 4225 1275 4225 
Q 1100 4225 1012 4175 
Q 925 4125 925 4025 
L 925 450 
Q 925 350 1000 300 
Q 1075 250 1200 250 
Q 1750 250 2125 662 
Q 2500 1075 2500 2275 
z
M 525 4025 
Q 525 4125 475 4175 
Q 425 4225 300 4225 
L 150 4225 
L 150 4375 
L 1275 4375 
Q 2050 4375 2512 3875 
Q 2975 3375 2975 2325 
Q 2975 1175 2525 637 
Q 2075 100 1200 100 
L 125 100 
L 125 250 
L 300 250 
Q 425 250 475 300 
Q 525 350 525 450 
L 525 4025 
z
" transform="scale(0.015625)"/>
      <path id="SimSun-55" d="M 1275 2125 
Q 1525 2525 1812 2737 
Q 2100 2950 2400 2950 
Q 2650 2950 2787 2837 
Q 2925 2725 2925 2575 
Q 2925 2450 2862 2375 
Q 2800 2300 2675 2300 
Q 2550 2300 2487 2375 
Q 2425 2450 2450 2575 
Q 2450 2650 2425 2700 
Q 2400 2750 2275 2750 
Q 2075 2750 1787 2500 
Q 1500 2250 1275 1800 
L 1275 450 
Q 1275 350 1337 300 
Q 1400 250 1500 250 
L 2050 250 
L 2050 100 
L 200 100 
L 200 250 
L 700 250 
Q 825 250 875 300 
Q 925 350 925 450 
L 925 2525 
Q 925 2625 875 2687 
Q 825 2750 700 2750 
L 225 2750 
L 225 2900 
L 425 2900 
Q 600 2900 837 2937 
Q 1075 2975 1200 3025 
L 1275 3025 
L 1275 2125 
z
" transform="scale(0.015625)"/>
      <path id="SimSun-59" d="M 1625 75 
L 1475 75 
L 625 2525 
Q 600 2625 525 2687 
Q 450 2750 350 2750 
L 225 2750 
L 225 2900 
L 1300 2900 
L 1300 2750 
L 1200 2750 
Q 1050 2750 1025 2700 
Q 1000 2650 1000 2600 
Q 1000 2500 1025 2425 
L 1625 675 
L 1675 675 
L 2275 2400 
Q 2325 2525 2325 2575 
Q 2325 2600 2275 2675 
Q 2225 2750 2075 2750 
L 2025 2750 
L 2025 2900 
L 2925 2900 
L 2925 2750 
L 2875 2750 
Q 2725 2750 2637 2662 
Q 2550 2575 2475 2400 
L 1625 75 
z
M 2600 2750 
L 2600 2750 
z
M 2400 2750 
L 2400 2750 
z
M 925 2750 
L 925 2750 
z
M 550 2750 
L 550 2750 
z
" transform="scale(0.015625)"/>
      <path id="SimSun-48" d="M 2400 1650 
Q 2425 2200 2212 2487 
Q 2000 2775 1650 2775 
Q 1275 2775 1037 2475 
Q 800 2175 800 1650 
L 2400 1650 
z
M 800 1500 
Q 800 825 1062 537 
Q 1325 250 1750 250 
Q 2075 250 2300 437 
Q 2525 625 2625 900 
L 2750 850 
Q 2675 575 2412 312 
Q 2150 50 1700 50 
Q 1125 50 762 425 
Q 400 800 400 1500 
Q 400 2125 762 2537 
Q 1125 2950 1650 2950 
Q 2125 2950 2475 2625 
Q 2825 2300 2825 1500 
L 800 1500 
z
" transform="scale(0.015625)"/>
     </defs>
     <use xlink:href="#SimSun-27"/>
     <use xlink:href="#SimSun-55" transform="translate(50 0)"/>
     <use xlink:href="#SimSun-4c" transform="translate(100 0)"/>
     <use xlink:href="#SimSun-59" transform="translate(150 0)"/>
     <use xlink:href="#SimSun-48" transform="translate(200 0)"/>
     <use xlink:href="#SimSun-55" transform="translate(250 0)"/>
    </g>
   </g>
   <g id="text_3">
    <!-- 中间机制 -->
    <g transform="translate(204.019882 84.452657) scale(0.08 -0.08)">
     <defs>
      <path id="SimSun-45d" d="M 3325 3625 
L 3325 1975 
L 5125 1975 
L 5125 3625 
L 3325 3625 
z
M 2950 3775 
Q 2950 4750 2925 5250 
L 3525 4975 
L 3325 4775 
L 3325 3775 
L 5075 3775 
L 5275 4075 
L 5700 3750 
L 5475 3550 
L 5475 2100 
Q 5475 1825 5500 1525 
L 5125 1375 
L 5125 1825 
L 3325 1825 
Q 3325 -75 3350 -400 
L 2925 -625 
Q 2950 -50 2950 1825 
L 1225 1825 
L 1225 1525 
L 850 1325 
Q 875 1775 875 2625 
Q 875 3475 850 4000 
L 1225 3775 
L 2950 3775 
z
M 1225 3625 
L 1225 1975 
L 2950 1975 
L 2950 3625 
L 1225 3625 
z
" transform="scale(0.015625)"/>
      <path id="SimSun-4c24" d="M 2150 525 
Q 2175 1325 2175 2112 
Q 2175 2900 2150 3675 
L 2525 3450 
L 3750 3450 
L 4000 3700 
L 4325 3375 
L 4125 3200 
Q 4125 1550 4150 775 
L 3800 575 
L 3800 975 
L 2500 975 
L 2500 700 
L 2150 525 
z
M 2500 3300 
L 2500 2325 
L 3800 2325 
L 3800 3300 
L 2500 3300 
z
M 2500 2175 
L 2500 1125 
L 3800 1125 
L 3800 2175 
L 2500 2175 
z
M 1275 5200 
Q 1850 4825 1950 4675 
Q 2050 4525 2050 4425 
Q 2050 4275 1950 4137 
Q 1850 4000 1825 4000 
Q 1750 4000 1675 4275 
Q 1550 4650 1200 5125 
L 1275 5200 
z
M 1125 425 
Q 1125 25 1150 -375 
L 750 -525 
Q 775 -150 775 1950 
Q 775 4050 750 4425 
L 1350 4125 
L 1125 3975 
L 1125 425 
z
M 4225 125 
Q 5025 0 5125 37 
Q 5225 75 5225 250 
L 5225 4450 
L 3225 4450 
Q 2900 4450 2625 4375 
L 2400 4600 
L 5175 4600 
L 5425 4850 
L 5775 4500 
L 5575 4350 
L 5575 225 
Q 5575 -100 5462 -250 
Q 5350 -400 5000 -550 
Q 4800 -125 4225 25 
L 4225 125 
z
" transform="scale(0.015625)"/>
      <path id="SimSun-1d6a" d="M 3400 4425 
L 3400 2250 
Q 3400 400 2000 -575 
L 1925 -500 
Q 3050 525 3050 2250 
L 3050 3450 
Q 3050 4125 3025 4825 
L 3400 4575 
L 4550 4575 
L 4775 4825 
L 5175 4475 
L 4925 4325 
L 4925 250 
Q 4925 0 5175 0 
L 5475 0 
Q 5600 0 5650 200 
Q 5700 400 5725 1100 
L 5850 1100 
Q 5850 550 5900 362 
Q 5950 175 6150 75 
Q 6000 -225 5837 -262 
Q 5675 -300 5525 -300 
L 5000 -300 
Q 4575 -300 4575 100 
L 4575 4425 
L 3400 4425 
z
M 1725 2700 
Q 1725 50 1750 -500 
L 1350 -675 
Q 1375 425 1375 2375 
Q 1000 1325 275 525 
L 225 600 
Q 975 1775 1350 3500 
L 750 3500 
L 525 3450 
L 325 3650 
L 1375 3650 
Q 1375 4525 1350 5275 
L 1900 5050 
L 1725 4875 
L 1725 3650 
L 2075 3650 
L 2350 3925 
L 2775 3500 
L 1725 3500 
L 1725 2825 
Q 2325 2600 2512 2475 
Q 2700 2350 2700 2150 
Q 2700 2025 2662 1900 
Q 2625 1775 2600 1775 
Q 2525 1775 2375 2025 
Q 2150 2375 1725 2700 
z
" transform="scale(0.015625)"/>
      <path id="SimSun-866" d="M 4200 850 
Q 4225 1375 4225 2462 
Q 4225 3550 4200 4275 
L 4725 4025 
L 4525 3875 
L 4525 1575 
Q 4525 1400 4550 1050 
L 4200 850 
z
M 5350 4450 
Q 5350 4850 5325 5225 
L 5850 4975 
L 5675 4800 
L 5675 125 
Q 5700 -400 5200 -625 
Q 5150 -225 4375 -100 
L 4375 0 
Q 4850 -25 5100 -25 
Q 5350 -25 5350 225 
L 5350 4450 
z
M 1925 3900 
L 1925 4275 
Q 1925 4875 1900 5200 
L 2425 4975 
L 2225 4800 
L 2225 3900 
L 2800 3900 
L 3075 4200 
L 3525 3750 
L 2225 3750 
L 2225 3000 
L 3125 3000 
L 3425 3300 
L 3875 2850 
L 2225 2850 
L 2225 2175 
L 3050 2175 
L 3225 2425 
L 3600 2150 
L 3400 1975 
L 3400 750 
Q 3425 300 2925 125 
Q 2975 400 2400 575 
L 2400 675 
Q 2775 625 2937 625 
Q 3100 625 3100 875 
L 3100 2025 
L 2225 2025 
L 2225 300 
Q 2225 -125 2250 -450 
L 1900 -625 
Q 1925 225 1925 475 
L 1925 2025 
L 1050 2025 
L 1050 250 
L 725 75 
Q 750 725 750 1300 
Q 750 1875 725 2375 
L 1075 2175 
L 1925 2175 
L 1925 2850 
L 1100 2850 
Q 775 2850 500 2775 
L 275 3000 
L 1925 3000 
L 1925 3750 
L 1025 3750 
Q 775 3325 525 3050 
L 450 3075 
Q 700 3600 825 4000 
Q 950 4400 975 4675 
L 1450 4425 
Q 1275 4350 1075 3900 
L 1925 3900 
z
" transform="scale(0.015625)"/>
     </defs>
     <use xlink:href="#SimSun-45d"/>
     <use xlink:href="#SimSun-4c24" transform="translate(100 0)"/>
     <use xlink:href="#SimSun-1d6a" transform="translate(200 0)"/>
     <use xlink:href="#SimSun-866" transform="translate(300 0)"/>
    </g>
    <!-- Mechanism -->
    <g transform="translate(202.019882 93.577657) scale(0.08 -0.08)">
     <defs>
      <path id="SimSun-30" d="M 2800 450 
Q 2800 350 2862 300 
Q 2925 250 3025 250 
L 3125 250 
L 3125 100 
L 2050 100 
L 2050 250 
L 2175 250 
Q 2300 250 2350 300 
Q 2400 350 2400 450 
L 2400 3725 
L 2350 3725 
L 1500 100 
L 1350 100 
L 575 3650 
L 525 3650 
L 525 450 
Q 525 350 587 300 
Q 650 250 750 250 
L 825 250 
L 825 100 
L 75 100 
L 75 250 
L 150 250 
Q 275 250 325 300 
Q 375 350 375 450 
L 375 4025 
Q 375 4125 325 4175 
Q 275 4225 150 4225 
L 50 4225 
L 50 4375 
L 775 4375 
L 1500 1025 
L 1550 1025 
L 2325 4375 
L 3125 4375 
L 3125 4225 
L 3025 4225 
Q 2925 4225 2862 4175 
Q 2800 4125 2800 4025 
L 2800 450 
z
" transform="scale(0.015625)"/>
      <path id="SimSun-46" d="M 2150 2225 
Q 2150 2300 2175 2325 
Q 2175 2350 2200 2425 
Q 2225 2525 2100 2662 
Q 1975 2800 1675 2800 
Q 1300 2800 1037 2437 
Q 775 2075 775 1475 
Q 775 925 1000 587 
Q 1225 250 1750 250 
Q 2100 250 2337 475 
Q 2575 700 2675 1000 
L 2800 950 
Q 2700 575 2425 312 
Q 2150 50 1675 50 
Q 1075 50 725 425 
Q 375 800 375 1500 
Q 375 2125 750 2537 
Q 1125 2950 1725 2950 
Q 2150 2950 2387 2725 
Q 2625 2500 2625 2275 
Q 2625 2125 2562 2062 
Q 2500 2000 2375 2000 
Q 2275 2000 2212 2062 
Q 2150 2125 2150 2225 
z
" transform="scale(0.015625)"/>
      <path id="SimSun-4b" d="M 200 100 
L 200 250 
L 325 250 
Q 450 250 500 300 
Q 550 350 550 450 
L 550 4025 
Q 550 4125 500 4175 
Q 450 4225 325 4225 
L 175 4225 
L 175 4375 
L 450 4375 
Q 550 4375 650 4425 
Q 750 4475 850 4575 
L 900 4575 
L 900 2450 
Q 1125 2725 1362 2837 
Q 1600 2950 1875 2950 
Q 2250 2950 2450 2737 
Q 2650 2525 2650 2075 
L 2650 450 
Q 2650 350 2712 300 
Q 2775 250 2875 250 
L 3000 250 
L 3000 100 
L 1950 100 
L 1950 250 
L 2075 250 
Q 2200 250 2250 300 
Q 2300 350 2300 450 
L 2300 2025 
Q 2300 2450 2162 2587 
Q 2025 2725 1800 2725 
Q 1600 2725 1362 2600 
Q 1125 2475 900 2175 
L 900 450 
Q 900 350 962 300 
Q 1025 250 1125 250 
L 1250 250 
L 1250 100 
L 200 100 
z
" transform="scale(0.015625)"/>
      <path id="SimSun-56" d="M 625 2175 
Q 625 2550 912 2750 
Q 1200 2950 1600 2950 
Q 1825 2950 2025 2900 
Q 2225 2825 2300 2825 
Q 2375 2825 2425 2850 
Q 2475 2875 2550 2950 
L 2650 2125 
L 2500 2100 
Q 2400 2425 2162 2612 
Q 1925 2800 1625 2800 
Q 1300 2800 1112 2675 
Q 925 2550 925 2325 
Q 925 2125 1012 2012 
Q 1100 1900 1325 1850 
Q 1500 1775 1775 1700 
Q 2025 1600 2250 1500 
Q 2450 1400 2587 1237 
Q 2725 1075 2725 875 
Q 2725 500 2462 287 
Q 2200 75 1700 75 
Q 1375 75 1225 150 
Q 1050 200 950 200 
Q 875 200 787 162 
Q 700 125 600 75 
L 525 1000 
L 675 1025 
Q 750 625 1000 425 
Q 1250 225 1700 225 
Q 2050 225 2237 350 
Q 2425 475 2425 725 
Q 2425 900 2325 1012 
Q 2225 1125 2125 1175 
Q 1875 1275 1575 1400 
Q 1275 1500 1050 1600 
Q 825 1700 725 1850 
Q 625 2000 625 2175 
z
" transform="scale(0.015625)"/>
      <path id="SimSun-50" d="M 175 2900 
Q 300 2900 425 2925 
Q 550 2950 625 3000 
L 675 3000 
L 675 2575 
Q 800 2775 950 2862 
Q 1100 2950 1275 2950 
Q 1500 2950 1625 2862 
Q 1750 2775 1775 2575 
Q 1900 2775 2062 2862 
Q 2225 2950 2400 2950 
Q 2700 2950 2812 2775 
Q 2925 2600 2925 2325 
L 2925 425 
Q 2925 325 2975 287 
Q 3025 250 3125 250 
L 3175 250 
L 3175 100 
L 2325 100 
L 2325 250 
L 2375 250 
Q 2475 250 2525 287 
Q 2575 325 2575 425 
L 2575 2300 
Q 2575 2575 2512 2662 
Q 2450 2750 2325 2750 
Q 2150 2750 2012 2625 
Q 1875 2500 1800 2275 
L 1800 425 
Q 1800 325 1850 287 
Q 1900 250 2000 250 
L 2050 250 
L 2050 100 
L 1200 100 
L 1200 250 
L 1250 250 
Q 1350 250 1400 287 
Q 1450 325 1450 425 
L 1450 2300 
Q 1450 2525 1400 2637 
Q 1350 2750 1200 2750 
Q 1025 2750 887 2625 
Q 750 2500 675 2250 
L 675 425 
Q 675 325 725 287 
Q 775 250 875 250 
L 925 250 
L 925 100 
L 75 100 
L 75 250 
L 125 250 
Q 225 250 275 287 
Q 325 325 325 425 
L 325 2600 
Q 325 2675 300 2712 
Q 275 2750 200 2750 
L 100 2750 
L 100 2900 
L 175 2900 
z
" transform="scale(0.015625)"/>
     </defs>
     <use xlink:href="#SimSun-30"/>
     <use xlink:href="#SimSun-48" transform="translate(50 0)"/>
     <use xlink:href="#SimSun-46" transform="translate(100 0)"/>
     <use xlink:href="#SimSun-4b" transform="translate(150 0)"/>
     <use xlink:href="#SimSun-44" transform="translate(200 0)"/>
     <use xlink:href="#SimSun-51" transform="translate(250 0)"/>
     <use xlink:href="#SimSun-4c" transform="translate(300 0)"/>
     <use xlink:href="#SimSun-56" transform="translate(350 0)"/>
     <use xlink:href="#SimSun-50" transform="translate(400 0)"/>
    </g>
   </g>
   <g id="text_4">
    <!-- 可观测结果 -->
    <g transform="translate(274.93248 84.452657) scale(0.08 -0.08)">
     <defs>
      <path id="SimSun-a1f" d="M 300 4575 
L 5225 4575 
L 5600 4950 
L 6125 4425 
L 4925 4425 
L 4925 350 
Q 4950 -300 4375 -525 
Q 4325 -175 3525 50 
L 3525 175 
Q 3900 125 4262 100 
Q 4625 75 4575 450 
L 4575 4425 
L 1125 4425 
Q 800 4425 525 4350 
L 300 4575 
z
M 1200 675 
Q 1225 1550 1225 2212 
Q 1225 2875 1200 3600 
L 1600 3400 
L 2975 3400 
L 3125 3650 
L 3550 3325 
L 3350 3150 
L 3350 2075 
Q 3350 1650 3375 1075 
L 3000 925 
L 3000 1375 
L 1575 1375 
L 1575 800 
L 1200 675 
z
M 1575 3250 
L 1575 1525 
L 3000 1525 
L 3000 3250 
L 1575 3250 
z
" transform="scale(0.015625)"/>
      <path id="SimSun-3ff2" d="M 2375 4100 
Q 2175 2925 1925 2175 
Q 2450 1375 2525 1087 
Q 2600 800 2600 725 
Q 2600 550 2525 437 
Q 2450 325 2425 325 
Q 2350 325 2200 800 
Q 2025 1375 1750 1875 
Q 1275 725 300 -200 
L 250 -100 
Q 1125 975 1550 2150 
Q 1300 2600 625 3475 
L 700 3525 
Q 1325 2900 1675 2475 
Q 1850 2975 2025 4200 
L 1200 4200 
Q 875 4200 600 4125 
L 375 4350 
L 2000 4350 
L 2250 4600 
L 2575 4275 
L 2375 4100 
z
M 5475 4500 
Q 5475 2600 5500 1900 
L 5150 1725 
L 5150 4600 
L 3200 4600 
L 3200 1875 
L 2850 1650 
Q 2875 2375 2875 3250 
Q 2875 4125 2850 4950 
L 3225 4750 
L 5100 4750 
L 5350 5000 
L 5700 4650 
L 5475 4500 
z
M 1525 -525 
Q 2250 -275 2775 112 
Q 3300 500 3550 1087 
Q 3800 1675 3850 2625 
Q 3900 3575 3900 4100 
L 4475 3775 
L 4250 3600 
Q 4225 2050 3987 1312 
Q 3750 575 3225 137 
Q 2700 -300 1550 -625 
L 1525 -525 
z
M 4675 -400 
Q 4250 -400 4250 100 
L 4250 1350 
Q 4250 1725 4225 2100 
L 4750 1825 
L 4575 1650 
L 4575 150 
Q 4575 -100 4850 -100 
L 5300 -100 
Q 5525 -100 5575 175 
Q 5625 450 5650 1125 
L 5775 1125 
Q 5775 500 5837 262 
Q 5900 25 6075 -25 
Q 5900 -400 5525 -400 
L 4675 -400 
z
" transform="scale(0.015625)"/>
      <path id="SimSun-237b" d="M 1975 1000 
Q 2000 1475 2000 2925 
Q 2000 4375 1975 5000 
L 2350 4775 
L 3575 4775 
L 3775 4975 
L 4100 4650 
L 3900 4500 
L 3900 2350 
Q 3900 1850 3925 1350 
L 3600 1200 
L 3600 4625 
L 2325 4625 
L 2325 1150 
L 1975 1000 
z
M 2775 3975 
L 3300 3700 
L 3125 3525 
Q 3150 1825 2875 937 
Q 2600 50 1375 -600 
L 1325 -500 
Q 2200 100 2475 725 
Q 2750 1350 2775 2187 
Q 2800 3025 2775 3975 
z
M 3100 950 
Q 3825 450 3937 262 
Q 4050 75 4050 -25 
Q 4050 -150 3975 -262 
Q 3900 -375 3850 -375 
Q 3750 -375 3650 -75 
Q 3500 375 3050 875 
L 3100 950 
z
M 4475 825 
Q 4500 1200 4500 1700 
L 4500 3400 
Q 4500 3950 4475 4300 
L 5025 4025 
L 4825 3825 
L 4825 1700 
Q 4825 1325 4850 950 
L 4475 825 
z
M 5375 150 
L 5375 4050 
Q 5375 4750 5350 5125 
L 5875 4875 
L 5700 4700 
L 5700 75 
Q 5700 -200 5600 -350 
Q 5500 -500 5200 -600 
Q 5025 -225 4450 -50 
L 4450 50 
Q 5125 -50 5250 -37 
Q 5375 -25 5375 150 
z
M 1850 3500 
Q 1375 1525 1300 1225 
Q 1200 900 1212 450 
Q 1225 0 1250 -175 
Q 1250 -275 1125 -275 
Q 1025 -275 875 -225 
Q 725 -175 725 0 
Q 725 125 800 375 
Q 875 625 875 775 
Q 875 950 762 1050 
Q 650 1150 275 1250 
L 275 1350 
Q 725 1300 837 1312 
Q 950 1325 1087 1537 
Q 1225 1750 1750 3525 
L 1850 3500 
z
M 375 3775 
Q 1075 3350 1112 3100 
Q 1150 2850 1050 2775 
Q 950 2700 900 2700 
Q 800 2700 725 2975 
Q 600 3350 325 3700 
L 375 3775 
z
M 800 5100 
Q 1475 4725 1550 4512 
Q 1625 4300 1525 4187 
Q 1425 4075 1350 4075 
Q 1275 4075 1200 4300 
Q 1075 4650 750 5025 
L 800 5100 
z
" transform="scale(0.015625)"/>
      <path id="SimSun-3503" d="M 4050 3900 
Q 4050 4925 4025 5250 
L 4625 4925 
L 4375 4750 
L 4375 3900 
L 5300 3900 
L 5600 4200 
L 6025 3750 
L 4375 3750 
L 4375 2625 
L 5050 2625 
L 5350 2925 
L 5775 2475 
L 3650 2475 
Q 3325 2475 3050 2400 
L 2825 2625 
L 4050 2625 
L 4050 3750 
L 3425 3750 
Q 3100 3750 2825 3675 
L 2600 3900 
L 4050 3900 
z
M 3025 -600 
Q 3050 -50 3050 675 
Q 3050 1400 3025 1925 
L 3425 1700 
L 5125 1700 
L 5350 1925 
L 5700 1575 
L 5475 1425 
L 5475 400 
Q 5475 -150 5500 -375 
L 5150 -525 
L 5150 -25 
L 3375 -25 
L 3375 -425 
L 3025 -600 
z
M 3375 1550 
L 3375 125 
L 5150 125 
L 5150 1550 
L 3375 1550 
z
M 975 1550 
L 2700 1825 
L 2700 1725 
Q 2400 1650 1750 1462 
Q 1100 1275 800 1050 
L 525 1500 
Q 725 1575 900 1750 
Q 1075 1925 1725 2825 
Q 1425 2775 1150 2712 
Q 875 2650 625 2500 
L 400 2950 
Q 650 2950 987 3662 
Q 1325 4375 1525 5125 
L 2050 4850 
L 1825 4725 
Q 1300 3725 800 2950 
L 1800 2975 
Q 2100 3450 2275 3850 
L 2725 3525 
L 2500 3400 
Q 1800 2475 975 1550 
z
M 650 -250 
L 400 225 
Q 750 275 1237 387 
Q 1725 500 2750 800 
L 2775 700 
Q 925 -25 650 -250 
z
" transform="scale(0.015625)"/>
      <path id="SimSun-1dcc" d="M 1725 4725 
L 1725 3875 
L 3025 3875 
L 3025 4725 
L 1725 4725 
z
M 3400 4725 
L 3400 3875 
L 4725 3875 
L 4725 4725 
L 3400 4725 
z
M 1725 3725 
L 1725 2825 
L 3025 2825 
L 3025 3725 
L 1725 3725 
z
M 3400 3725 
L 3400 2825 
L 4725 2825 
L 4725 3725 
L 3400 3725 
z
M 1350 2300 
Q 1375 3000 1375 3700 
Q 1375 4400 1350 5075 
L 1725 4875 
L 4700 4875 
L 4925 5100 
L 5300 4750 
L 5075 4600 
Q 5075 2850 5100 2500 
L 4725 2325 
L 4725 2675 
L 3400 2675 
L 3400 1950 
L 5100 1950 
L 5475 2325 
L 6000 1800 
L 3450 1800 
Q 4500 450 6025 100 
L 6025 0 
Q 5550 -25 5450 -300 
Q 3950 525 3400 1700 
Q 3400 -50 3425 -425 
L 3000 -625 
Q 3025 350 3025 1650 
Q 2100 325 400 -375 
L 375 -275 
Q 1850 550 2700 1800 
L 1300 1800 
Q 975 1800 700 1725 
L 475 1950 
L 3025 1950 
L 3025 2675 
L 1725 2675 
L 1725 2450 
L 1350 2300 
z
" transform="scale(0.015625)"/>
     </defs>
     <use xlink:href="#SimSun-a1f"/>
     <use xlink:href="#SimSun-3ff2" transform="translate(100 0)"/>
     <use xlink:href="#SimSun-237b" transform="translate(200 0)"/>
     <use xlink:href="#SimSun-3503" transform="translate(300 0)"/>
     <use xlink:href="#SimSun-1dcc" transform="translate(400 0)"/>
    </g>
    <!-- Observable -->
    <g transform="translate(274.93248 93.577657) scale(0.08 -0.08)">
     <defs>
      <path id="SimSun-32" d="M 700 2250 
Q 700 1175 962 687 
Q 1225 200 1625 200 
Q 2050 200 2300 662 
Q 2550 1125 2550 2250 
Q 2550 3150 2337 3700 
Q 2125 4250 1625 4250 
Q 1200 4250 950 3750 
Q 700 3250 700 2250 
z
M 3025 2250 
Q 3025 1225 2625 637 
Q 2225 50 1625 50 
Q 1050 50 637 650 
Q 225 1250 225 2250 
Q 225 3225 612 3825 
Q 1000 4425 1625 4425 
Q 2275 4425 2650 3787 
Q 3025 3150 3025 2250 
z
" transform="scale(0.015625)"/>
      <path id="SimSun-45" d="M 875 2325 
Q 1000 2600 1275 2762 
Q 1550 2925 1800 2925 
Q 2325 2925 2587 2562 
Q 2850 2200 2850 1500 
Q 2850 800 2512 437 
Q 2175 75 1675 75 
Q 1425 75 1212 162 
Q 1000 250 850 400 
L 625 100 
L 525 100 
L 525 4025 
Q 525 4125 475 4175 
Q 425 4225 300 4225 
L 150 4225 
L 150 4375 
L 375 4375 
Q 500 4375 625 4425 
Q 750 4475 875 4575 
L 875 2325 
z
M 875 925 
Q 875 650 1062 450 
Q 1250 250 1625 250 
Q 2075 250 2262 562 
Q 2450 875 2450 1500 
Q 2450 2100 2287 2412 
Q 2125 2725 1775 2725 
Q 1475 2725 1250 2550 
Q 1025 2375 875 1925 
L 875 925 
z
" transform="scale(0.015625)"/>
     </defs>
     <use xlink:href="#SimSun-32"/>
     <use xlink:href="#SimSun-45" transform="translate(50 0)"/>
     <use xlink:href="#SimSun-56" transform="translate(100 0)"/>
     <use xlink:href="#SimSun-48" transform="translate(150 0)"/>
     <use xlink:href="#SimSun-55" transform="translate(200 0)"/>
     <use xlink:href="#SimSun-59" transform="translate(250 0)"/>
     <use xlink:href="#SimSun-44" transform="translate(300 0)"/>
     <use xlink:href="#SimSun-45" transform="translate(350 0)"/>
     <use xlink:href="#SimSun-4f" transform="translate(400 0)"/>
     <use xlink:href="#SimSun-48" transform="translate(450 0)"/>
    </g>
   </g>
   <g id="text_5">
    <!-- 机制机理图 / Mechanism diagram -->
    <g transform="translate(48.061417 45.39685) scale(0.1 -0.1)">
     <defs>
      <path id="SimSun-2a36" d="M 325 575 
Q 1075 775 1350 875 
L 1350 2550 
L 1225 2550 
Q 900 2550 625 2475 
L 400 2700 
L 1350 2700 
L 1350 4225 
L 1175 4225 
Q 850 4225 575 4150 
L 350 4375 
L 1925 4375 
L 2225 4675 
L 2650 4225 
L 1675 4225 
L 1675 2700 
L 1925 2700 
L 2225 3000 
L 2650 2550 
L 1675 2550 
L 1675 975 
L 2700 1325 
L 2725 1225 
Q 1775 800 825 325 
L 625 125 
L 325 575 
z
M 2800 1800 
Q 2825 2600 2825 3350 
Q 2825 4100 2800 4900 
L 3125 4675 
L 5200 4675 
L 5375 4900 
L 5750 4600 
L 5550 4450 
L 5550 3275 
Q 5550 2475 5575 2025 
L 5250 1875 
L 5250 2175 
L 4350 2175 
L 4350 1100 
L 5075 1100 
L 5375 1400 
L 5800 950 
L 4350 950 
L 4350 -75 
L 5400 -75 
L 5725 250 
L 6175 -225 
L 2775 -225 
Q 2450 -225 2175 -300 
L 1950 -75 
L 4050 -75 
L 4050 950 
L 3500 950 
Q 3175 950 2900 875 
L 2675 1100 
L 4050 1100 
L 4050 2175 
L 3125 2175 
L 3125 1925 
L 2800 1800 
z
M 3125 4525 
L 3125 3525 
L 4050 3525 
L 4050 4525 
L 3125 4525 
z
M 4350 4525 
L 4350 3525 
L 5250 3525 
L 5250 4525 
L 4350 4525 
z
M 3125 3375 
L 3125 2325 
L 4050 2325 
L 4050 3375 
L 3125 3375 
z
M 4350 3375 
L 4350 2325 
L 5250 2325 
L 5250 3375 
L 4350 3375 
z
" transform="scale(0.015625)"/>
      <path id="SimSun-d2e" d="M 5675 4700 
L 5675 550 
Q 5675 50 5700 -350 
L 5325 -550 
L 5325 -50 
L 1250 -50 
L 1250 -450 
L 875 -600 
Q 900 -100 900 425 
L 900 4200 
Q 900 4625 875 5150 
L 1250 4925 
L 5275 4925 
L 5450 5175 
L 5850 4850 
L 5675 4700 
z
M 1250 4775 
L 1250 1700 
Q 2425 2200 3075 2825 
Q 2750 3275 2500 3850 
Q 2100 3225 1650 2800 
L 1575 2850 
Q 1975 3375 2250 3937 
Q 2525 4500 2575 4775 
L 1250 4775 
z
M 1250 100 
L 5325 100 
L 5325 4775 
L 2625 4775 
L 3050 4550 
L 2900 4475 
Q 2750 4250 2675 4125 
L 4000 4125 
L 4175 4350 
L 4550 4000 
L 4350 3875 
Q 3925 3275 3475 2775 
Q 4250 2200 5250 2100 
L 5250 2000 
Q 4875 1975 4775 1700 
Q 3900 2025 3250 2600 
Q 2375 1900 1250 1575 
L 1250 100 
z
M 2600 3975 
Q 2950 3350 3275 3000 
Q 3625 3400 3975 3975 
L 2600 3975 
z
M 2750 2050 
Q 3350 1925 3600 1825 
Q 3850 1725 3825 1487 
Q 3800 1250 3725 1250 
Q 3650 1250 3550 1375 
Q 3300 1625 2725 1975 
L 2750 2050 
z
M 2275 1150 
Q 3425 1025 3787 912 
Q 4150 800 4175 525 
Q 4200 250 4075 250 
Q 4000 250 3825 400 
Q 3450 700 2275 1050 
L 2275 1150 
z
" transform="scale(0.015625)"/>
      <path id="SimSun-3" d="M 0 0 
Q 0 0 0 0 
z
" transform="scale(0.015625)"/>
      <path id="SimSun-12" d="M 400 -475 
L 225 -375 
L 2775 4975 
L 2950 4875 
L 400 -475 
z
" transform="scale(0.015625)"/>
      <path id="SimSun-47" d="M 2300 2350 
Q 2175 2550 1975 2637 
Q 1775 2725 1575 2725 
Q 1200 2725 987 2375 
Q 775 2025 775 1450 
Q 775 850 975 562 
Q 1175 275 1550 275 
Q 1825 275 2012 450 
Q 2200 625 2300 975 
L 2300 2350 
z
M 1475 75 
Q 1025 75 700 437 
Q 375 800 375 1500 
Q 375 2150 725 2537 
Q 1075 2925 1550 2925 
Q 1750 2925 1962 2837 
Q 2175 2750 2300 2575 
L 2300 3925 
Q 2300 4075 2250 4150 
Q 2200 4225 2075 4225 
L 1875 4225 
L 1875 4375 
L 2150 4375 
Q 2275 4375 2400 4425 
Q 2525 4475 2650 4575 
L 2650 625 
Q 2650 500 2700 450 
Q 2750 400 2850 400 
L 3025 400 
L 3025 250 
L 2875 250 
Q 2775 250 2637 212 
Q 2500 175 2350 100 
L 2300 100 
L 2300 575 
Q 2175 350 1962 212 
Q 1750 75 1475 75 
z
" transform="scale(0.015625)"/>
      <path id="SimSun-4a" d="M 875 1975 
Q 875 1675 1050 1462 
Q 1225 1250 1525 1250 
Q 1850 1250 2012 1437 
Q 2175 1625 2175 1975 
Q 2175 2400 1987 2587 
Q 1800 2775 1525 2775 
Q 1250 2775 1062 2587 
Q 875 2400 875 1975 
z
M 2100 625 
Q 2475 575 2650 412 
Q 2825 250 2825 -25 
Q 2825 -400 2512 -625 
Q 2200 -850 1525 -850 
Q 1000 -850 675 -637 
Q 350 -425 350 -150 
Q 350 25 475 200 
Q 600 375 875 475 
Q 725 550 637 637 
Q 550 725 550 850 
Q 550 1000 650 1112 
Q 750 1225 900 1300 
Q 750 1425 637 1600 
Q 525 1775 525 1975 
Q 525 2350 787 2637 
Q 1050 2925 1525 2925 
Q 1725 2925 1912 2875 
Q 2100 2825 2225 2700 
Q 2400 2825 2537 2887 
Q 2675 2950 2775 2950 
Q 2900 2950 2950 2862 
Q 3000 2775 3000 2700 
Q 3000 2600 2962 2537 
Q 2925 2475 2825 2475 
Q 2750 2475 2700 2512 
Q 2650 2550 2625 2625 
Q 2600 2700 2512 2687 
Q 2425 2675 2325 2600 
Q 2425 2500 2475 2325 
Q 2525 2150 2525 1975 
Q 2525 1675 2287 1387 
Q 2050 1100 1525 1100 
Q 1375 1100 1250 1137 
Q 1125 1175 1050 1225 
Q 950 1175 900 1100 
Q 850 1025 850 975 
Q 850 875 900 825 
Q 950 775 1050 775 
Q 1375 725 1637 687 
Q 1900 650 2100 625 
z
M 1075 425 
Q 850 325 762 187 
Q 675 50 675 -150 
Q 675 -350 900 -525 
Q 1125 -700 1575 -700 
Q 2000 -700 2250 -562 
Q 2500 -425 2500 -150 
Q 2500 25 2437 125 
Q 2375 225 2250 250 
Q 2000 300 1700 350 
Q 1400 375 1075 425 
z
" transform="scale(0.015625)"/>
     </defs>
     <use xlink:href="#SimSun-1d6a"/>
     <use xlink:href="#SimSun-866" transform="translate(100 0)"/>
     <use xlink:href="#SimSun-1d6a" transform="translate(200 0)"/>
     <use xlink:href="#SimSun-2a36" transform="translate(300 0)"/>
     <use xlink:href="#SimSun-d2e" transform="translate(400 0)"/>
     <use xlink:href="#SimSun-3" transform="translate(500 0)"/>
     <use xlink:href="#SimSun-12" transform="translate(550 0)"/>
     <use xlink:href="#SimSun-3" transform="translate(600 0)"/>
     <use xlink:href="#SimSun-30" transform="translate(650 0)"/>
     <use xlink:href="#SimSun-48" transform="translate(700 0)"/>
     <use xlink:href="#SimSun-46" transform="translate(750 0)"/>
     <use xlink:href="#SimSun-4b" transform="translate(800 0)"/>
     <use xlink:href="#SimSun-44" transform="translate(850 0)"/>
     <use xlink:href="#SimSun-51" transform="translate(900 0)"/>
     <use xlink:href="#SimSun-4c" transform="translate(950 0)"/>
     <use xlink:href="#SimSun-56" transform="translate(1000 0)"/>
     <use xlink:href="#SimSun-50" transform="translate(1050 0)"/>
     <use xlink:href="#SimSun-3" transform="translate(1100 0)"/>
     <use xlink:href="#SimSun-47" transform="translate(1150 0)"/>
     <use xlink:href="#SimSun-4c" transform="translate(1200 0)"/>
     <use xlink:href="#SimSun-44" transform="translate(1250 0)"/>
     <use xlink:href="#SimSun-4a" transform="translate(1300 0)"/>
     <use xlink:href="#SimSun-55" transform="translate(1350 0)"/>
     <use xlink:href="#SimSun-44" transform="translate(1400 0)"/>
     <use xlink:href="#SimSun-50" transform="translate(1450 0)"/>
    </g>
   </g>
   <g id="text_6">
    <!-- 每个箭头必须代表因果、传热、传质、信号或时序 -->
    <g transform="translate(129.784252 121.790551) scale(0.08 -0.08)">
     <defs>
      <path id="SimSun-21ff" d="M 2375 4950 
L 2175 4850 
Q 2025 4650 1900 4475 
L 4875 4475 
L 5250 4850 
L 5775 4325 
L 1825 4325 
Q 1500 3900 1175 3562 
Q 850 3225 325 2900 
L 275 2975 
Q 750 3375 1200 4037 
Q 1650 4700 1825 5275 
L 2375 4950 
z
M 1300 775 
L 1475 2075 
L 825 2075 
L 450 2025 
L 250 2225 
L 1500 2225 
L 1650 3825 
L 2000 3600 
L 4600 3600 
L 4800 3875 
L 5225 3550 
L 5000 3375 
L 4950 2225 
L 5275 2225 
L 5625 2575 
L 6125 2075 
L 4950 2075 
L 4875 675 
L 5150 675 
L 5500 1025 
L 6000 525 
L 4850 525 
Q 4800 -50 4675 -300 
Q 4550 -550 4075 -650 
Q 4100 -350 3425 -100 
L 3425 25 
Q 4050 -125 4237 -125 
Q 4425 -125 4475 525 
L 1650 525 
L 1450 300 
L 1100 625 
L 1300 775 
z
M 1975 3450 
L 1850 2225 
L 4600 2225 
L 4650 3450 
L 1975 3450 
z
M 1825 2075 
L 1650 675 
L 4500 675 
L 4575 2075 
L 1825 2075 
z
M 2725 3350 
Q 3225 3150 3412 3025 
Q 3600 2900 3600 2725 
Q 3600 2600 3525 2450 
Q 3450 2300 3425 2300 
Q 3350 2300 3250 2525 
Q 3100 2875 2675 3275 
L 2725 3350 
z
M 2675 1950 
Q 3275 1675 3412 1525 
Q 3550 1375 3550 1250 
Q 3550 1100 3462 950 
Q 3375 800 3325 800 
Q 3250 800 3175 1050 
Q 3050 1425 2625 1875 
L 2675 1950 
z
" transform="scale(0.015625)"/>
      <path id="SimSun-45a" d="M 2975 -650 
Q 3000 350 3000 750 
L 3000 2400 
Q 3000 2850 2975 3475 
L 3575 3150 
L 3375 3000 
L 3375 500 
Q 3375 75 3400 -400 
L 2975 -650 
z
M 3525 4975 
L 3300 4825 
Q 3975 3800 4712 3287 
Q 5450 2775 6125 2675 
L 6125 2575 
Q 5725 2550 5550 2250 
Q 4800 2650 4275 3200 
Q 3750 3750 3225 4675 
Q 2650 3675 2000 3075 
Q 1350 2475 275 2025 
L 250 2125 
Q 1325 2650 2037 3575 
Q 2750 4500 3000 5275 
L 3525 4975 
z
" transform="scale(0.015625)"/>
      <path id="SimSun-31dd" d="M 1875 3800 
Q 2300 3600 2425 3475 
Q 2550 3350 2500 3225 
Q 2450 3100 2387 3050 
Q 2325 3000 2300 3000 
Q 2225 3000 2175 3175 
Q 2100 3400 1825 3750 
L 1875 3800 
z
M 4400 3550 
L 4175 3475 
Q 3900 3175 3750 2950 
L 5225 2950 
L 5600 3300 
L 6100 2800 
L 1125 2800 
Q 800 2800 525 2725 
L 300 2950 
L 3600 2950 
Q 3725 3225 3800 3437 
Q 3875 3650 3925 3875 
L 4400 3550 
z
M 1950 -100 
Q 2500 -150 2587 -137 
Q 2675 -125 2675 0 
L 2675 575 
L 1450 575 
L 1450 -450 
L 1100 -600 
Q 1125 450 1125 1250 
Q 1125 2050 1100 2500 
L 1500 2250 
L 2650 2250 
L 2900 2500 
L 3225 2175 
L 3000 2025 
L 3000 -50 
Q 3000 -225 2937 -350 
Q 2875 -475 2575 -625 
Q 2450 -325 1950 -200 
L 1950 -100 
z
M 1450 2100 
L 1450 1500 
L 2675 1500 
L 2675 2100 
L 1450 2100 
z
M 1450 1350 
L 1450 725 
L 2675 725 
L 2675 1350 
L 1450 1350 
z
M 4125 1900 
Q 4125 525 4150 350 
L 3775 150 
Q 3800 875 3800 1450 
Q 3800 2025 3775 2350 
L 4300 2050 
L 4125 1900 
z
M 4100 -25 
Q 4750 -125 4837 -100 
Q 4925 -75 4925 100 
Q 4925 2200 4900 2575 
L 5475 2275 
L 5250 2100 
L 5250 75 
Q 5250 -175 5187 -337 
Q 5125 -500 4800 -625 
Q 4675 -300 4100 -125 
L 4100 -25 
z
M 2100 4350 
Q 2525 4150 2587 4037 
Q 2650 3925 2650 3850 
Q 2650 3750 2575 3662 
Q 2500 3575 2437 3587 
Q 2375 3600 2325 3775 
Q 2275 3950 2175 4100 
Q 2075 4250 1975 4350 
L 1525 4350 
Q 1425 4250 1250 4000 
Q 1050 3750 575 3325 
L 500 3400 
Q 775 3725 950 3987 
Q 1125 4250 1287 4600 
Q 1450 4950 1550 5225 
L 2075 4900 
L 1850 4825 
L 1600 4500 
L 2550 4500 
L 2900 4800 
L 3325 4350 
L 2100 4350 
z
M 4250 4950 
L 4025 4825 
L 3850 4550 
L 5025 4550 
L 5400 4875 
L 5850 4400 
L 4350 4400 
Q 4800 4175 4862 4062 
Q 4925 3950 4925 3875 
Q 4925 3775 4862 3662 
Q 4800 3550 4725 3562 
Q 4650 3575 4600 3750 
Q 4550 3925 4462 4075 
Q 4375 4225 4225 4400 
L 3775 4400 
Q 3475 3950 3050 3525 
L 2975 3575 
Q 3325 4125 3487 4500 
Q 3650 4875 3750 5250 
L 4250 4950 
z
" transform="scale(0.015625)"/>
      <path id="SimSun-f64" d="M 1500 4750 
Q 2375 4475 2550 4312 
Q 2725 4150 2725 3975 
Q 2725 3900 2662 3737 
Q 2600 3575 2525 3575 
Q 2450 3575 2325 3800 
Q 2125 4150 1450 4675 
L 1500 4750 
z
M 925 3550 
Q 1875 3200 2000 3037 
Q 2125 2875 2125 2725 
Q 2125 2600 2062 2462 
Q 2000 2325 1950 2325 
Q 1850 2325 1725 2575 
Q 1500 2950 875 3475 
L 925 3550 
z
M 3950 4875 
L 3700 4700 
Q 3675 3875 3650 3312 
Q 3625 2750 3550 1925 
L 5025 1925 
L 5450 2350 
L 6025 1775 
L 3525 1775 
Q 3475 1575 3375 1325 
Q 4650 800 5225 512 
Q 5800 225 5787 -137 
Q 5775 -500 5650 -500 
Q 5550 -500 5325 -225 
Q 4875 325 3325 1200 
Q 2900 375 2125 -25 
Q 1350 -425 375 -650 
L 350 -550 
Q 1425 -225 2150 300 
Q 2875 825 3150 1775 
L 1200 1775 
Q 875 1775 600 1700 
L 375 1925 
L 3175 1925 
Q 3275 2750 3287 3712 
Q 3300 4675 3300 5200 
L 3950 4875 
z
" transform="scale(0.015625)"/>
      <path id="SimSun-15f5" d="M 1975 550 
L 1975 2850 
Q 1975 3550 1950 4100 
L 2550 3825 
L 2325 3650 
L 2325 775 
Q 2775 1200 3262 1912 
Q 3750 2625 4112 3475 
Q 4475 4325 4575 4825 
L 5125 4500 
L 4900 4375 
Q 4450 3225 3812 2150 
Q 3175 1075 2325 450 
Q 2325 275 2625 275 
L 4225 275 
Q 4400 250 4512 362 
Q 4625 475 4675 1550 
L 4800 1550 
Q 4825 825 4887 637 
Q 4950 450 5150 325 
Q 4925 -125 4350 -75 
L 2525 -75 
Q 2000 -100 2000 275 
Q 1325 -75 375 -300 
L 350 -200 
Q 1475 200 1975 550 
z
M 1100 3200 
L 1200 3200 
Q 1225 2275 1187 1900 
Q 1150 1525 1000 1425 
Q 850 1325 750 1325 
Q 650 1325 587 1387 
Q 525 1450 525 1500 
Q 525 1625 725 1875 
Q 1000 2200 1100 3200 
z
M 2375 5000 
L 2450 5050 
Q 3225 4525 3400 4300 
Q 3575 4075 3575 3925 
Q 3575 3875 3512 3737 
Q 3450 3600 3337 3587 
Q 3225 3575 3100 3950 
Q 2950 4325 2375 5000 
z
M 4850 3025 
L 4925 3075 
Q 5625 2350 5750 2125 
Q 5875 1900 5875 1750 
Q 5875 1675 5837 1550 
Q 5800 1425 5662 1350 
Q 5525 1275 5425 1750 
Q 5325 2200 4850 3025 
z
" transform="scale(0.015625)"/>
      <path id="SimSun-4eab" d="M 2425 1825 
L 2850 1400 
Q 2675 1425 2000 825 
Q 1300 200 400 -150 
L 350 -75 
Q 1150 400 1687 937 
Q 2225 1475 2425 1825 
z
M 2000 5050 
L 2425 4675 
Q 2275 4725 1800 4225 
Q 1300 3700 400 3200 
L 350 3275 
Q 1000 3750 1400 4200 
Q 1800 4650 2000 5050 
z
M 2200 3625 
L 2625 3225 
Q 2425 3225 1850 2650 
Q 1250 2050 425 1675 
L 375 1750 
Q 1075 2225 1550 2750 
Q 2025 3275 2200 3625 
z
M 2975 825 
Q 3000 1475 3000 2337 
Q 3000 3200 2975 3950 
L 3325 3750 
L 3875 3750 
Q 4000 4450 4000 4725 
L 3325 4725 
Q 3075 4725 2800 4650 
L 2575 4875 
L 5300 4875 
L 5650 5200 
L 6075 4725 
L 4475 4725 
Q 4300 4475 4025 3750 
L 5300 3750 
L 5475 4000 
L 5850 3700 
L 5650 3525 
L 5650 2000 
Q 5650 1575 5675 1125 
L 5325 925 
L 5325 3600 
L 3325 3600 
L 3325 1050 
L 2975 825 
z
M 4700 2900 
L 4475 2725 
Q 4475 1275 4287 800 
Q 4100 325 3637 -12 
Q 3175 -350 2200 -625 
L 2150 -550 
Q 3350 -50 3687 400 
Q 4025 850 4087 1587 
Q 4150 2325 4100 3175 
L 4700 2900 
z
M 4500 950 
Q 5525 400 5737 225 
Q 5950 50 5950 -175 
Q 5950 -275 5912 -412 
Q 5875 -550 5825 -550 
Q 5750 -550 5650 -400 
Q 5450 -100 5212 162 
Q 4975 425 4450 875 
L 4500 950 
z
" transform="scale(0.015625)"/>
      <path id="SimSun-513" d="M 5550 -75 
L 5875 1025 
L 5975 1025 
Q 5875 175 5912 -75 
Q 5950 -325 6025 -525 
Q 6075 -650 5950 -650 
Q 5900 -650 5662 -587 
Q 5425 -525 4925 -150 
Q 4425 225 4100 850 
Q 3775 1475 3600 2975 
L 2575 2925 
L 2350 2850 
L 2100 3050 
L 3575 3125 
Q 3525 3750 3500 4175 
Q 3475 4600 3450 5075 
L 4050 4775 
L 3850 4600 
Q 3875 3625 3925 3150 
L 5150 3225 
L 5475 3550 
L 5975 3125 
L 3950 3000 
Q 4100 1525 4550 862 
Q 5000 200 5550 -75 
z
M 4475 4700 
L 4500 4800 
Q 5450 4475 5537 4300 
Q 5625 4125 5625 4050 
Q 5625 3950 5550 3837 
Q 5475 3725 5425 3725 
Q 5325 3725 5225 3950 
Q 5025 4275 4475 4700 
z
M 1800 3100 
L 1800 400 
Q 1800 0 1825 -475 
L 1425 -650 
Q 1450 -25 1450 375 
L 1450 3125 
Q 850 2175 300 1675 
L 225 1750 
Q 550 2175 837 2662 
Q 1125 3150 1412 3787 
Q 1700 4425 1925 5250 
L 2475 4900 
Q 2275 4800 2050 4350 
Q 1825 3875 1625 3500 
L 1975 3275 
L 1800 3100 
z
" transform="scale(0.015625)"/>
      <path id="SimSun-3e98" d="M 2300 -25 
L 3600 525 
L 3650 425 
Q 2550 -225 2100 -600 
L 1800 -200 
Q 1925 -100 1925 200 
L 1925 1175 
Q 1225 675 250 375 
L 225 475 
Q 1125 875 1725 1375 
Q 2325 1875 2775 2500 
L 1150 2500 
Q 825 2500 550 2425 
L 325 2650 
L 2925 2650 
L 2925 3375 
L 1950 3375 
Q 1625 3375 1350 3300 
L 1125 3525 
L 2925 3525 
L 2925 4200 
L 1525 4200 
Q 1200 4200 925 4125 
L 700 4350 
L 2925 4350 
Q 2925 4825 2900 5225 
L 3475 4975 
L 3275 4800 
L 3275 4350 
L 4900 4350 
L 5250 4700 
L 5725 4200 
L 3275 4200 
L 3275 3525 
L 4550 3525 
L 4875 3850 
L 5325 3375 
L 3275 3375 
L 3275 2650 
L 5150 2650 
L 5525 3025 
L 6025 2500 
L 3250 2500 
Q 3500 1850 3875 1300 
Q 4600 1875 4925 2375 
L 5350 1950 
L 5100 1925 
Q 4450 1525 3950 1200 
Q 4350 725 4850 462 
Q 5350 200 6100 125 
L 6100 25 
Q 5700 -25 5525 -325 
Q 4800 -50 4162 550 
Q 3525 1150 3125 2375 
Q 2775 1900 2300 1450 
L 2300 -25 
z
" transform="scale(0.015625)"/>
      <path id="SimSun-1c3" d="M 1675 325 
Q 1450 850 700 1300 
L 725 1375 
Q 1300 1250 1612 1062 
Q 1925 875 2062 725 
Q 2200 575 2237 325 
Q 2275 75 2162 -12 
Q 2050 -100 2000 -100 
Q 1850 -100 1675 325 
z
" transform="scale(0.015625)"/>
      <path id="SimSun-550" d="M 3700 2500 
Q 3600 2075 3500 1625 
L 4925 1625 
L 5175 1900 
L 5650 1450 
Q 5375 1450 5025 1100 
Q 4675 750 4250 275 
Q 4825 50 4962 -112 
Q 5100 -275 5100 -400 
Q 5100 -450 5062 -562 
Q 5025 -675 4950 -675 
Q 4875 -675 4775 -550 
Q 4550 -325 4075 -12 
Q 3600 300 2975 600 
L 3000 700 
Q 3800 450 4125 325 
L 4925 1475 
L 3500 1475 
L 3300 1250 
L 2950 1575 
L 3150 1725 
Q 3250 2025 3350 2500 
L 2825 2500 
Q 2500 2500 2225 2425 
L 2000 2650 
L 3375 2650 
Q 3475 3150 3575 3650 
L 3100 3650 
Q 2775 3650 2500 3575 
L 2275 3800 
L 3600 3800 
Q 3750 4525 3800 5200 
L 4375 4925 
L 4150 4750 
Q 4050 4300 3950 3800 
L 5075 3800 
L 5350 4075 
L 5775 3650 
L 3925 3650 
Q 3825 3200 3725 2650 
L 5325 2650 
L 5625 2950 
L 6075 2500 
L 3700 2500 
z
M 1775 3175 
L 1775 700 
Q 1775 400 1800 -475 
L 1375 -625 
Q 1400 250 1400 650 
L 1400 3125 
Q 775 2150 275 1675 
L 200 1750 
Q 625 2275 1100 3175 
Q 1575 4075 1875 5200 
L 2425 4850 
Q 2225 4750 2100 4475 
Q 1950 4175 1650 3550 
L 2000 3350 
L 1775 3175 
z
" transform="scale(0.015625)"/>
      <path id="SimSun-271d" d="M 2950 3900 
L 3650 3925 
Q 3650 4800 3625 5175 
L 4200 4925 
L 4000 4750 
Q 3975 4075 3975 3950 
L 4725 3975 
L 4875 4225 
L 5250 3925 
L 5050 3775 
Q 4975 3250 4975 2925 
Q 4975 2500 5112 2100 
Q 5250 1700 5550 1550 
Q 5675 2175 5775 2525 
L 5875 2525 
Q 5825 2050 5837 1737 
Q 5850 1425 5950 1200 
Q 6025 1050 5875 1050 
Q 5825 1050 5512 1150 
Q 5200 1250 4962 1675 
Q 4725 2100 4700 2437 
Q 4675 2775 4675 2950 
Q 4675 3350 4725 3825 
L 3975 3800 
Q 3950 3025 3825 2575 
Q 4325 2200 4375 2037 
Q 4425 1875 4425 1825 
Q 4425 1750 4375 1625 
Q 4325 1500 4275 1500 
Q 4225 1500 4125 1700 
Q 3975 2000 3700 2325 
Q 3175 1425 2425 1025 
L 2375 1100 
Q 3125 1700 3450 2525 
Q 3225 2750 2975 2950 
L 3025 3025 
Q 3375 2850 3525 2725 
Q 3625 3225 3650 3775 
L 3250 3750 
L 3150 3675 
L 2950 3900 
z
M 4775 875 
L 4850 925 
Q 5450 500 5562 325 
Q 5675 150 5675 25 
Q 5675 -150 5575 -287 
Q 5475 -425 5425 -425 
Q 5350 -425 5300 -150 
Q 5225 250 4775 875 
z
M 1725 3925 
Q 1725 4900 1700 5225 
L 2250 5000 
L 2050 4825 
L 2050 3925 
L 2350 3925 
L 2625 4200 
L 3000 3775 
L 2050 3775 
L 2050 2900 
Q 2350 3000 2900 3175 
L 2925 3075 
Q 2350 2825 2050 2675 
L 2050 1625 
Q 2075 1150 1550 950 
Q 1525 1275 950 1450 
L 950 1550 
Q 1400 1500 1562 1500 
Q 1725 1500 1725 1675 
L 1725 2550 
Q 825 2200 675 2000 
L 375 2450 
Q 750 2500 1725 2800 
L 1725 3775 
L 1400 3775 
Q 1075 3775 800 3700 
L 575 3925 
L 1725 3925 
z
M 1225 875 
L 1325 875 
Q 1325 50 1175 -200 
Q 1025 -450 812 -400 
Q 600 -350 600 -250 
Q 600 -175 725 -75 
Q 975 175 1225 875 
z
M 2275 825 
Q 2750 375 2825 125 
Q 2900 -125 2750 -262 
Q 2600 -400 2550 -400 
Q 2450 -400 2425 -100 
Q 2400 325 2175 800 
L 2275 825 
z
M 3525 875 
Q 4050 450 4125 287 
Q 4200 125 4200 50 
Q 4200 -100 4087 -225 
Q 3975 -350 3950 -350 
Q 3850 -350 3800 -50 
Q 3725 400 3450 825 
L 3525 875 
z
" transform="scale(0.015625)"/>
      <path id="SimSun-4358" d="M 275 -425 
Q 1175 1025 1125 3000 
Q 1125 4250 1100 4750 
L 1450 4525 
Q 2950 4650 3825 4837 
Q 4700 5025 4975 5200 
L 5400 4775 
Q 4600 4700 3750 4600 
Q 2875 4500 1450 4400 
L 1450 2750 
Q 1525 850 325 -475 
L 275 -425 
z
M 3400 3650 
Q 3400 4050 3375 4425 
L 3900 4200 
L 3725 4050 
L 3725 3650 
L 4925 3650 
L 5250 3950 
L 5675 3500 
L 3725 3500 
L 3725 2800 
L 4750 2800 
L 4925 3050 
L 5325 2750 
L 5125 2575 
Q 5125 1300 5150 850 
L 4800 675 
L 4800 2650 
L 2400 2650 
L 2400 725 
L 2050 575 
Q 2075 1325 2075 1912 
Q 2075 2500 2050 3000 
L 2400 2800 
L 3400 2800 
L 3400 3500 
L 2350 3500 
Q 2075 3500 1800 3425 
L 1575 3650 
L 3400 3650 
z
M 1225 -550 
Q 1800 -350 2337 -12 
Q 2875 325 3100 762 
Q 3325 1200 3350 1637 
Q 3375 2075 3375 2400 
L 3925 2125 
L 3725 1950 
Q 3675 800 3112 250 
Q 2550 -300 1250 -625 
L 1225 -550 
z
M 3625 725 
Q 4750 425 5125 262 
Q 5500 100 5525 -37 
Q 5550 -175 5550 -250 
Q 5550 -375 5512 -462 
Q 5475 -550 5450 -550 
Q 5375 -550 5250 -425 
Q 5050 -200 4700 37 
Q 4350 275 3600 625 
L 3625 725 
z
" transform="scale(0.015625)"/>
      <path id="SimSun-611" d="M 3425 5125 
L 3500 5200 
Q 4000 4900 4125 4737 
Q 4250 4575 4250 4500 
Q 4250 4350 4050 4150 
L 5200 4150 
L 5500 4450 
L 5950 4000 
L 2850 4000 
Q 2525 4000 2250 3925 
L 2025 4150 
L 3850 4150 
Q 3850 4625 3425 5125 
z
M 3000 1300 
L 3000 150 
L 5050 150 
L 5050 1300 
L 3000 1300 
z
M 2475 3250 
L 4875 3250 
L 5175 3550 
L 5625 3100 
L 3225 3100 
Q 2975 3100 2700 3025 
L 2475 3250 
z
M 2425 2325 
L 4900 2325 
L 5200 2625 
L 5650 2175 
L 3250 2175 
Q 2925 2175 2650 2100 
L 2425 2325 
z
M 2650 1675 
L 3000 1450 
L 5000 1450 
L 5225 1700 
L 5575 1400 
L 5375 1250 
L 5375 50 
Q 5375 -200 5400 -325 
L 5050 -475 
L 5050 0 
L 3000 0 
L 3000 -350 
L 2650 -500 
Q 2675 -100 2675 500 
Q 2675 1100 2650 1675 
z
M 1550 3150 
L 1550 -525 
L 1200 -650 
Q 1225 -150 1225 200 
L 1225 3025 
Q 750 2325 300 1900 
L 250 1975 
Q 900 2875 1300 3862 
Q 1700 4850 1775 5225 
L 2275 4925 
L 2075 4800 
Q 1675 3925 1450 3475 
L 1750 3300 
L 1550 3150 
z
" transform="scale(0.015625)"/>
      <path id="SimSun-a27" d="M 4800 4675 
Q 4800 3550 4825 3225 
L 4450 3075 
L 4450 3325 
L 1950 3325 
L 1950 3100 
L 1575 2975 
Q 1600 3475 1600 4037 
Q 1600 4600 1575 5100 
L 1950 4900 
L 4425 4900 
L 4650 5150 
L 5000 4850 
L 4800 4675 
z
M 1950 4750 
L 1950 3475 
L 4450 3475 
L 4450 4750 
L 1950 4750 
z
M 4950 1375 
Q 4725 75 4550 -125 
Q 4375 -325 4200 -412 
Q 4025 -500 3625 -600 
Q 3575 -225 2850 75 
L 2875 175 
Q 3550 -25 3875 -25 
Q 4000 -25 4187 50 
Q 4375 125 4575 1500 
L 2275 1500 
L 2050 1300 
L 1750 1650 
Q 1925 1750 2037 1975 
Q 2150 2200 2250 2550 
L 825 2550 
L 600 2500 
L 400 2700 
L 5225 2700 
L 5550 3025 
L 6000 2550 
L 2675 2550 
L 2325 1650 
L 4550 1650 
L 4825 1925 
L 5200 1550 
L 4950 1375 
z
" transform="scale(0.015625)"/>
      <path id="SimSun-1846" d="M 2900 2850 
Q 2900 1850 2925 1425 
L 2550 1275 
L 2550 1575 
L 1300 1575 
L 1300 1275 
L 925 1100 
Q 950 1675 950 2225 
Q 950 2775 925 3300 
L 1350 3100 
L 2500 3100 
L 2725 3350 
L 3075 3000 
L 2900 2850 
z
M 1300 2950 
L 1300 1725 
L 2550 1725 
L 2550 2950 
L 1300 2950 
z
M 4450 5175 
Q 5050 4950 5175 4825 
Q 5300 4700 5300 4600 
Q 5300 4500 5225 4387 
Q 5150 4275 5100 4275 
Q 5025 4275 4925 4475 
Q 4750 4750 4400 5100 
L 4450 5175 
z
M 5950 1125 
Q 5925 725 5925 450 
Q 5925 175 5962 -25 
Q 6000 -225 6075 -425 
Q 6100 -500 6025 -500 
Q 5925 -500 5412 -275 
Q 4900 -50 4275 775 
Q 3475 25 2275 -525 
L 2225 -425 
Q 3425 250 4100 1100 
Q 3650 1925 3575 3900 
L 1250 3900 
Q 925 3900 650 3825 
L 425 4050 
L 3550 4050 
Q 3550 4575 3525 5175 
L 4150 4900 
L 3925 4700 
L 3925 4050 
L 5200 4050 
L 5550 4400 
L 6050 3900 
L 3950 3900 
Q 4025 2125 4350 1425 
Q 4550 1725 4737 2212 
Q 4925 2700 5075 3325 
L 5650 2925 
L 5400 2775 
Q 4950 1675 4550 1050 
Q 4925 500 5625 50 
L 5850 1125 
L 5950 1125 
z
M 325 450 
Q 850 475 3525 950 
L 3550 850 
Q 750 125 575 -100 
L 325 450 
z
" transform="scale(0.015625)"/>
      <path id="SimSun-1c26" d="M 4500 3600 
Q 4500 4575 4475 5225 
L 5100 4900 
L 4850 4725 
L 4850 3600 
L 5225 3600 
L 5550 3925 
L 6025 3450 
L 4850 3450 
L 4850 100 
Q 4850 -375 4300 -575 
Q 4275 -200 3475 -25 
L 3475 100 
Q 4150 0 4325 25 
Q 4500 50 4500 325 
L 4500 3450 
L 3200 3450 
Q 2875 3450 2600 3375 
L 2375 3600 
L 4500 3600 
z
M 2875 2825 
Q 3525 2375 3637 2200 
Q 3750 2025 3750 1925 
Q 3750 1800 3637 1637 
Q 3525 1475 3475 1475 
Q 3400 1475 3325 1775 
Q 3200 2225 2800 2750 
L 2875 2825 
z
M 925 4150 
L 925 2650 
L 1950 2650 
L 1950 4150 
L 925 4150 
z
M 925 2500 
L 925 900 
L 1950 900 
L 1950 2500 
L 925 2500 
z
M 2300 2000 
Q 2300 800 2325 450 
L 1950 250 
L 1950 750 
L 925 750 
L 925 225 
L 550 25 
Q 575 825 575 2425 
Q 575 4025 550 4500 
L 950 4300 
L 1900 4300 
L 2100 4550 
L 2500 4225 
L 2300 4050 
L 2300 2000 
z
" transform="scale(0.015625)"/>
      <path id="SimSun-14bf" d="M 1000 4575 
L 1375 4350 
L 5050 4350 
L 5425 4725 
L 5950 4200 
L 1375 4200 
Q 1375 3225 1350 2462 
Q 1325 1700 1112 962 
Q 900 225 300 -575 
L 225 -525 
Q 725 350 862 1087 
Q 1000 1825 1012 2687 
Q 1025 3550 1000 4575 
z
M 3000 5225 
Q 3450 5075 3625 4937 
Q 3800 4800 3762 4637 
Q 3725 4475 3612 4400 
Q 3500 4325 3400 4600 
Q 3275 4875 2950 5150 
L 3000 5225 
z
M 2675 0 
Q 3100 -50 3325 -50 
Q 3550 -50 3575 225 
L 3575 2050 
L 2325 2050 
Q 2000 2050 1725 1975 
L 1500 2200 
L 3625 2200 
Q 3625 2400 3400 2637 
Q 3175 2875 2925 3075 
L 2975 3150 
Q 3325 3050 3775 2800 
L 4750 3550 
L 2725 3550 
Q 2400 3550 2125 3475 
L 1900 3700 
L 4775 3700 
L 5050 3950 
L 5475 3425 
Q 5200 3425 4837 3262 
Q 4475 3100 3875 2725 
Q 4000 2575 3975 2450 
Q 3950 2325 3825 2200 
L 5325 2200 
L 5550 2475 
L 6025 2000 
Q 5600 2000 5100 1350 
L 5000 1400 
L 5350 2050 
L 3900 2050 
L 3900 125 
Q 3900 -375 3400 -600 
Q 3325 -275 2675 -125 
L 2675 0 
z
" transform="scale(0.015625)"/>
     </defs>
     <use xlink:href="#SimSun-21ff"/>
     <use xlink:href="#SimSun-45a" transform="translate(100 0)"/>
     <use xlink:href="#SimSun-31dd" transform="translate(200 0)"/>
     <use xlink:href="#SimSun-f64" transform="translate(300 0)"/>
     <use xlink:href="#SimSun-15f5" transform="translate(400 0)"/>
     <use xlink:href="#SimSun-4eab" transform="translate(500 0)"/>
     <use xlink:href="#SimSun-513" transform="translate(600 0)"/>
     <use xlink:href="#SimSun-3e98" transform="translate(700 0)"/>
     <use xlink:href="#SimSun-d10" transform="translate(800 0)"/>
     <use xlink:href="#SimSun-1dcc" transform="translate(900 0)"/>
     <use xlink:href="#SimSun-1c3" transform="translate(1000 0)"/>
     <use xlink:href="#SimSun-550" transform="translate(1100 0)"/>
     <use xlink:href="#SimSun-271d" transform="translate(1200 0)"/>
     <use xlink:href="#SimSun-1c3" transform="translate(1300 0)"/>
     <use xlink:href="#SimSun-550" transform="translate(1400 0)"/>
     <use xlink:href="#SimSun-4358" transform="translate(1500 0)"/>
     <use xlink:href="#SimSun-1c3" transform="translate(1600 0)"/>
     <use xlink:href="#SimSun-611" transform="translate(1700 0)"/>
     <use xlink:href="#SimSun-a27" transform="translate(1800 0)"/>
     <use xlink:href="#SimSun-1846" transform="translate(1900 0)"/>
     <use xlink:href="#SimSun-1c26" transform="translate(2000 0)"/>
     <use xlink:href="#SimSun-14bf" transform="translate(2100 0)"/>
    </g>
   </g>
  </g>
 </g>
 <defs>
  <clipPath id="p4aa2b8cfad">
   <rect x="7.2" y="7.2" width="340.511811" height="152.787402"/>
  </clipPath>
 </defs>
</svg>
