<?xml version="1.0" encoding="utf-8" standalone="no"?>
<!DOCTYPE svg PUBLIC "-//W3C//DTD SVG 1.1//EN"
  "http://www.w3.org/Graphics/SVG/1.1/DTD/svg11.dtd">
<svg xmlns:xlink="http://www.w3.org/1999/xlink" width="354.911811pt" height="132.264567pt" viewBox="0 0 354.911811 132.264567" xmlns="http://www.w3.org/2000/svg" version="1.1">
 <metadata>
  <rdf:RDF xmlns:dc="http://purl.org/dc/elements/1.1/" xmlns:cc="http://creativecommons.org/ns#" xmlns:rdf="http://www.w3.org/1999/02/22-rdf-syntax-ns#">
   <cc:Work>
    <dc:type rdf:resource="http://purl.org/dc/dcmitype/StillImage"/>
    <dc:date>2026-06-20T22:16:01.503865</dc:date>
    <dc:format>image/svg+xml</dc:format>
    <dc:creator>
     <cc:Agent>
      <dc:title>Matplotlib v3.11.0, https://matplotlib.org/</dc:title>
     </cc:Agent>
    </dc:creator>
   </cc:Work>
  </rdf:RDF>
 </metadata>
 <defs>
  <style type="text/css">*{stroke-linejoin: round; stroke-linecap: butt}</style>
 </defs>
 <g id="figure_1">
  <g id="patch_1">
   <path d="M 0 132.264567 
L 354.911811 132.264567 
L 354.911811 0 
L 0 0 
z
" style="fill: #ffffff"/>
  </g>
  <g id="axes_1">
   <g id="patch_2">
    <path d="M 41.251181 80.865354 
L 90.625394 80.865354 
L 90.625394 63.185669 
L 41.251181 63.185669 
z
" clip-path="url(#p2b1407dd74)" style="fill: #e8f1fa; stroke: #333333; stroke-linejoin: miter"/>
   </g>
   <g id="patch_3">
    <path d="M 129.784252 80.865354 
L 179.158465 80.865354 
L 179.158465 63.185669 
L 129.784252 63.185669 
z
" clip-path="url(#p2b1407dd74)" style="fill: #fce8d8; stroke: #333333; stroke-linejoin: miter"/>
   </g>
   <g id="patch_4">
    <path d="M 218.317323 80.865354 
L 267.691535 80.865354 
L 267.691535 63.185669 
L 218.317323 63.185669 
z
" clip-path="url(#p2b1407dd74)" style="fill: #e9f6ef; stroke: #333333; stroke-linejoin: miter"/>
   </g>
   <g id="patch_5">
    <path d="M 286.419685 80.865354 
L 335.793898 80.865354 
L 335.793898 63.185669 
L 286.419685 63.185669 
z
" clip-path="url(#p2b1407dd74)" style="fill: #efefef; stroke: #333333; stroke-linejoin: miter"/>
   </g>
   <g id="patch_6">
    <path d="M 92.628686 72.025512 
Q 105.097413 72.025512 116.224499 72.025512 
" clip-path="url(#p2b1407dd74)" style="fill: none; stroke: #000000; stroke-width: 1.2; stroke-linecap: round"/>
    <path d="M 112.224499 70.025512 
L 116.224499 72.025512 
L 112.224499 74.025512 
" clip-path="url(#p2b1407dd74)" style="fill: none; stroke: #000000; stroke-width: 1.2; stroke-linecap: round"/>
   </g>
   <g id="patch_7">
    <path d="M 181.161756 72.025512 
Q 193.630484 72.025512 204.75757 72.025512 
" clip-path="url(#p2b1407dd74)" style="fill: none; stroke: #000000; stroke-width: 1.2; stroke-linecap: round"/>
    <path d="M 200.75757 70.025512 
L 204.75757 72.025512 
L 200.75757 74.025512 
" clip-path="url(#p2b1407dd74)" style="fill: none; stroke: #000000; stroke-width: 1.2; stroke-linecap: round"/>
   </g>
   <g id="patch_8">
    <path d="M 269.694827 72.025512 
Q 282.163555 72.025512 293.290641 72.025512 
" clip-path="url(#p2b1407dd74)" style="fill: none; stroke: #000000; stroke-width: 1.2; stroke-linecap: round"/>
    <path d="M 289.290641 70.025512 
L 293.290641 72.025512 
L 289.290641 74.025512 
" clip-path="url(#p2b1407dd74)" style="fill: none; stroke: #000000; stroke-width: 1.2; stroke-linecap: round"/>
   </g>
   <g id="text_1">
    <!-- Input -->
    <g transform="translate(55.938287 70.338012) scale(0.08 -0.08)">
     <defs>
      <path id="SimSun-2c" d="M 600 4225 
L 600 4375 
L 2600 4375 
L 2600 4225 
L 2025 4225 
Q 1925 4225 1862 4175 
Q 1800 4125 1800 4025 
L 1800 450 
Q 1800 350 1862 300 
Q 1925 250 2025 250 
L 2600 250 
L 2600 100 
L 600 100 
L 600 250 
L 1175 250 
Q 1300 250 1350 300 
Q 1400 350 1400 450 
L 1400 4025 
Q 1400 4125 1350 4175 
Q 1300 4225 1175 4225 
L 600 4225 
z
" transform="scale(0.015625)"/>
      <path id="SimSun-51" d="M 200 100 
L 200 250 
L 325 250 
Q 450 250 500 300 
Q 550 350 550 450 
L 550 2600 
Q 550 2675 525 2712 
Q 500 2750 425 2750 
L 225 2750 
L 225 2900 
L 400 2900 
Q 525 2900 637 2925 
Q 750 2950 850 3025 
L 900 3025 
L 900 2450 
Q 1125 2700 1350 2825 
Q 1575 2950 1825 2950 
Q 2250 2950 2450 2725 
Q 2650 2500 2650 2050 
L 2650 450 
Q 2650 350 2712 300 
Q 2775 250 2875 250 
L 3000 250 
L 3000 100 
L 1950 100 
L 1950 250 
L 2075 250 
Q 2200 250 2250 300 
Q 2300 350 2300 450 
L 2300 2125 
Q 2300 2425 2175 2587 
Q 2050 2750 1800 2750 
Q 1575 2750 1337 2600 
Q 1100 2450 900 2175 
L 900 450 
Q 900 350 962 300 
Q 1025 250 1125 250 
L 1250 250 
L 1250 100 
L 200 100 
z
" transform="scale(0.015625)"/>
      <path id="SimSun-53" d="M 1150 -675 
L 1325 -675 
L 1325 -825 
L 175 -825 
L 175 -675 
L 325 -675 
Q 450 -675 500 -625 
Q 550 -575 550 -450 
L 550 2500 
Q 550 2600 500 2662 
Q 450 2725 325 2725 
L 175 2725 
L 175 2875 
L 400 2875 
Q 525 2875 637 2900 
Q 750 2925 850 3000 
L 900 3000 
L 900 2425 
Q 1075 2675 1287 2800 
Q 1500 2925 1750 2925 
Q 2250 2925 2575 2587 
Q 2900 2250 2900 1525 
Q 2900 825 2550 450 
Q 2200 75 1725 75 
Q 1450 75 1262 162 
Q 1075 250 900 425 
L 900 -450 
Q 900 -575 975 -625 
Q 1050 -675 1150 -675 
z
M 900 750 
Q 1025 500 1212 375 
Q 1400 250 1650 250 
Q 2000 250 2250 562 
Q 2500 875 2500 1525 
Q 2500 2125 2312 2425 
Q 2125 2725 1750 2725 
Q 1525 2725 1300 2587 
Q 1075 2450 900 2150 
L 900 750 
z
" transform="scale(0.015625)"/>
      <path id="SimSun-58" d="M 1450 325 
Q 1750 325 1962 475 
Q 2175 625 2275 950 
L 2275 2525 
Q 2275 2625 2225 2687 
Q 2175 2750 2050 2750 
L 1900 2750 
L 1900 2900 
L 2050 2900 
Q 2200 2900 2325 2925 
Q 2450 2950 2575 3050 
L 2625 3050 
L 2625 600 
Q 2625 500 2687 450 
Q 2750 400 2850 400 
L 3000 400 
L 3000 250 
L 2850 250 
Q 2725 250 2600 212 
Q 2475 175 2325 100 
L 2275 100 
L 2275 625 
Q 2150 350 1900 212 
Q 1650 75 1325 75 
Q 925 75 725 300 
Q 525 525 525 1025 
L 525 2525 
Q 525 2625 475 2687 
Q 425 2750 300 2750 
L 150 2750 
L 150 2900 
L 300 2900 
Q 450 2900 575 2925 
Q 700 2950 825 3050 
L 875 3050 
L 875 975 
Q 875 625 1025 475 
Q 1175 325 1450 325 
z
" transform="scale(0.015625)"/>
      <path id="SimSun-57" d="M 1500 900 
Q 1500 550 1625 425 
Q 1750 300 2000 300 
Q 2250 300 2400 462 
Q 2550 625 2600 925 
L 2725 875 
Q 2675 525 2462 300 
Q 2250 75 1900 75 
Q 1525 75 1337 300 
Q 1150 525 1150 1000 
L 1150 2750 
L 400 2750 
L 400 2900 
L 600 2900 
Q 900 2900 1087 3087 
Q 1275 3275 1325 3675 
L 1350 3875 
L 1500 3875 
L 1500 2900 
L 2500 2900 
L 2500 2750 
L 1500 2750 
L 1500 900 
z
" transform="scale(0.015625)"/>
     </defs>
     <use xlink:href="#SimSun-2c"/>
     <use xlink:href="#SimSun-51" transform="translate(50 0)"/>
     <use xlink:href="#SimSun-53" transform="translate(100 0)"/>
     <use xlink:href="#SimSun-58" transform="translate(150 0)"/>
     <use xlink:href="#SimSun-57" transform="translate(200 0)"/>
    </g>
    <!-- 输入 -->
    <g transform="translate(57.938287 79.463012) scale(0.08 -0.08)">
     <defs>
      <path id="SimSun-45c3" d="M 2925 2525 
L 2925 1875 
L 3700 1875 
L 3700 2525 
L 2925 2525 
z
M 2925 1725 
L 2925 1050 
L 3700 1050 
L 3700 1725 
L 2925 1725 
z
M 4100 4750 
Q 3300 3375 2125 2825 
L 2075 2900 
Q 2800 3400 3237 4025 
Q 3675 4650 3900 5275 
L 4400 4975 
L 4200 4850 
Q 4950 3625 6150 3400 
L 6150 3300 
Q 5775 3275 5700 3025 
Q 4725 3550 4100 4750 
z
M 2600 -650 
Q 2625 -150 2625 1087 
Q 2625 2325 2600 2850 
L 2950 2675 
L 3650 2675 
L 3825 2900 
L 4175 2625 
L 4000 2475 
L 4000 -150 
Q 4000 -525 3625 -650 
Q 3550 -350 3150 -275 
L 3150 -175 
Q 3400 -200 3550 -200 
Q 3700 -200 3700 0 
L 3700 900 
L 2925 900 
L 2925 -475 
L 2600 -650 
z
M 4500 350 
Q 4525 700 4525 1475 
Q 4525 2250 4500 2625 
L 4975 2375 
L 4825 2250 
L 4825 500 
L 4500 350 
z
M 5350 2125 
Q 5350 2400 5325 2875 
L 5825 2650 
L 5650 2475 
L 5650 -75 
Q 5675 -475 5175 -625 
Q 5150 -300 4525 -175 
L 4525 -75 
Q 5000 -100 5175 -100 
Q 5350 -100 5350 100 
L 5350 2125 
z
M 1475 2525 
Q 1475 3175 1450 3525 
L 1975 3275 
L 1800 3100 
L 1800 2525 
L 1925 2525 
L 2175 2750 
L 2525 2375 
L 1800 2375 
L 1800 1325 
L 2475 1450 
L 2500 1350 
L 1800 1150 
Q 1800 -50 1825 -500 
L 1450 -650 
Q 1475 400 1475 1050 
Q 550 800 475 625 
L 250 1050 
Q 800 1125 1475 1250 
L 1475 2375 
L 750 2375 
L 550 2200 
L 275 2600 
Q 450 2650 600 3000 
Q 750 3350 950 3950 
L 900 3950 
Q 725 3950 450 3875 
L 225 4100 
L 1000 4100 
Q 1150 4700 1275 5200 
L 1750 4925 
Q 1625 4850 1550 4712 
Q 1475 4575 1325 4100 
L 2025 4100 
L 2325 4375 
L 2700 3950 
L 1275 3950 
L 750 2525 
L 1475 2525 
z
M 3150 3450 
L 4425 3450 
L 4675 3700 
L 5050 3300 
L 3850 3300 
L 3200 3400 
L 3350 3250 
L 3150 3450 
z
" transform="scale(0.015625)"/>
      <path id="SimSun-795" d="M 1825 4775 
L 2050 5000 
Q 2975 4675 3175 4287 
Q 3375 3900 3650 3075 
Q 3900 2250 4562 1375 
Q 5225 500 6125 225 
L 6125 125 
Q 5700 125 5475 -200 
Q 4850 275 4425 837 
Q 4000 1400 3737 1975 
Q 3475 2550 3250 3400 
Q 2900 2250 2250 1337 
Q 1600 425 275 -425 
L 225 -325 
Q 1350 550 2012 1562 
Q 2675 2575 2950 3850 
Q 3025 4150 2712 4375 
Q 2400 4600 1825 4775 
z
" transform="scale(0.015625)"/>
     </defs>
     <use xlink:href="#SimSun-45c3"/>
     <use xlink:href="#SimSun-795" transform="translate(100 0)"/>
    </g>
   </g>
   <g id="text_2">
    <!-- Model -->
    <g transform="translate(144.471358 70.338012) scale(0.08 -0.08)">
     <defs>
      <path id="SimSun-30" d="M 2800 450 
Q 2800 350 2862 300 
Q 2925 250 3025 250 
L 3125 250 
L 3125 100 
L 2050 100 
L 2050 250 
L 2175 250 
Q 2300 250 2350 300 
Q 2400 350 2400 450 
L 2400 3725 
L 2350 3725 
L 1500 100 
L 1350 100 
L 575 3650 
L 525 3650 
L 525 450 
Q 525 350 587 300 
Q 650 250 750 250 
L 825 250 
L 825 100 
L 75 100 
L 75 250 
L 150 250 
Q 275 250 325 300 
Q 375 350 375 450 
L 375 4025 
Q 375 4125 325 4175 
Q 275 4225 150 4225 
L 50 4225 
L 50 4375 
L 775 4375 
L 1500 1025 
L 1550 1025 
L 2325 4375 
L 3125 4375 
L 3125 4225 
L 3025 4225 
Q 2925 4225 2862 4175 
Q 2800 4125 2800 4025 
L 2800 450 
z
" transform="scale(0.015625)"/>
      <path id="SimSun-52" d="M 2900 1500 
Q 2900 875 2525 462 
Q 2150 50 1600 50 
Q 1025 50 662 475 
Q 300 900 300 1500 
Q 300 2050 662 2500 
Q 1025 2950 1600 2950 
Q 2200 2950 2550 2500 
Q 2900 2050 2900 1500 
z
M 700 1475 
Q 700 825 962 512 
Q 1225 200 1600 200 
Q 2025 200 2262 537 
Q 2500 875 2500 1475 
Q 2500 2125 2237 2462 
Q 1975 2800 1600 2800 
Q 1250 2800 975 2462 
Q 700 2125 700 1475 
z
" transform="scale(0.015625)"/>
      <path id="SimSun-47" d="M 2300 2350 
Q 2175 2550 1975 2637 
Q 1775 2725 1575 2725 
Q 1200 2725 987 2375 
Q 775 2025 775 1450 
Q 775 850 975 562 
Q 1175 275 1550 275 
Q 1825 275 2012 450 
Q 2200 625 2300 975 
L 2300 2350 
z
M 1475 75 
Q 1025 75 700 437 
Q 375 800 375 1500 
Q 375 2150 725 2537 
Q 1075 2925 1550 2925 
Q 1750 2925 1962 2837 
Q 2175 2750 2300 2575 
L 2300 3925 
Q 2300 4075 2250 4150 
Q 2200 4225 2075 4225 
L 1875 4225 
L 1875 4375 
L 2150 4375 
Q 2275 4375 2400 4425 
Q 2525 4475 2650 4575 
L 2650 625 
Q 2650 500 2700 450 
Q 2750 400 2850 400 
L 3025 400 
L 3025 250 
L 2875 250 
Q 2775 250 2637 212 
Q 2500 175 2350 100 
L 2300 100 
L 2300 575 
Q 2175 350 1962 212 
Q 1750 75 1475 75 
z
" transform="scale(0.015625)"/>
      <path id="SimSun-48" d="M 2400 1650 
Q 2425 2200 2212 2487 
Q 2000 2775 1650 2775 
Q 1275 2775 1037 2475 
Q 800 2175 800 1650 
L 2400 1650 
z
M 800 1500 
Q 800 825 1062 537 
Q 1325 250 1750 250 
Q 2075 250 2300 437 
Q 2525 625 2625 900 
L 2750 850 
Q 2675 575 2412 312 
Q 2150 50 1700 50 
Q 1125 50 762 425 
Q 400 800 400 1500 
Q 400 2125 762 2537 
Q 1125 2950 1650 2950 
Q 2125 2950 2475 2625 
Q 2825 2300 2825 1500 
L 800 1500 
z
" transform="scale(0.015625)"/>
      <path id="SimSun-4f" d="M 925 4375 
Q 1150 4375 1350 4425 
Q 1550 4475 1725 4575 
L 1775 4575 
L 1775 450 
Q 1775 350 1837 300 
Q 1900 250 2000 250 
L 2575 250 
L 2575 100 
L 625 100 
L 625 250 
L 1200 250 
Q 1325 250 1375 300 
Q 1425 350 1425 450 
L 1425 4025 
Q 1425 4125 1375 4175 
Q 1325 4225 1200 4225 
L 650 4225 
L 650 4375 
L 925 4375 
z
" transform="scale(0.015625)"/>
     </defs>
     <use xlink:href="#SimSun-30"/>
     <use xlink:href="#SimSun-52" transform="translate(50 0)"/>
     <use xlink:href="#SimSun-47" transform="translate(100 0)"/>
     <use xlink:href="#SimSun-48" transform="translate(150 0)"/>
     <use xlink:href="#SimSun-4f" transform="translate(200 0)"/>
    </g>
    <!-- 模型 -->
    <g transform="translate(146.471358 79.463012) scale(0.08 -0.08)">
     <defs>
      <path id="SimSun-2051" d="M 1275 -625 
Q 1300 225 1300 2575 
Q 950 1675 275 925 
L 225 975 
Q 1000 2200 1250 3625 
L 675 3625 
L 450 3575 
L 250 3775 
L 1300 3775 
Q 1300 4900 1275 5250 
L 1875 5000 
L 1625 4825 
L 1625 3775 
L 1900 3775 
L 2200 4075 
L 2650 3625 
L 1625 3625 
L 1625 3000 
Q 2200 2725 2337 2562 
Q 2475 2400 2475 2250 
Q 2475 2150 2412 2012 
Q 2350 1875 2300 1875 
Q 2225 1875 2125 2150 
Q 1950 2550 1625 2850 
Q 1625 250 1650 -475 
L 1275 -625 
z
M 4475 4400 
Q 4475 4825 4450 5275 
L 5025 5000 
L 4800 4825 
L 4800 4400 
L 5300 4400 
L 5600 4700 
L 6050 4250 
L 4800 4250 
Q 4800 3975 4825 3775 
L 4475 3650 
L 4475 4250 
L 3625 4250 
L 3625 3775 
L 3275 3600 
Q 3300 3900 3300 4250 
L 2675 4250 
L 2450 4200 
L 2250 4400 
L 3300 4400 
Q 3300 4750 3275 5250 
L 3825 5000 
L 3625 4850 
L 3625 4400 
L 4475 4400 
z
M 2825 1500 
Q 2850 2175 2850 2625 
Q 2850 3075 2825 3675 
L 3175 3475 
L 5000 3475 
L 5200 3700 
L 5550 3400 
L 5350 3250 
Q 5350 1975 5375 1700 
L 5025 1550 
L 5025 1850 
L 4150 1850 
Q 4125 1525 4075 1125 
L 5325 1125 
L 5650 1450 
L 6125 975 
L 4275 975 
Q 4550 550 4987 237 
Q 5425 -75 6100 -125 
L 6100 -225 
Q 5775 -275 5625 -550 
Q 4650 -175 4150 975 
L 4050 975 
Q 3650 -425 1875 -650 
L 1850 -575 
Q 2675 -375 3100 37 
Q 3525 450 3700 975 
L 2850 975 
Q 2525 975 2250 900 
L 2025 1125 
L 3725 1125 
Q 3775 1375 3800 1850 
L 3175 1850 
L 3175 1650 
L 2825 1500 
z
M 3175 3325 
L 3175 2750 
L 5025 2750 
L 5025 3325 
L 3175 3325 
z
M 3175 2600 
L 3175 2000 
L 5025 2000 
L 5025 2600 
L 3175 2600 
z
" transform="scale(0.015625)"/>
      <path id="SimSun-dbb" d="M 2575 1675 
Q 2600 2250 2600 2600 
L 2600 3400 
L 1875 3400 
Q 1825 2075 500 1350 
L 450 1425 
Q 1475 2200 1550 3400 
L 1300 3400 
Q 975 3400 700 3325 
L 475 3550 
L 1550 3550 
L 1550 4600 
L 1225 4600 
L 925 4550 
L 725 4750 
L 3000 4750 
L 3300 5050 
L 3750 4600 
L 2925 4600 
L 2925 3550 
L 3200 3550 
L 3525 3875 
L 4000 3400 
L 2925 3400 
L 2925 2600 
Q 2925 2100 2950 1875 
L 2575 1675 
z
M 1875 4600 
L 1875 3550 
L 2600 3550 
L 2600 4600 
L 1875 4600 
z
M 4175 2525 
Q 4200 3100 4200 3650 
Q 4200 4200 4175 4600 
L 4700 4400 
L 4525 4225 
L 4525 2650 
L 4175 2525 
z
M 5200 5225 
L 5725 4975 
L 5550 4800 
L 5550 2225 
Q 5600 1750 5025 1525 
Q 5000 1825 4250 2000 
L 4250 2125 
Q 4900 2050 5062 2062 
Q 5225 2075 5225 2375 
L 5225 4450 
Q 5225 4775 5200 5225 
z
M 3025 1025 
Q 3025 1400 3000 1850 
L 3600 1600 
L 3375 1425 
L 3375 1025 
L 4550 1025 
L 4900 1375 
L 5400 875 
L 3375 875 
L 3375 -150 
L 5025 -150 
L 5425 250 
L 5975 -300 
L 1275 -300 
Q 950 -300 675 -375 
L 450 -150 
L 3025 -150 
L 3025 875 
L 2000 875 
Q 1675 875 1400 800 
L 1175 1025 
L 3025 1025 
z
" transform="scale(0.015625)"/>
     </defs>
     <use xlink:href="#SimSun-2051"/>
     <use xlink:href="#SimSun-dbb" transform="translate(100 0)"/>
    </g>
   </g>
   <g id="text_3">
    <!-- Mechanism -->
    <g transform="translate(225.004429 70.338012) scale(0.08 -0.08)">
     <defs>
      <path id="SimSun-46" d="M 2150 2225 
Q 2150 2300 2175 2325 
Q 2175 2350 2200 2425 
Q 2225 2525 2100 2662 
Q 1975 2800 1675 2800 
Q 1300 2800 1037 2437 
Q 775 2075 775 1475 
Q 775 925 1000 587 
Q 1225 250 1750 250 
Q 2100 250 2337 475 
Q 2575 700 2675 1000 
L 2800 950 
Q 2700 575 2425 312 
Q 2150 50 1675 50 
Q 1075 50 725 425 
Q 375 800 375 1500 
Q 375 2125 750 2537 
Q 1125 2950 1725 2950 
Q 2150 2950 2387 2725 
Q 2625 2500 2625 2275 
Q 2625 2125 2562 2062 
Q 2500 2000 2375 2000 
Q 2275 2000 2212 2062 
Q 2150 2125 2150 2225 
z
" transform="scale(0.015625)"/>
      <path id="SimSun-4b" d="M 200 100 
L 200 250 
L 325 250 
Q 450 250 500 300 
Q 550 350 550 450 
L 550 4025 
Q 550 4125 500 4175 
Q 450 4225 325 4225 
L 175 4225 
L 175 4375 
L 450 4375 
Q 550 4375 650 4425 
Q 750 4475 850 4575 
L 900 4575 
L 900 2450 
Q 1125 2725 1362 2837 
Q 1600 2950 1875 2950 
Q 2250 2950 2450 2737 
Q 2650 2525 2650 2075 
L 2650 450 
Q 2650 350 2712 300 
Q 2775 250 2875 250 
L 3000 250 
L 3000 100 
L 1950 100 
L 1950 250 
L 2075 250 
Q 2200 250 2250 300 
Q 2300 350 2300 450 
L 2300 2025 
Q 2300 2450 2162 2587 
Q 2025 2725 1800 2725 
Q 1600 2725 1362 2600 
Q 1125 2475 900 2175 
L 900 450 
Q 900 350 962 300 
Q 1025 250 1125 250 
L 1250 250 
L 1250 100 
L 200 100 
z
" transform="scale(0.015625)"/>
      <path id="SimSun-44" d="M 1225 75 
Q 775 75 525 287 
Q 275 500 275 775 
Q 275 1225 662 1512 
Q 1050 1800 2200 1925 
L 2200 2225 
Q 2200 2475 2087 2637 
Q 1975 2800 1575 2800 
Q 1150 2800 975 2662 
Q 800 2525 850 2375 
Q 875 2325 875 2275 
Q 875 2225 837 2150 
Q 800 2075 650 2075 
Q 550 2075 487 2137 
Q 425 2200 425 2325 
Q 425 2550 750 2750 
Q 1075 2950 1550 2950 
Q 2050 2950 2300 2762 
Q 2550 2575 2550 2225 
L 2550 575 
Q 2550 375 2587 337 
Q 2625 300 2725 300 
Q 2850 300 2900 412 
Q 2950 525 2950 725 
L 3075 725 
Q 3075 375 2950 237 
Q 2825 100 2625 100 
Q 2450 100 2350 175 
Q 2250 250 2200 425 
Q 1950 250 1737 162 
Q 1525 75 1225 75 
z
M 700 850 
Q 700 625 837 437 
Q 975 250 1275 250 
Q 1500 250 1725 337 
Q 1950 425 2200 600 
L 2200 1775 
Q 1350 1675 1025 1437 
Q 700 1200 700 850 
z
" transform="scale(0.015625)"/>
      <path id="SimSun-4c" d="M 1425 2525 
Q 1425 2625 1375 2687 
Q 1325 2750 1200 2750 
L 675 2750 
L 675 2900 
L 925 2900 
Q 1150 2900 1350 2937 
Q 1550 2975 1725 3075 
L 1775 3075 
L 1775 450 
Q 1775 350 1837 300 
Q 1900 250 2000 250 
L 2525 250 
L 2525 100 
L 675 100 
L 675 250 
L 1200 250 
Q 1325 250 1375 300 
Q 1425 350 1425 450 
L 1425 2525 
z
M 1725 3025 
L 1725 3025 
z
M 1625 4425 
Q 1750 4425 1850 4337 
Q 1950 4250 1950 4125 
Q 1950 4000 1850 3900 
Q 1750 3800 1625 3800 
Q 1500 3800 1400 3900 
Q 1300 4000 1300 4125 
Q 1300 4250 1400 4337 
Q 1500 4425 1625 4425 
z
" transform="scale(0.015625)"/>
      <path id="SimSun-56" d="M 625 2175 
Q 625 2550 912 2750 
Q 1200 2950 1600 2950 
Q 1825 2950 2025 2900 
Q 2225 2825 2300 2825 
Q 2375 2825 2425 2850 
Q 2475 2875 2550 2950 
L 2650 2125 
L 2500 2100 
Q 2400 2425 2162 2612 
Q 1925 2800 1625 2800 
Q 1300 2800 1112 2675 
Q 925 2550 925 2325 
Q 925 2125 1012 2012 
Q 1100 1900 1325 1850 
Q 1500 1775 1775 1700 
Q 2025 1600 2250 1500 
Q 2450 1400 2587 1237 
Q 2725 1075 2725 875 
Q 2725 500 2462 287 
Q 2200 75 1700 75 
Q 1375 75 1225 150 
Q 1050 200 950 200 
Q 875 200 787 162 
Q 700 125 600 75 
L 525 1000 
L 675 1025 
Q 750 625 1000 425 
Q 1250 225 1700 225 
Q 2050 225 2237 350 
Q 2425 475 2425 725 
Q 2425 900 2325 1012 
Q 2225 1125 2125 1175 
Q 1875 1275 1575 1400 
Q 1275 1500 1050 1600 
Q 825 1700 725 1850 
Q 625 2000 625 2175 
z
" transform="scale(0.015625)"/>
      <path id="SimSun-50" d="M 175 2900 
Q 300 2900 425 2925 
Q 550 2950 625 3000 
L 675 3000 
L 675 2575 
Q 800 2775 950 2862 
Q 1100 2950 1275 2950 
Q 1500 2950 1625 2862 
Q 1750 2775 1775 2575 
Q 1900 2775 2062 2862 
Q 2225 2950 2400 2950 
Q 2700 2950 2812 2775 
Q 2925 2600 2925 2325 
L 2925 425 
Q 2925 325 2975 287 
Q 3025 250 3125 250 
L 3175 250 
L 3175 100 
L 2325 100 
L 2325 250 
L 2375 250 
Q 2475 250 2525 287 
Q 2575 325 2575 425 
L 2575 2300 
Q 2575 2575 2512 2662 
Q 2450 2750 2325 2750 
Q 2150 2750 2012 2625 
Q 1875 2500 1800 2275 
L 1800 425 
Q 1800 325 1850 287 
Q 1900 250 2000 250 
L 2050 250 
L 2050 100 
L 1200 100 
L 1200 250 
L 1250 250 
Q 1350 250 1400 287 
Q 1450 325 1450 425 
L 1450 2300 
Q 1450 2525 1400 2637 
Q 1350 2750 1200 2750 
Q 1025 2750 887 2625 
Q 750 2500 675 2250 
L 675 425 
Q 675 325 725 287 
Q 775 250 875 250 
L 925 250 
L 925 100 
L 75 100 
L 75 250 
L 125 250 
Q 225 250 275 287 
Q 325 325 325 425 
L 325 2600 
Q 325 2675 300 2712 
Q 275 2750 200 2750 
L 100 2750 
L 100 2900 
L 175 2900 
z
" transform="scale(0.015625)"/>
     </defs>
     <use xlink:href="#SimSun-30"/>
     <use xlink:href="#SimSun-48" transform="translate(50 0)"/>
     <use xlink:href="#SimSun-46" transform="translate(100 0)"/>
     <use xlink:href="#SimSun-4b" transform="translate(150 0)"/>
     <use xlink:href="#SimSun-44" transform="translate(200 0)"/>
     <use xlink:href="#SimSun-51" transform="translate(250 0)"/>
     <use xlink:href="#SimSun-4c" transform="translate(300 0)"/>
     <use xlink:href="#SimSun-56" transform="translate(350 0)"/>
     <use xlink:href="#SimSun-50" transform="translate(400 0)"/>
    </g>
    <!-- 机理 -->
    <g transform="translate(235.004429 79.463012) scale(0.08 -0.08)">
     <defs>
      <path id="SimSun-1d6a" d="M 3400 4425 
L 3400 2250 
Q 3400 400 2000 -575 
L 1925 -500 
Q 3050 525 3050 2250 
L 3050 3450 
Q 3050 4125 3025 4825 
L 3400 4575 
L 4550 4575 
L 4775 4825 
L 5175 4475 
L 4925 4325 
L 4925 250 
Q 4925 0 5175 0 
L 5475 0 
Q 5600 0 5650 200 
Q 5700 400 5725 1100 
L 5850 1100 
Q 5850 550 5900 362 
Q 5950 175 6150 75 
Q 6000 -225 5837 -262 
Q 5675 -300 5525 -300 
L 5000 -300 
Q 4575 -300 4575 100 
L 4575 4425 
L 3400 4425 
z
M 1725 2700 
Q 1725 50 1750 -500 
L 1350 -675 
Q 1375 425 1375 2375 
Q 1000 1325 275 525 
L 225 600 
Q 975 1775 1350 3500 
L 750 3500 
L 525 3450 
L 325 3650 
L 1375 3650 
Q 1375 4525 1350 5275 
L 1900 5050 
L 1725 4875 
L 1725 3650 
L 2075 3650 
L 2350 3925 
L 2775 3500 
L 1725 3500 
L 1725 2825 
Q 2325 2600 2512 2475 
Q 2700 2350 2700 2150 
Q 2700 2025 2662 1900 
Q 2625 1775 2600 1775 
Q 2525 1775 2375 2025 
Q 2150 2375 1725 2700 
z
" transform="scale(0.015625)"/>
      <path id="SimSun-2a36" d="M 325 575 
Q 1075 775 1350 875 
L 1350 2550 
L 1225 2550 
Q 900 2550 625 2475 
L 400 2700 
L 1350 2700 
L 1350 4225 
L 1175 4225 
Q 850 4225 575 4150 
L 350 4375 
L 1925 4375 
L 2225 4675 
L 2650 4225 
L 1675 4225 
L 1675 2700 
L 1925 2700 
L 2225 3000 
L 2650 2550 
L 1675 2550 
L 1675 975 
L 2700 1325 
L 2725 1225 
Q 1775 800 825 325 
L 625 125 
L 325 575 
z
M 2800 1800 
Q 2825 2600 2825 3350 
Q 2825 4100 2800 4900 
L 3125 4675 
L 5200 4675 
L 5375 4900 
L 5750 4600 
L 5550 4450 
L 5550 3275 
Q 5550 2475 5575 2025 
L 5250 1875 
L 5250 2175 
L 4350 2175 
L 4350 1100 
L 5075 1100 
L 5375 1400 
L 5800 950 
L 4350 950 
L 4350 -75 
L 5400 -75 
L 5725 250 
L 6175 -225 
L 2775 -225 
Q 2450 -225 2175 -300 
L 1950 -75 
L 4050 -75 
L 4050 950 
L 3500 950 
Q 3175 950 2900 875 
L 2675 1100 
L 4050 1100 
L 4050 2175 
L 3125 2175 
L 3125 1925 
L 2800 1800 
z
M 3125 4525 
L 3125 3525 
L 4050 3525 
L 4050 4525 
L 3125 4525 
z
M 4350 4525 
L 4350 3525 
L 5250 3525 
L 5250 4525 
L 4350 4525 
z
M 3125 3375 
L 3125 2325 
L 4050 2325 
L 4050 3375 
L 3125 3375 
z
M 4350 3375 
L 4350 2325 
L 5250 2325 
L 5250 3375 
L 4350 3375 
z
" transform="scale(0.015625)"/>
     </defs>
     <use xlink:href="#SimSun-1d6a"/>
     <use xlink:href="#SimSun-2a36" transform="translate(100 0)"/>
    </g>
   </g>
   <g id="text_4">
    <!-- Output -->
    <g transform="translate(299.106791 70.338012) scale(0.08 -0.08)">
     <defs>
      <path id="SimSun-32" d="M 700 2250 
Q 700 1175 962 687 
Q 1225 200 1625 200 
Q 2050 200 2300 662 
Q 2550 1125 2550 2250 
Q 2550 3150 2337 3700 
Q 2125 4250 1625 4250 
Q 1200 4250 950 3750 
Q 700 3250 700 2250 
z
M 3025 2250 
Q 3025 1225 2625 637 
Q 2225 50 1625 50 
Q 1050 50 637 650 
Q 225 1250 225 2250 
Q 225 3225 612 3825 
Q 1000 4425 1625 4425 
Q 2275 4425 2650 3787 
Q 3025 3150 3025 2250 
z
" transform="scale(0.015625)"/>
     </defs>
     <use xlink:href="#SimSun-32"/>
     <use xlink:href="#SimSun-58" transform="translate(50 0)"/>
     <use xlink:href="#SimSun-57" transform="translate(100 0)"/>
     <use xlink:href="#SimSun-53" transform="translate(150 0)"/>
     <use xlink:href="#SimSun-58" transform="translate(200 0)"/>
     <use xlink:href="#SimSun-57" transform="translate(250 0)"/>
    </g>
    <!-- 输出 -->
    <g transform="translate(303.106791 79.463012) scale(0.08 -0.08)">
     <defs>
      <path id="SimSun-82a" d="M 5175 3975 
L 5175 3000 
Q 5175 2750 5225 2300 
L 4825 2150 
L 4825 2450 
L 3350 2450 
L 3350 25 
L 5075 25 
L 5075 1125 
Q 5075 1475 5050 1900 
L 5625 1575 
L 5425 1425 
L 5425 500 
Q 5425 50 5450 -400 
L 5075 -525 
L 5075 -125 
L 1325 -125 
L 1150 -300 
L 800 -25 
L 975 150 
L 975 1125 
Q 975 1500 950 1950 
L 1525 1650 
L 1325 1475 
L 1325 25 
L 3000 25 
L 3000 2450 
L 1550 2450 
L 1350 2275 
L 1000 2550 
L 1175 2700 
L 1175 3725 
Q 1175 4025 1150 4375 
L 1750 4075 
L 1525 3925 
L 1525 2600 
L 3000 2600 
L 3000 4250 
Q 3000 4700 2975 5125 
L 3550 4850 
L 3350 4625 
L 3350 2600 
L 4825 2600 
L 4825 3725 
Q 4825 4025 4800 4425 
L 5375 4150 
L 5175 3975 
z
" transform="scale(0.015625)"/>
     </defs>
     <use xlink:href="#SimSun-45c3"/>
     <use xlink:href="#SimSun-82a" transform="translate(100 0)"/>
    </g>
   </g>
   <g id="text_5">
    <!-- Graphical abstract / 图文摘要 -->
    <g transform="translate(41.251181 42.55937) scale(0.1 -0.1)">
     <defs>
      <path id="SimSun-2a" d="M 1625 4250 
Q 1250 4250 937 3737 
Q 625 3225 625 2175 
Q 625 1475 862 850 
Q 1100 225 1650 225 
Q 1925 225 2087 337 
Q 2250 450 2275 675 
L 2275 1525 
Q 2275 1675 2200 1750 
Q 2125 1825 1975 1825 
L 1825 1825 
L 1825 1975 
L 3075 1975 
L 3075 1825 
L 2950 1825 
Q 2825 1825 2750 1750 
Q 2675 1675 2675 1550 
L 2675 300 
Q 2625 325 2587 337 
Q 2550 350 2500 350 
Q 2450 350 2400 337 
Q 2350 325 2300 275 
Q 2150 150 1987 100 
Q 1825 50 1625 50 
Q 875 50 525 712 
Q 175 1375 175 2175 
Q 175 3100 587 3762 
Q 1000 4425 1625 4425 
Q 1775 4425 1975 4350 
Q 2175 4275 2225 4275 
Q 2300 4275 2375 4312 
Q 2450 4350 2500 4425 
L 2700 3300 
L 2550 3250 
Q 2400 3775 2175 4012 
Q 1950 4250 1625 4250 
z
" transform="scale(0.015625)"/>
      <path id="SimSun-55" d="M 1275 2125 
Q 1525 2525 1812 2737 
Q 2100 2950 2400 2950 
Q 2650 2950 2787 2837 
Q 2925 2725 2925 2575 
Q 2925 2450 2862 2375 
Q 2800 2300 2675 2300 
Q 2550 2300 2487 2375 
Q 2425 2450 2450 2575 
Q 2450 2650 2425 2700 
Q 2400 2750 2275 2750 
Q 2075 2750 1787 2500 
Q 1500 2250 1275 1800 
L 1275 450 
Q 1275 350 1337 300 
Q 1400 250 1500 250 
L 2050 250 
L 2050 100 
L 200 100 
L 200 250 
L 700 250 
Q 825 250 875 300 
Q 925 350 925 450 
L 925 2525 
Q 925 2625 875 2687 
Q 825 2750 700 2750 
L 225 2750 
L 225 2900 
L 425 2900 
Q 600 2900 837 2937 
Q 1075 2975 1200 3025 
L 1275 3025 
L 1275 2125 
z
" transform="scale(0.015625)"/>
      <path id="SimSun-3" d="M 0 0 
Q 0 0 0 0 
z
" transform="scale(0.015625)"/>
      <path id="SimSun-45" d="M 875 2325 
Q 1000 2600 1275 2762 
Q 1550 2925 1800 2925 
Q 2325 2925 2587 2562 
Q 2850 2200 2850 1500 
Q 2850 800 2512 437 
Q 2175 75 1675 75 
Q 1425 75 1212 162 
Q 1000 250 850 400 
L 625 100 
L 525 100 
L 525 4025 
Q 525 4125 475 4175 
Q 425 4225 300 4225 
L 150 4225 
L 150 4375 
L 375 4375 
Q 500 4375 625 4425 
Q 750 4475 875 4575 
L 875 2325 
z
M 875 925 
Q 875 650 1062 450 
Q 1250 250 1625 250 
Q 2075 250 2262 562 
Q 2450 875 2450 1500 
Q 2450 2100 2287 2412 
Q 2125 2725 1775 2725 
Q 1475 2725 1250 2550 
Q 1025 2375 875 1925 
L 875 925 
z
" transform="scale(0.015625)"/>
      <path id="SimSun-12" d="M 400 -475 
L 225 -375 
L 2775 4975 
L 2950 4875 
L 400 -475 
z
" transform="scale(0.015625)"/>
      <path id="SimSun-d2e" d="M 5675 4700 
L 5675 550 
Q 5675 50 5700 -350 
L 5325 -550 
L 5325 -50 
L 1250 -50 
L 1250 -450 
L 875 -600 
Q 900 -100 900 425 
L 900 4200 
Q 900 4625 875 5150 
L 1250 4925 
L 5275 4925 
L 5450 5175 
L 5850 4850 
L 5675 4700 
z
M 1250 4775 
L 1250 1700 
Q 2425 2200 3075 2825 
Q 2750 3275 2500 3850 
Q 2100 3225 1650 2800 
L 1575 2850 
Q 1975 3375 2250 3937 
Q 2525 4500 2575 4775 
L 1250 4775 
z
M 1250 100 
L 5325 100 
L 5325 4775 
L 2625 4775 
L 3050 4550 
L 2900 4475 
Q 2750 4250 2675 4125 
L 4000 4125 
L 4175 4350 
L 4550 4000 
L 4350 3875 
Q 3925 3275 3475 2775 
Q 4250 2200 5250 2100 
L 5250 2000 
Q 4875 1975 4775 1700 
Q 3900 2025 3250 2600 
Q 2375 1900 1250 1575 
L 1250 100 
z
M 2600 3975 
Q 2950 3350 3275 3000 
Q 3625 3400 3975 3975 
L 2600 3975 
z
M 2750 2050 
Q 3350 1925 3600 1825 
Q 3850 1725 3825 1487 
Q 3800 1250 3725 1250 
Q 3650 1250 3550 1375 
Q 3300 1625 2725 1975 
L 2750 2050 
z
M 2275 1150 
Q 3425 1025 3787 912 
Q 4150 800 4175 525 
Q 4200 250 4075 250 
Q 4000 250 3825 400 
Q 3450 700 2275 1050 
L 2275 1150 
z
" transform="scale(0.015625)"/>
      <path id="SimSun-1bb7" d="M 2825 5150 
Q 3175 4925 3337 4737 
Q 3500 4550 3500 4425 
Q 3500 4300 3400 4162 
Q 3300 4025 3225 4025 
Q 3150 4025 3100 4275 
Q 3025 4675 2750 5100 
L 2825 5150 
z
M 450 3875 
L 5100 3875 
L 5500 4275 
L 6050 3725 
L 4500 3725 
Q 4175 2100 3400 1025 
Q 4400 125 6025 0 
L 6025 -100 
Q 5550 -175 5475 -475 
Q 3950 -25 3175 825 
Q 2000 -250 325 -575 
L 300 -500 
Q 1925 -25 2975 1050 
Q 2250 2125 1950 3725 
L 1275 3725 
Q 950 3725 675 3650 
L 450 3875 
z
M 2100 3725 
Q 2450 2275 3175 1300 
Q 3825 2275 4100 3725 
L 2100 3725 
z
" transform="scale(0.015625)"/>
      <path id="SimSun-1a88" d="M 1650 2475 
L 2325 2900 
L 2375 2825 
L 1650 2250 
L 1650 50 
Q 1650 -375 1125 -600 
Q 1150 -275 450 -75 
L 450 25 
Q 1000 -50 1175 -50 
Q 1350 -50 1325 300 
L 1325 2025 
Q 700 1550 575 1350 
L 250 1750 
Q 475 1825 1325 2325 
L 1325 3600 
L 800 3600 
L 525 3550 
L 325 3750 
L 1325 3750 
Q 1325 4925 1300 5250 
L 1850 4975 
L 1650 4825 
L 1650 3750 
L 1875 3750 
L 2125 4000 
L 2525 3600 
L 1650 3600 
L 1650 2475 
z
M 4400 -25 
Q 4775 -75 5025 -87 
Q 5275 -100 5275 150 
L 5275 3125 
L 3800 3125 
L 4325 2875 
L 4125 2750 
L 4125 2425 
L 4475 2425 
L 4700 2650 
L 5075 2275 
L 4125 2275 
L 4125 1650 
L 4400 1650 
L 4575 1850 
L 4900 1575 
L 4725 1450 
Q 4725 850 4750 400 
L 4425 300 
L 4425 575 
L 3575 575 
L 3575 300 
L 3250 200 
Q 3275 600 3275 1025 
Q 3275 1450 3250 1825 
L 3575 1650 
L 3825 1650 
L 3825 2275 
L 3425 2275 
L 3150 2225 
L 2950 2425 
L 3825 2425 
Q 3825 2775 3800 3125 
L 2775 3125 
L 2775 -425 
L 2450 -600 
Q 2475 150 2475 1612 
Q 2475 3075 2450 3500 
L 2825 3275 
L 4225 3275 
Q 4525 3950 4550 4250 
L 3075 4250 
Q 2750 4250 2475 4175 
L 2250 4400 
L 5200 4400 
L 5500 4700 
L 5950 4250 
L 4625 4250 
L 5050 4025 
Q 4875 3975 4712 3762 
Q 4550 3550 4350 3275 
L 5225 3275 
L 5425 3500 
L 5800 3200 
L 5600 3050 
L 5600 0 
Q 5625 -400 5100 -600 
Q 5100 -300 4400 -125 
L 4400 -25 
z
M 3525 5250 
Q 4050 5000 4125 4912 
Q 4200 4825 4200 4750 
Q 4200 4625 4112 4525 
Q 4025 4425 4000 4425 
Q 3925 4425 3875 4575 
Q 3775 4825 3475 5200 
L 3525 5250 
z
M 3125 4225 
Q 3650 3900 3712 3787 
Q 3775 3675 3775 3625 
Q 3775 3525 3675 3412 
Q 3575 3300 3525 3300 
Q 3450 3300 3425 3475 
Q 3350 3750 3075 4175 
L 3125 4225 
z
M 3575 1500 
L 3575 725 
L 4425 725 
L 4425 1500 
L 3575 1500 
z
" transform="scale(0.015625)"/>
      <path id="SimSun-3fb1" d="M 2675 4600 
L 2675 3850 
L 3675 3850 
L 3675 4600 
L 2675 4600 
z
M 1475 3700 
L 1475 2775 
L 2350 2775 
L 2350 3700 
L 1475 3700 
z
M 2675 3700 
L 2675 2775 
L 3675 2775 
L 3675 3700 
L 2675 3700 
z
M 4000 3700 
L 4000 2775 
L 4875 2775 
L 4875 3700 
L 4000 3700 
z
M 525 4750 
L 5025 4750 
L 5425 5125 
L 5925 4600 
L 4000 4600 
L 4000 3850 
L 4825 3850 
L 5000 4125 
L 5400 3825 
L 5200 3650 
Q 5200 2875 5225 2525 
L 4875 2350 
L 4875 2625 
L 1475 2625 
L 1475 2425 
L 1125 2275 
Q 1150 2750 1150 3187 
Q 1150 3625 1125 4050 
L 1525 3850 
L 2350 3850 
L 2350 4600 
L 1275 4600 
Q 1025 4600 750 4525 
L 525 4750 
z
M 2525 1625 
Q 2350 1375 2025 900 
Q 2575 825 3450 700 
Q 3800 1050 4075 1625 
L 2525 1625 
z
M 2525 2575 
L 3050 2275 
L 2850 2175 
Q 2725 2000 2575 1775 
L 5125 1775 
L 5550 2150 
L 6075 1625 
L 4500 1625 
Q 4225 1075 3825 600 
Q 4800 375 5162 200 
Q 5525 25 5537 -225 
Q 5550 -475 5450 -475 
Q 5375 -475 5200 -325 
Q 4825 -25 3625 375 
Q 3175 75 2487 -162 
Q 1800 -400 375 -550 
L 350 -450 
Q 2400 -125 3250 500 
Q 2350 700 1575 800 
Q 1750 1000 2125 1625 
L 975 1625 
Q 775 1625 500 1550 
L 275 1775 
L 2200 1775 
Q 2425 2175 2525 2575 
z
" transform="scale(0.015625)"/>
     </defs>
     <use xlink:href="#SimSun-2a"/>
     <use xlink:href="#SimSun-55" transform="translate(50 0)"/>
     <use xlink:href="#SimSun-44" transform="translate(100 0)"/>
     <use xlink:href="#SimSun-53" transform="translate(150 0)"/>
     <use xlink:href="#SimSun-4b" transform="translate(200 0)"/>
     <use xlink:href="#SimSun-4c" transform="translate(250 0)"/>
     <use xlink:href="#SimSun-46" transform="translate(300 0)"/>
     <use xlink:href="#SimSun-44" transform="translate(350 0)"/>
     <use xlink:href="#SimSun-4f" transform="translate(400 0)"/>
     <use xlink:href="#SimSun-3" transform="translate(450 0)"/>
     <use xlink:href="#SimSun-44" transform="translate(500 0)"/>
     <use xlink:href="#SimSun-45" transform="translate(550 0)"/>
     <use xlink:href="#SimSun-56" transform="translate(600 0)"/>
     <use xlink:href="#SimSun-57" transform="translate(650 0)"/>
     <use xlink:href="#SimSun-55" transform="translate(700 0)"/>
     <use xlink:href="#SimSun-44" transform="translate(750 0)"/>
     <use xlink:href="#SimSun-46" transform="translate(800 0)"/>
     <use xlink:href="#SimSun-57" transform="translate(850 0)"/>
     <use xlink:href="#SimSun-3" transform="translate(900 0)"/>
     <use xlink:href="#SimSun-12" transform="translate(950 0)"/>
     <use xlink:href="#SimSun-3" transform="translate(1000 0)"/>
     <use xlink:href="#SimSun-d2e" transform="translate(1050 0)"/>
     <use xlink:href="#SimSun-1bb7" transform="translate(1150 0)"/>
     <use xlink:href="#SimSun-1a88" transform="translate(1250 0)"/>
     <use xlink:href="#SimSun-3fb1" transform="translate(1350 0)"/>
    </g>
   </g>
   <g id="text_6">
    <!-- 3-5 个视觉模块，概括核心贡献，不替代真实证据 -->
    <g transform="translate(41.251181 98.545039) scale(0.08 -0.08)">
     <defs>
      <path id="SimSun-16" d="M 2800 1250 
Q 2800 775 2450 412 
Q 2100 50 1475 50 
Q 1025 50 700 300 
Q 375 550 375 875 
Q 375 1025 475 1137 
Q 575 1250 675 1250 
Q 825 1250 887 1137 
Q 950 1025 950 950 
Q 950 825 900 750 
Q 850 650 850 575 
Q 850 425 1037 325 
Q 1225 225 1450 225 
Q 1900 225 2125 487 
Q 2350 750 2350 1300 
Q 2350 1750 2112 2025 
Q 1875 2300 1225 2300 
L 1225 2475 
Q 1725 2475 1962 2712 
Q 2200 2950 2200 3375 
Q 2200 3725 2012 3987 
Q 1825 4250 1425 4250 
Q 1250 4250 1050 4162 
Q 850 4075 850 3875 
Q 850 3675 900 3625 
Q 950 3575 950 3500 
Q 950 3375 900 3300 
Q 850 3225 725 3225 
Q 625 3225 537 3300 
Q 450 3375 450 3575 
Q 450 3950 775 4187 
Q 1100 4425 1525 4425 
Q 2025 4425 2325 4112 
Q 2625 3800 2625 3450 
Q 2625 3075 2437 2812 
Q 2250 2550 1850 2425 
Q 2400 2225 2600 1900 
Q 2800 1575 2800 1250 
z
" transform="scale(0.015625)"/>
      <path id="SimSun-10" d="M 200 2225 
L 200 2450 
L 2975 2450 
L 2975 2225 
L 200 2225 
z
" transform="scale(0.015625)"/>
      <path id="SimSun-18" d="M 1725 2850 
Q 2200 2850 2500 2487 
Q 2800 2125 2800 1525 
Q 2800 850 2487 450 
Q 2175 50 1525 50 
Q 1075 50 725 312 
Q 375 575 375 950 
Q 375 1100 462 1212 
Q 550 1325 700 1325 
Q 850 1325 900 1225 
Q 950 1125 950 1050 
Q 950 900 875 825 
Q 800 725 800 625 
Q 800 425 1037 325 
Q 1275 225 1550 225 
Q 1950 225 2162 550 
Q 2375 875 2375 1475 
Q 2375 1975 2187 2287 
Q 2000 2600 1625 2600 
Q 1350 2600 1150 2500 
Q 950 2400 775 2075 
L 550 2100 
L 675 4375 
L 2725 4375 
L 2650 4000 
L 850 4000 
L 750 2350 
Q 1000 2700 1237 2775 
Q 1475 2850 1725 2850 
z
" transform="scale(0.015625)"/>
      <path id="SimSun-45a" d="M 2975 -650 
Q 3000 350 3000 750 
L 3000 2400 
Q 3000 2850 2975 3475 
L 3575 3150 
L 3375 3000 
L 3375 500 
Q 3375 75 3400 -400 
L 2975 -650 
z
M 3525 4975 
L 3300 4825 
Q 3975 3800 4712 3287 
Q 5450 2775 6125 2675 
L 6125 2575 
Q 5725 2550 5550 2250 
Q 4800 2650 4275 3200 
Q 3750 3750 3225 4675 
Q 2650 3675 2000 3075 
Q 1350 2475 275 2025 
L 250 2125 
Q 1325 2650 2037 3575 
Q 2750 4500 3000 5275 
L 3525 4975 
z
" transform="scale(0.015625)"/>
      <path id="SimSun-3ff6" d="M 5425 4450 
Q 5425 2300 5450 1875 
L 5100 1675 
L 5100 4525 
L 3300 4525 
L 3300 1825 
L 2950 1600 
Q 2975 2025 2975 3212 
Q 2975 4400 2950 4900 
L 3325 4675 
L 5050 4675 
L 5250 4925 
L 5625 4600 
L 5425 4450 
z
M 3975 4025 
L 4575 3725 
L 4350 3550 
Q 4350 2625 4262 1987 
Q 4175 1350 3937 887 
Q 3700 425 3200 37 
Q 2700 -350 2000 -625 
L 1950 -550 
Q 2950 0 3375 575 
Q 3800 1150 3912 1925 
Q 4025 2700 3975 4025 
z
M 4275 -75 
L 4275 1150 
Q 4275 1425 4250 2000 
L 4825 1700 
L 4600 1525 
L 4600 100 
Q 4600 -125 4875 -100 
L 5425 -100 
Q 5650 -100 5700 275 
Q 5750 650 5750 1075 
L 5875 1075 
Q 5875 575 5912 325 
Q 5950 75 6150 0 
Q 6025 -350 5575 -400 
L 4700 -400 
Q 4275 -400 4275 -75 
z
M 1400 -625 
Q 1425 -150 1425 2300 
Q 975 1700 275 1225 
L 225 1300 
Q 925 1950 1337 2650 
Q 1750 3350 1900 3725 
L 875 3725 
L 550 3675 
L 350 3875 
L 1900 3875 
L 2100 4150 
L 2525 3750 
L 2275 3625 
Q 2025 3200 1750 2725 
L 1750 2500 
Q 2300 2275 2475 2112 
Q 2650 1950 2650 1775 
Q 2650 1675 2587 1525 
Q 2525 1375 2500 1375 
Q 2425 1375 2300 1625 
Q 2125 2000 1750 2350 
Q 1750 -100 1775 -400 
L 1400 -625 
z
M 1000 5100 
L 1050 5150 
Q 1575 4875 1687 4712 
Q 1800 4550 1800 4425 
Q 1800 4275 1687 4150 
Q 1575 4025 1550 4025 
Q 1450 4025 1400 4275 
Q 1325 4650 1000 5100 
z
" transform="scale(0.015625)"/>
      <path id="SimSun-3ff9" d="M 1450 4950 
Q 1900 4650 2050 4462 
Q 2200 4275 2200 4150 
Q 2200 4050 2087 3925 
Q 1975 3800 1950 3800 
Q 1850 3800 1800 4075 
Q 1725 4450 1400 4900 
L 1450 4950 
z
M 2600 5100 
L 2650 5175 
Q 3075 4900 3250 4700 
Q 3425 4500 3425 4375 
Q 3425 4275 3325 4150 
Q 3225 4025 3175 4025 
Q 3100 4025 3025 4275 
Q 2925 4650 2600 5100 
z
M 5100 2875 
L 5400 3500 
L 1000 3500 
Q 1025 3050 887 2912 
Q 750 2775 625 2775 
Q 550 2775 462 2837 
Q 375 2900 375 2925 
Q 375 2975 450 3050 
Q 575 3175 700 3362 
Q 825 3550 875 3950 
L 1000 3950 
L 1000 3650 
L 3850 3650 
Q 4350 4500 4550 5175 
L 5075 4800 
L 4850 4725 
Q 4350 4075 4000 3650 
L 5350 3650 
L 5625 3925 
L 6050 3475 
Q 5900 3450 5687 3325 
Q 5475 3200 5200 2825 
L 5100 2875 
z
M 1575 725 
Q 1600 1325 1600 1900 
Q 1600 2475 1575 3025 
L 1975 2825 
L 4225 2825 
L 4475 3075 
L 4825 2725 
L 4600 2525 
Q 4600 1450 4625 950 
L 4275 775 
L 4275 2675 
L 1925 2675 
L 1925 950 
L 1575 725 
z
M 2825 2450 
L 3400 2125 
L 3175 1975 
Q 3075 850 2750 400 
Q 2425 -50 1837 -275 
Q 1250 -500 475 -625 
L 475 -525 
Q 1450 -300 1975 62 
Q 2500 425 2662 1000 
Q 2825 1575 2825 2450 
z
M 3700 -350 
Q 3275 -350 3275 25 
L 3275 1000 
Q 3275 1275 3250 1575 
L 3775 1325 
L 3600 1150 
L 3600 225 
Q 3600 -50 3900 -50 
L 5175 -50 
Q 5425 -50 5475 137 
Q 5525 325 5550 975 
L 5675 975 
Q 5675 575 5725 337 
Q 5775 100 6000 0 
Q 5825 -350 5500 -350 
L 3700 -350 
z
" transform="scale(0.015625)"/>
      <path id="SimSun-d87" d="M 3825 3650 
Q 3825 2800 3775 2000 
L 4900 2000 
L 4900 3650 
L 3825 3650 
z
M 3475 3800 
Q 3475 4750 3450 5250 
L 4100 5000 
L 3825 4800 
L 3825 3800 
L 4850 3800 
L 5050 4075 
L 5475 3750 
L 5250 3550 
L 5250 2000 
L 5350 2000 
L 5675 2325 
L 6150 1850 
L 4050 1850 
Q 4325 1075 4850 550 
Q 5375 25 6125 -150 
L 6125 -250 
Q 5675 -275 5550 -575 
Q 4825 -50 4425 600 
Q 4025 1250 3925 1850 
L 3750 1850 
Q 3600 800 3000 275 
Q 2400 -250 1325 -625 
L 1250 -525 
Q 2225 -125 2750 425 
Q 3275 975 3400 1850 
L 2750 1850 
Q 2425 1850 2150 1775 
L 1925 2000 
L 3425 2000 
Q 3475 2725 3475 3650 
L 3200 3650 
Q 2875 3650 2600 3575 
L 2375 3800 
L 3475 3800 
z
M 1275 3300 
Q 1275 4725 1250 5175 
L 1875 4900 
L 1625 4700 
L 1625 3300 
L 1975 3300 
L 2275 3600 
L 2725 3150 
L 1625 3150 
L 1625 1100 
L 2725 1350 
L 2750 1250 
Q 1500 825 1050 625 
Q 600 425 550 300 
L 275 825 
Q 625 875 1275 1000 
L 1275 3150 
L 1075 3150 
Q 750 3150 475 3075 
L 250 3300 
L 1275 3300 
z
" transform="scale(0.015625)"/>
      <path id="SimSun-2c8" d="M 1137 150 
Q 1275 325 1375 650 
Q 1150 650 1050 725 
Q 950 800 912 925 
Q 875 1050 900 1162 
Q 925 1275 1075 1387 
Q 1225 1500 1450 1450 
Q 1675 1400 1725 1262 
Q 1775 1125 1775 1000 
Q 1775 850 1700 612 
Q 1625 375 1362 87 
Q 1100 -200 937 -225 
Q 775 -250 775 -225 
Q 775 -200 850 -150 
Q 1000 -25 1137 150 
z
" transform="scale(0.015625)"/>
      <path id="SimSun-1fb2" d="M 2700 4500 
L 2700 3450 
L 3375 3450 
L 3375 4500 
L 2700 4500 
z
M 2700 3300 
L 2700 2300 
L 3375 2300 
L 3375 3300 
L 2700 3300 
z
M 2700 725 
L 3425 1200 
Q 3350 1375 3025 1775 
L 3050 1850 
Q 3550 1525 3712 1337 
Q 3875 1150 3875 1000 
Q 3875 875 3800 750 
Q 3725 625 3700 625 
Q 3650 625 3625 725 
Q 3550 900 3475 1100 
Q 2900 600 2575 150 
L 2325 475 
Q 2400 625 2400 950 
L 2400 3475 
Q 2400 3975 2375 4825 
L 2700 4650 
L 3350 4650 
L 3550 4850 
L 3875 4525 
L 3650 4400 
Q 3650 2825 3675 2150 
L 3375 1975 
L 3375 2150 
L 2700 2150 
L 2700 725 
z
M 5025 2400 
L 4950 2075 
L 5350 1850 
L 5175 1675 
L 5175 100 
Q 5175 -125 5350 -125 
L 5525 -125 
Q 5750 -125 5762 162 
Q 5775 450 5775 825 
L 5900 825 
Q 5900 450 5962 225 
Q 6025 0 6150 -75 
Q 6075 -250 5950 -325 
Q 5825 -400 5625 -400 
L 5225 -400 
Q 4875 -400 4875 0 
L 4875 1825 
Q 4350 75 2650 -650 
L 2625 -575 
Q 4275 350 4700 2400 
L 4225 2400 
L 4050 2250 
L 3775 2550 
Q 3925 2625 4012 2975 
Q 4100 3325 4225 4075 
L 4600 3850 
Q 4475 3800 4425 3575 
Q 4375 3325 4200 2550 
L 4725 2550 
Q 4800 3100 4850 4500 
L 4425 4500 
L 4200 4450 
L 4000 4650 
L 5400 4650 
L 5650 4900 
L 6050 4500 
L 5175 4500 
Q 5100 3100 5050 2550 
L 5400 2550 
L 5675 2825 
L 6100 2400 
L 5025 2400 
z
M 1550 775 
Q 1550 425 1575 -450 
L 1225 -625 
Q 1250 850 1250 2400 
Q 925 1525 300 750 
L 250 825 
Q 575 1400 825 2062 
Q 1075 2725 1225 3575 
L 775 3575 
L 550 3525 
L 350 3725 
L 1250 3725 
Q 1250 4400 1225 5275 
L 1750 5000 
L 1550 4850 
L 1550 3725 
L 1675 3725 
L 1925 3975 
L 2325 3575 
L 1550 3575 
L 1550 3000 
Q 2025 2800 2175 2650 
Q 2325 2500 2325 2350 
Q 2325 2250 2262 2100 
Q 2200 1950 2175 1950 
Q 2100 1950 2000 2200 
Q 1850 2550 1550 2850 
L 1550 775 
z
" transform="scale(0.015625)"/>
      <path id="SimSun-191c" d="M 5550 1625 
Q 5550 300 5575 -250 
L 5200 -400 
L 5200 150 
L 3225 150 
L 3225 -375 
L 2850 -500 
Q 2875 250 2875 850 
Q 2875 1450 2850 2050 
L 3225 1850 
L 4025 1850 
L 4025 2950 
L 3175 2950 
Q 2850 2950 2575 2875 
L 2350 3100 
L 4025 3100 
L 4025 4350 
Q 3375 4300 2725 4250 
L 2725 4350 
Q 3525 4450 4312 4637 
Q 5100 4825 5350 5050 
L 5725 4550 
Q 5350 4550 4375 4400 
L 4375 3100 
L 5350 3100 
L 5675 3425 
L 6150 2950 
L 4375 2950 
L 4375 1850 
L 5175 1850 
L 5375 2075 
L 5750 1775 
L 5550 1625 
z
M 3225 1700 
L 3225 300 
L 5200 300 
L 5200 1700 
L 3225 1700 
z
M 1800 2375 
L 2800 2750 
L 2850 2650 
L 1800 2150 
L 1800 125 
Q 1800 -325 1275 -550 
Q 1300 -225 550 25 
L 550 125 
Q 1175 25 1312 62 
Q 1450 100 1450 350 
L 1450 2000 
Q 600 1575 575 1450 
L 250 1925 
Q 650 2000 1450 2275 
L 1450 3725 
L 1100 3725 
Q 775 3725 500 3650 
L 275 3875 
L 1450 3875 
Q 1450 4750 1425 5225 
L 2025 4950 
L 1800 4775 
L 1800 3875 
L 2175 3875 
L 2450 4150 
L 2875 3725 
L 1800 3725 
L 1800 2375 
z
" transform="scale(0.015625)"/>
      <path id="SimSun-1e68" d="M 3625 5200 
L 3700 5250 
Q 4225 4950 4287 4837 
Q 4350 4725 4350 4625 
Q 4350 4475 4262 4362 
Q 4175 4250 4125 4250 
Q 4050 4250 4000 4500 
Q 3900 4850 3625 5200 
z
M 3100 2575 
L 4300 2575 
Q 4475 2825 4587 3025 
Q 4700 3225 4825 3525 
L 5300 3125 
L 5050 3025 
Q 3875 1300 2325 525 
L 2300 625 
Q 3350 1275 4225 2450 
Q 3150 2350 2950 2125 
L 2725 2600 
Q 2975 2625 3275 3075 
Q 3575 3525 3750 4025 
L 2950 4025 
L 2725 3975 
L 2525 4175 
L 5275 4175 
L 5575 4475 
L 6025 4025 
L 3850 4025 
L 4275 3725 
L 4050 3650 
Q 3625 3050 3100 2575 
z
M 5250 2375 
L 5725 2000 
L 5500 1925 
Q 5050 1350 4550 875 
Q 5425 375 5600 175 
Q 5775 -25 5775 -200 
Q 5775 -275 5712 -400 
Q 5650 -525 5600 -525 
Q 5500 -525 5350 -200 
Q 5100 275 4450 775 
Q 3400 -175 2100 -575 
L 2075 -475 
Q 4175 425 5250 2375 
z
M 1700 775 
Q 1700 450 1725 -425 
L 1325 -625 
Q 1350 850 1350 2425 
Q 950 1475 375 800 
L 325 875 
Q 1000 2025 1325 3575 
L 775 3575 
L 550 3525 
L 350 3725 
L 1350 3725 
Q 1350 4550 1325 5275 
L 1900 5000 
L 1700 4825 
L 1700 3725 
L 2025 3725 
L 2300 4000 
L 2725 3575 
L 1700 3575 
L 1700 2950 
Q 2225 2750 2362 2612 
Q 2500 2475 2500 2325 
Q 2500 2200 2450 2075 
Q 2400 1950 2375 1950 
Q 2275 1950 2150 2225 
Q 1950 2600 1700 2825 
L 1700 775 
z
" transform="scale(0.015625)"/>
      <path id="SimSun-15f3" d="M 2750 4875 
Q 3350 4525 3625 4275 
Q 3900 4025 3862 3762 
Q 3825 3500 3725 3412 
Q 3625 3325 3575 3325 
Q 3450 3325 3350 3675 
Q 3200 4125 2675 4800 
L 2750 4875 
z
M 2025 3800 
L 2650 3475 
L 2425 3275 
L 2425 725 
Q 2400 225 2775 200 
L 4200 200 
Q 4475 225 4537 625 
Q 4600 1025 4625 1675 
L 4750 1675 
Q 4750 1000 4812 687 
Q 4875 375 5150 275 
Q 4950 -125 4425 -125 
L 2575 -125 
Q 2000 -100 2050 625 
L 2050 2675 
Q 2050 3325 2025 3800 
z
M 1225 2900 
L 1350 2900 
Q 1350 2100 1300 1725 
Q 1250 1350 1087 1225 
Q 925 1100 775 1100 
Q 700 1100 587 1137 
Q 475 1175 475 1250 
Q 475 1375 700 1625 
Q 1025 2000 1225 2900 
z
M 4850 2925 
L 4925 2975 
Q 5675 2300 5825 2050 
Q 5975 1800 5925 1550 
Q 5875 1300 5775 1237 
Q 5675 1175 5625 1175 
Q 5500 1175 5450 1525 
Q 5375 1975 4850 2925 
z
" transform="scale(0.015625)"/>
      <path id="SimSun-4351" d="M 1025 4800 
L 4750 4800 
L 5025 5075 
L 5425 4650 
L 3325 4650 
L 3325 3650 
L 5450 3650 
L 5725 3925 
L 6125 3500 
L 1025 3500 
Q 825 3500 550 3425 
L 325 3650 
L 2975 3650 
L 2975 4650 
L 1725 4650 
Q 1525 4650 1250 4575 
L 1025 4800 
z
M 1375 725 
Q 1400 1350 1400 1950 
Q 1400 2550 1375 3150 
L 1750 2925 
L 4575 2925 
L 4800 3150 
L 5175 2775 
L 4975 2650 
Q 4975 1350 5000 1000 
L 4625 850 
L 4625 2775 
L 1750 2775 
L 1750 900 
L 1375 725 
z
M 3325 2075 
Q 3225 625 2475 125 
Q 1725 -375 375 -600 
L 350 -500 
Q 1600 -175 2125 237 
Q 2650 650 2800 1150 
Q 2950 1650 2950 2525 
L 3525 2250 
L 3325 2075 
z
M 3400 625 
L 3425 725 
Q 4825 375 5175 150 
Q 5525 -75 5462 -300 
Q 5400 -525 5325 -525 
Q 5225 -525 5100 -400 
Q 4800 -100 4437 125 
Q 4075 350 3400 625 
z
" transform="scale(0.015625)"/>
      <path id="SimSun-295e" d="M 4625 4675 
L 4575 3225 
L 5325 3225 
L 5650 3550 
L 6100 3075 
L 4800 3075 
Q 5150 575 6150 -100 
L 6150 -200 
Q 5750 -200 5625 -425 
Q 4825 750 4700 3075 
L 4575 3075 
Q 4525 525 3075 -625 
L 3025 -550 
Q 4125 650 4225 3075 
L 4200 3075 
Q 3875 3075 3600 3000 
L 3375 3225 
L 4225 3225 
Q 4250 4675 4225 5150 
L 4825 4875 
L 4625 4675 
z
M 4925 4650 
Q 5450 4425 5575 4275 
Q 5700 4125 5700 4025 
Q 5700 3925 5612 3775 
Q 5525 3625 5475 3625 
Q 5425 3625 5350 3850 
Q 5225 4175 4875 4575 
L 4925 4650 
z
M 1225 2900 
Q 1550 2675 1625 2562 
Q 1700 2450 1700 2350 
Q 1700 2250 1625 2162 
Q 1550 2075 1500 2075 
Q 1450 2075 1425 2225 
Q 1400 2450 1175 2850 
L 1225 2900 
z
M 2150 2950 
L 2575 2700 
Q 2325 2575 2000 1975 
L 2225 1975 
L 2450 2200 
L 2750 1825 
L 2025 1825 
L 2025 1200 
L 2250 1200 
L 2475 1425 
L 2800 1050 
L 2025 1050 
Q 2025 475 2050 -100 
L 1700 -225 
Q 1725 425 1725 1050 
L 1675 1050 
Q 1400 1050 1200 975 
L 975 1200 
L 1725 1200 
L 1725 1825 
Q 1500 1825 1275 1750 
L 1075 1975 
L 1875 1975 
Q 2075 2525 2150 2950 
z
M 2250 150 
Q 2700 125 2800 137 
Q 2900 150 2900 400 
L 2900 3025 
L 900 3025 
L 900 -350 
L 550 -500 
Q 575 25 575 1437 
Q 575 2850 550 3400 
L 900 3175 
L 1625 3175 
L 1675 3950 
L 1100 3950 
Q 775 3950 500 3875 
L 275 4100 
L 1675 4100 
Q 1725 4975 1725 5225 
L 2225 4975 
L 2050 4825 
L 2000 4100 
L 2825 4100 
L 3150 4425 
L 3600 3950 
L 2000 3950 
L 1950 3175 
L 2875 3175 
L 3050 3400 
L 3400 3125 
L 3225 2950 
L 3225 300 
Q 3250 -225 2800 -375 
Q 2750 -50 2250 50 
L 2250 150 
z
" transform="scale(0.015625)"/>
      <path id="SimSun-43d" d="M 3375 3175 
L 3375 775 
Q 3375 25 3400 -375 
L 2975 -550 
Q 3000 400 3000 1100 
L 3000 3300 
Q 2000 1775 400 850 
L 350 950 
Q 1175 1550 1937 2462 
Q 2700 3375 3175 4600 
L 1225 4600 
Q 900 4600 625 4525 
L 400 4750 
L 5150 4750 
L 5525 5125 
L 6050 4600 
L 3675 4600 
Q 3450 4175 3175 3600 
L 3600 3350 
L 3375 3175 
z
M 3900 3100 
L 3975 3175 
Q 5575 2125 5737 1875 
Q 5900 1625 5900 1475 
Q 5900 1375 5825 1237 
Q 5750 1100 5700 1100 
Q 5600 1100 5400 1500 
Q 5100 2025 3900 3100 
z
" transform="scale(0.015625)"/>
      <path id="SimSun-1d2f" d="M 2150 3425 
Q 2125 3325 2100 3225 
Q 2600 3025 2775 2900 
Q 2950 2775 2950 2650 
Q 2950 2575 2887 2450 
Q 2825 2325 2775 2325 
Q 2700 2325 2625 2500 
Q 2450 2800 2075 3125 
Q 1825 2600 1412 2275 
Q 1000 1950 575 1775 
L 525 1850 
Q 950 2075 1300 2462 
Q 1650 2850 1825 3425 
L 1250 3425 
L 875 3375 
L 675 3575 
L 1850 3575 
Q 1900 3950 1925 4250 
L 1425 4250 
L 1050 4200 
L 850 4400 
L 1925 4400 
Q 1925 4975 1900 5225 
L 2450 5000 
L 2275 4850 
Q 2250 4625 2250 4375 
L 2500 4375 
L 2775 4650 
L 3200 4225 
L 2250 4225 
Q 2225 4075 2175 3575 
L 2525 3575 
L 2775 3825 
L 3175 3425 
L 2150 3425 
z
M 4325 4225 
Q 4300 3925 4275 3575 
L 5025 3575 
L 5300 3850 
L 5725 3425 
L 4425 3425 
Q 4625 3000 4987 2700 
Q 5350 2400 5875 2300 
L 5875 2225 
Q 5450 2175 5375 1975 
Q 5025 2200 4737 2575 
Q 4450 2950 4300 3425 
L 4250 3425 
Q 4075 2875 3687 2537 
Q 3300 2200 2700 1975 
L 2650 2050 
Q 3125 2300 3462 2662 
Q 3800 3025 3925 3425 
L 3575 3425 
L 3325 3375 
L 3125 3575 
L 3950 3575 
Q 4000 3875 4000 4225 
L 3675 4225 
L 3450 4175 
L 3250 4375 
L 4000 4375 
Q 4000 4825 3975 5250 
L 4550 5000 
L 4350 4850 
Q 4325 4625 4325 4375 
L 4750 4375 
L 5025 4650 
L 5450 4225 
L 4325 4225 
z
M 1875 800 
L 1875 -75 
L 4450 -75 
L 4450 800 
L 1875 800 
z
M 1500 2150 
L 1900 1925 
L 4400 1925 
L 4625 2200 
L 5025 1875 
L 4800 1700 
Q 4800 -50 4825 -400 
L 4450 -600 
L 4450 -225 
L 1875 -225 
L 1875 -450 
L 1500 -650 
Q 1525 200 1525 700 
Q 1525 1200 1500 2150 
z
M 1875 1775 
L 1875 950 
L 4450 950 
L 4450 1775 
L 1875 1775 
z
" transform="scale(0.015625)"/>
      <path id="SimSun-513" d="M 5550 -75 
L 5875 1025 
L 5975 1025 
Q 5875 175 5912 -75 
Q 5950 -325 6025 -525 
Q 6075 -650 5950 -650 
Q 5900 -650 5662 -587 
Q 5425 -525 4925 -150 
Q 4425 225 4100 850 
Q 3775 1475 3600 2975 
L 2575 2925 
L 2350 2850 
L 2100 3050 
L 3575 3125 
Q 3525 3750 3500 4175 
Q 3475 4600 3450 5075 
L 4050 4775 
L 3850 4600 
Q 3875 3625 3925 3150 
L 5150 3225 
L 5475 3550 
L 5975 3125 
L 3950 3000 
Q 4100 1525 4550 862 
Q 5000 200 5550 -75 
z
M 4475 4700 
L 4500 4800 
Q 5450 4475 5537 4300 
Q 5625 4125 5625 4050 
Q 5625 3950 5550 3837 
Q 5475 3725 5425 3725 
Q 5325 3725 5225 3950 
Q 5025 4275 4475 4700 
z
M 1800 3100 
L 1800 400 
Q 1800 0 1825 -475 
L 1425 -650 
Q 1450 -25 1450 375 
L 1450 3125 
Q 850 2175 300 1675 
L 225 1750 
Q 550 2175 837 2662 
Q 1125 3150 1412 3787 
Q 1700 4425 1925 5250 
L 2475 4900 
Q 2275 4800 2050 4350 
Q 1825 3875 1625 3500 
L 1975 3275 
L 1800 3100 
z
" transform="scale(0.015625)"/>
      <path id="SimSun-2d4f" d="M 2050 3450 
L 2050 2900 
L 4300 2900 
L 4300 3450 
L 2050 3450 
z
M 2050 2750 
L 2050 2225 
L 4300 2225 
L 4300 2750 
L 2050 2750 
z
M 2050 2075 
L 2050 1550 
L 4300 1550 
L 4300 2075 
L 2050 2075 
z
M 2050 1400 
L 2050 875 
L 4300 875 
L 4300 1400 
L 2050 1400 
z
M 2875 3600 
L 2925 4325 
L 1525 4325 
Q 1200 4325 925 4250 
L 700 4475 
L 2950 4475 
Q 2975 4825 2975 5275 
L 3550 5025 
L 3375 4925 
L 3300 4475 
L 5000 4475 
L 5325 4825 
L 5775 4325 
L 3275 4325 
L 3200 3600 
L 4275 3600 
L 4450 3875 
L 4850 3575 
L 4650 3375 
L 4650 875 
L 5300 875 
L 5675 1225 
L 6125 725 
L 1150 725 
Q 825 725 550 650 
L 325 875 
L 1700 875 
Q 1700 3200 1675 3775 
L 2050 3600 
L 2875 3600 
z
M 2425 725 
L 2825 350 
L 2575 300 
Q 1500 -425 800 -650 
L 775 -575 
Q 1950 125 2425 725 
z
M 3800 700 
Q 4575 375 4962 200 
Q 5350 25 5400 -112 
Q 5450 -250 5450 -325 
Q 5450 -400 5400 -525 
Q 5350 -650 5325 -650 
Q 5250 -650 5100 -450 
Q 4875 -150 3750 625 
L 3800 700 
z
" transform="scale(0.015625)"/>
      <path id="SimSun-11ce" d="M 1950 3625 
Q 2575 3400 2700 3250 
Q 2825 3100 2825 2975 
Q 2825 2850 2750 2700 
Q 2675 2550 2625 2550 
Q 2550 2550 2450 2800 
Q 2275 3175 1900 3550 
L 1950 3625 
z
M 3575 1325 
Q 3500 1100 3425 925 
Q 4650 550 5087 325 
Q 5525 100 5512 -225 
Q 5500 -550 5400 -550 
Q 5300 -550 5075 -300 
Q 4625 175 3375 800 
Q 3025 175 2300 -150 
Q 1575 -475 425 -625 
L 425 -525 
Q 1475 -325 2200 100 
Q 2925 525 3200 1325 
L 1225 1325 
Q 900 1325 625 1250 
L 400 1475 
L 3225 1475 
Q 3325 1950 3375 2575 
Q 3425 3200 3425 3700 
L 4050 3400 
L 3850 3225 
Q 3750 2300 3625 1475 
L 5175 1475 
L 5550 1850 
L 6075 1325 
L 3575 1325 
z
M 1275 2700 
Q 1975 2425 2100 2262 
Q 2225 2100 2225 1975 
Q 2225 1850 2150 1700 
Q 2075 1550 2025 1550 
Q 1950 1550 1850 1800 
Q 1675 2175 1225 2625 
L 1275 2700 
z
M 2750 5225 
L 2825 5275 
Q 3225 5100 3425 4925 
Q 3625 4750 3625 4600 
Q 3625 4450 3512 4300 
Q 3400 4150 3325 4150 
Q 3250 4150 3200 4400 
Q 3100 4775 2750 5225 
z
M 4975 3225 
L 5350 3925 
L 1175 3925 
Q 1225 3525 1125 3300 
Q 1025 3075 787 3100 
Q 550 3125 550 3200 
Q 550 3300 700 3475 
Q 975 3825 1050 4375 
L 1150 4375 
L 1175 4075 
L 5300 4075 
L 5575 4350 
L 6050 3800 
Q 5625 3825 5050 3175 
L 4975 3225 
z
" transform="scale(0.015625)"/>
      <path id="SimSun-41f1" d="M 825 4775 
L 875 4825 
Q 1325 4575 1500 4400 
Q 1675 4225 1637 4062 
Q 1600 3900 1512 3825 
Q 1425 3750 1400 3750 
Q 1300 3750 1275 3975 
Q 1200 4250 825 4775 
z
M 1475 475 
L 2300 1275 
L 2375 1225 
Q 1975 675 1775 400 
Q 1550 125 1400 -225 
L 1050 150 
Q 1175 275 1150 600 
L 1150 2800 
L 925 2800 
Q 750 2800 475 2725 
L 250 2950 
L 1100 2950 
L 1275 3200 
L 1700 2900 
L 1475 2725 
L 1475 475 
z
M 2175 4550 
L 5125 4550 
L 5525 4925 
L 6000 4400 
L 4250 4400 
L 4250 2400 
L 5000 2400 
L 5375 2750 
L 5850 2250 
L 4250 2250 
L 4250 -50 
L 5325 -50 
L 5700 300 
L 6125 -200 
L 2475 -200 
Q 2300 -200 2025 -275 
L 1800 -50 
L 2725 -50 
L 2725 2550 
L 2725 3250 
L 3275 2950 
L 3050 2775 
L 3050 -50 
L 3925 -50 
L 3925 4400 
L 2875 4400 
Q 2675 4400 2400 4325 
L 2175 4550 
z
" transform="scale(0.015625)"/>
      <path id="SimSun-199e" d="M 3125 -650 
Q 3150 -100 3150 512 
Q 3150 1125 3125 1600 
L 3475 1400 
L 4175 1400 
L 4175 2400 
L 3000 2400 
Q 2825 625 1675 -525 
L 1600 -450 
Q 2150 275 2437 1187 
Q 2725 2100 2737 3312 
Q 2750 4525 2725 5050 
L 3100 4825 
L 5150 4825 
L 5350 5025 
L 5700 4700 
L 5500 4575 
Q 5500 3825 5525 3475 
L 5175 3325 
L 5175 3625 
L 3075 3625 
Q 3075 3150 3025 2550 
L 4175 2550 
Q 4175 3025 4150 3475 
L 4700 3225 
L 4500 3075 
L 4500 2550 
L 5325 2550 
L 5600 2825 
L 6025 2400 
L 4500 2400 
L 4500 1400 
L 5150 1400 
L 5350 1625 
L 5700 1300 
L 5500 1150 
Q 5500 150 5525 -400 
L 5175 -600 
L 5175 -75 
L 3475 -75 
L 3475 -500 
L 3125 -650 
z
M 3075 4675 
L 3075 3775 
L 5175 3775 
L 5175 4675 
L 3075 4675 
z
M 3475 1250 
L 3475 75 
L 5175 75 
L 5175 1250 
L 3475 1250 
z
M 1675 2450 
L 2500 2925 
L 2550 2825 
L 1675 2175 
L 1675 150 
Q 1650 -300 1125 -500 
Q 1175 -250 500 25 
L 500 125 
Q 1050 25 1187 37 
Q 1325 50 1325 225 
L 1325 2000 
Q 625 1500 600 1350 
L 225 1800 
Q 375 1825 1325 2300 
L 1325 3575 
L 750 3575 
L 450 3525 
L 250 3725 
L 1325 3725 
Q 1325 4750 1300 5175 
L 1875 4875 
L 1675 4700 
L 1675 3725 
L 1950 3725 
L 2275 4000 
L 2650 3575 
L 1675 3575 
L 1675 2450 
z
" transform="scale(0.015625)"/>
     </defs>
     <use xlink:href="#SimSun-16"/>
     <use xlink:href="#SimSun-10" transform="translate(50 0)"/>
     <use xlink:href="#SimSun-18" transform="translate(100 0)"/>
     <use xlink:href="#SimSun-3" transform="translate(150 0)"/>
     <use xlink:href="#SimSun-45a" transform="translate(200 0)"/>
     <use xlink:href="#SimSun-3ff6" transform="translate(300 0)"/>
     <use xlink:href="#SimSun-3ff9" transform="translate(400 0)"/>
     <use xlink:href="#SimSun-2051" transform="translate(500 0)"/>
     <use xlink:href="#SimSun-d87" transform="translate(600 0)"/>
     <use xlink:href="#SimSun-2c8" transform="translate(700 0)"/>
     <use xlink:href="#SimSun-1fb2" transform="translate(800 0)"/>
     <use xlink:href="#SimSun-191c" transform="translate(900 0)"/>
     <use xlink:href="#SimSun-1e68" transform="translate(1000 0)"/>
     <use xlink:href="#SimSun-15f3" transform="translate(1100 0)"/>
     <use xlink:href="#SimSun-4351" transform="translate(1200 0)"/>
     <use xlink:href="#SimSun-295e" transform="translate(1300 0)"/>
     <use xlink:href="#SimSun-2c8" transform="translate(1400 0)"/>
     <use xlink:href="#SimSun-43d" transform="translate(1500 0)"/>
     <use xlink:href="#SimSun-1d2f" transform="translate(1600 0)"/>
     <use xlink:href="#SimSun-513" transform="translate(1700 0)"/>
     <use xlink:href="#SimSun-2d4f" transform="translate(1800 0)"/>
     <use xlink:href="#SimSun-11ce" transform="translate(1900 0)"/>
     <use xlink:href="#SimSun-41f1" transform="translate(2000 0)"/>
     <use xlink:href="#SimSun-199e" transform="translate(2100 0)"/>
    </g>
   </g>
  </g>
 </g>
 <defs>
  <clipPath id="p2b1407dd74">
   <rect x="7.2" y="7.2" width="340.511811" height="117.864567"/>
  </clipPath>
 </defs>
</svg>
