<?xml version="1.0" encoding="utf-8" standalone="no"?>
<!DOCTYPE svg PUBLIC "-//W3C//DTD SVG 1.1//EN"
  "http://www.w3.org/Graphics/SVG/1.1/DTD/svg11.dtd">
<svg xmlns:xlink="http://www.w3.org/1999/xlink" width="468.6825pt" height="158.544pt" viewBox="0 0 468.6825 158.544" xmlns="http://www.w3.org/2000/svg" version="1.1">
 <metadata>
  <rdf:RDF xmlns:dc="http://purl.org/dc/elements/1.1/" xmlns:cc="http://creativecommons.org/ns#" xmlns:rdf="http://www.w3.org/1999/02/22-rdf-syntax-ns#">
   <cc:Work>
    <dc:type rdf:resource="http://purl.org/dc/dcmitype/StillImage"/>
    <dc:date>2026-06-20T21:57:59.707137</dc:date>
    <dc:format>image/svg+xml</dc:format>
    <dc:creator>
     <cc:Agent>
      <dc:title>Matplotlib v3.11.0, https://matplotlib.org/</dc:title>
     </cc:Agent>
    </dc:creator>
   </cc:Work>
  </rdf:RDF>
 </metadata>
 <defs>
  <style type="text/css">*{stroke-linejoin: round; stroke-linecap: butt}</style>
 </defs>
 <g id="figure_1">
  <g id="patch_1">
   <path d="M 0 158.544 
L 468.6825 158.544 
L 468.6825 0 
L 0 0 
z
" style="fill: #ffffff"/>
  </g>
  <g id="axes_1">
   <g id="text_1">
    <!-- Map sample, sensor, DAQ, computer, physical flow, and signal flow. -->
    <g transform="translate(7.2 50.677976) scale(0.12 -0.12)">
     <defs>
      <path id="DejaVuSans-Bold-30" d="M 588 4666 
L 2119 4666 
L 3181 2169 
L 4250 4666 
L 5778 4666 
L 5778 0 
L 4641 0 
L 4641 3413 
L 3566 897 
L 2803 897 
L 1728 3413 
L 1728 0 
L 588 0 
L 588 4666 
z
" transform="scale(0.015625)"/>
      <path id="DejaVuSans-Bold-44" d="M 2106 1575 
Q 1756 1575 1579 1456 
Q 1403 1338 1403 1106 
Q 1403 894 1545 773 
Q 1688 653 1941 653 
Q 2256 653 2472 879 
Q 2688 1106 2688 1447 
L 2688 1575 
L 2106 1575 
z
M 3816 1997 
L 3816 0 
L 2688 0 
L 2688 519 
Q 2463 200 2181 54 
Q 1900 -91 1497 -91 
Q 953 -91 614 226 
Q 275 544 275 1050 
Q 275 1666 698 1953 
Q 1122 2241 2028 2241 
L 2688 2241 
L 2688 2328 
Q 2688 2594 2478 2717 
Q 2269 2841 1825 2841 
Q 1466 2841 1156 2769 
Q 847 2697 581 2553 
L 581 3406 
Q 941 3494 1303 3539 
Q 1666 3584 2028 3584 
Q 2975 3584 3395 3211 
Q 3816 2838 3816 1997 
z
" transform="scale(0.015625)"/>
      <path id="DejaVuSans-Bold-53" d="M 1656 506 
L 1656 -1331 
L 538 -1331 
L 538 3500 
L 1656 3500 
L 1656 2988 
Q 1888 3294 2169 3439 
Q 2450 3584 2816 3584 
Q 3463 3584 3878 3070 
Q 4294 2556 4294 1747 
Q 4294 938 3878 423 
Q 3463 -91 2816 -91 
Q 2450 -91 2169 54 
Q 1888 200 1656 506 
z
M 2400 2772 
Q 2041 2772 1848 2508 
Q 1656 2244 1656 1747 
Q 1656 1250 1848 986 
Q 2041 722 2400 722 
Q 2759 722 2948 984 
Q 3138 1247 3138 1747 
Q 3138 2247 2948 2509 
Q 2759 2772 2400 2772 
z
" transform="scale(0.015625)"/>
      <path id="DejaVuSans-Bold-3" transform="scale(0.015625)"/>
      <path id="DejaVuSans-Bold-56" d="M 3272 3391 
L 3272 2541 
Q 2913 2691 2578 2766 
Q 2244 2841 1947 2841 
Q 1628 2841 1473 2761 
Q 1319 2681 1319 2516 
Q 1319 2381 1436 2309 
Q 1553 2238 1856 2203 
L 2053 2175 
Q 2913 2066 3209 1816 
Q 3506 1566 3506 1031 
Q 3506 472 3093 190 
Q 2681 -91 1863 -91 
Q 1516 -91 1145 -36 
Q 775 19 384 128 
L 384 978 
Q 719 816 1070 734 
Q 1422 653 1784 653 
Q 2113 653 2278 743 
Q 2444 834 2444 1013 
Q 2444 1163 2330 1236 
Q 2216 1309 1875 1350 
L 1678 1375 
Q 931 1469 631 1722 
Q 331 1975 331 2491 
Q 331 3047 712 3315 
Q 1094 3584 1881 3584 
Q 2191 3584 2531 3537 
Q 2872 3491 3272 3391 
z
" transform="scale(0.015625)"/>
      <path id="DejaVuSans-Bold-50" d="M 3781 2919 
Q 3994 3244 4286 3414 
Q 4578 3584 4928 3584 
Q 5531 3584 5847 3212 
Q 6163 2841 6163 2131 
L 6163 0 
L 5038 0 
L 5038 1825 
Q 5041 1866 5042 1909 
Q 5044 1953 5044 2034 
Q 5044 2406 4934 2573 
Q 4825 2741 4581 2741 
Q 4263 2741 4089 2478 
Q 3916 2216 3909 1719 
L 3909 0 
L 2784 0 
L 2784 1825 
Q 2784 2406 2684 2573 
Q 2584 2741 2328 2741 
Q 2006 2741 1831 2477 
Q 1656 2213 1656 1722 
L 1656 0 
L 531 0 
L 531 3500 
L 1656 3500 
L 1656 2988 
Q 1863 3284 2130 3434 
Q 2397 3584 2719 3584 
Q 3081 3584 3359 3409 
Q 3638 3234 3781 2919 
z
" transform="scale(0.015625)"/>
      <path id="DejaVuSans-Bold-4f" d="M 538 4863 
L 1656 4863 
L 1656 0 
L 538 0 
L 538 4863 
z
" transform="scale(0.015625)"/>
      <path id="DejaVuSans-Bold-48" d="M 4031 1759 
L 4031 1441 
L 1416 1441 
Q 1456 1047 1700 850 
Q 1944 653 2381 653 
Q 2734 653 3104 758 
Q 3475 863 3866 1075 
L 3866 213 
Q 3469 63 3072 -14 
Q 2675 -91 2278 -91 
Q 1328 -91 801 392 
Q 275 875 275 1747 
Q 275 2603 792 3093 
Q 1309 3584 2216 3584 
Q 3041 3584 3536 3087 
Q 4031 2591 4031 1759 
z
M 2881 2131 
Q 2881 2450 2695 2645 
Q 2509 2841 2209 2841 
Q 1884 2841 1681 2658 
Q 1478 2475 1428 2131 
L 2881 2131 
z
" transform="scale(0.015625)"/>
      <path id="DejaVuSans-Bold-f" d="M 653 1209 
L 1778 1209 
L 1778 256 
L 1006 -909 
L 341 -909 
L 653 256 
L 653 1209 
z
" transform="scale(0.015625)"/>
      <path id="DejaVuSans-Bold-51" d="M 4056 2131 
L 4056 0 
L 2931 0 
L 2931 347 
L 2931 1631 
Q 2931 2084 2911 2256 
Q 2891 2428 2841 2509 
Q 2775 2619 2662 2680 
Q 2550 2741 2406 2741 
Q 2056 2741 1856 2470 
Q 1656 2200 1656 1722 
L 1656 0 
L 538 0 
L 538 3500 
L 1656 3500 
L 1656 2988 
Q 1909 3294 2193 3439 
Q 2478 3584 2822 3584 
Q 3428 3584 3742 3212 
Q 4056 2841 4056 2131 
z
" transform="scale(0.015625)"/>
      <path id="DejaVuSans-Bold-52" d="M 2203 2784 
Q 1831 2784 1636 2517 
Q 1441 2250 1441 1747 
Q 1441 1244 1636 976 
Q 1831 709 2203 709 
Q 2569 709 2762 976 
Q 2956 1244 2956 1747 
Q 2956 2250 2762 2517 
Q 2569 2784 2203 2784 
z
M 2203 3584 
Q 3106 3584 3614 3096 
Q 4122 2609 4122 1747 
Q 4122 884 3614 396 
Q 3106 -91 2203 -91 
Q 1297 -91 786 396 
Q 275 884 275 1747 
Q 275 2609 786 3096 
Q 1297 3584 2203 3584 
z
" transform="scale(0.015625)"/>
      <path id="DejaVuSans-Bold-55" d="M 3138 2547 
Q 2991 2616 2845 2648 
Q 2700 2681 2553 2681 
Q 2122 2681 1889 2404 
Q 1656 2128 1656 1613 
L 1656 0 
L 538 0 
L 538 3500 
L 1656 3500 
L 1656 2925 
Q 1872 3269 2151 3426 
Q 2431 3584 2822 3584 
Q 2878 3584 2943 3579 
Q 3009 3575 3134 3559 
L 3138 2547 
z
" transform="scale(0.015625)"/>
      <path id="DejaVuSans-Bold-27" d="M 1791 3756 
L 1791 909 
L 2222 909 
Q 2959 909 3348 1275 
Q 3738 1641 3738 2338 
Q 3738 3031 3350 3393 
Q 2963 3756 2222 3756 
L 1791 3756 
z
M 588 4666 
L 1856 4666 
Q 2919 4666 3439 4514 
Q 3959 4363 4331 4000 
Q 4659 3684 4818 3271 
Q 4978 2859 4978 2338 
Q 4978 1809 4818 1395 
Q 4659 981 4331 666 
Q 3956 303 3431 151 
Q 2906 0 1856 0 
L 588 0 
L 588 4666 
z
" transform="scale(0.015625)"/>
      <path id="DejaVuSans-Bold-24" d="M 3419 850 
L 1538 850 
L 1241 0 
L 31 0 
L 1759 4666 
L 3194 4666 
L 4922 0 
L 3713 0 
L 3419 850 
z
M 1838 1716 
L 3116 1716 
L 2478 3572 
L 1838 1716 
z
" transform="scale(0.015625)"/>
      <path id="DejaVuSans-Bold-34" d="M 2847 -84 
L 2753 -84 
Q 1600 -84 959 553 
Q 319 1191 319 2328 
Q 319 3463 958 4106 
Q 1597 4750 2719 4750 
Q 3853 4750 4486 4112 
Q 5119 3475 5119 2328 
Q 5119 1541 4783 972 
Q 4447 403 3816 116 
L 4756 -934 
L 3609 -934 
L 2847 -84 
z
M 2719 3878 
Q 2169 3878 1866 3472 
Q 1563 3066 1563 2328 
Q 1563 1578 1859 1179 
Q 2156 781 2719 781 
Q 3272 781 3575 1187 
Q 3878 1594 3878 2328 
Q 3878 3066 3575 3472 
Q 3272 3878 2719 3878 
z
" transform="scale(0.015625)"/>
      <path id="DejaVuSans-Bold-46" d="M 3366 3391 
L 3366 2478 
Q 3138 2634 2908 2709 
Q 2678 2784 2431 2784 
Q 1963 2784 1702 2511 
Q 1441 2238 1441 1747 
Q 1441 1256 1702 982 
Q 1963 709 2431 709 
Q 2694 709 2930 787 
Q 3166 866 3366 1019 
L 3366 103 
Q 3103 6 2833 -42 
Q 2563 -91 2291 -91 
Q 1344 -91 809 395 
Q 275 881 275 1747 
Q 275 2613 809 3098 
Q 1344 3584 2291 3584 
Q 2566 3584 2833 3536 
Q 3100 3488 3366 3391 
z
" transform="scale(0.015625)"/>
      <path id="DejaVuSans-Bold-58" d="M 500 1363 
L 500 3500 
L 1625 3500 
L 1625 3150 
Q 1625 2866 1622 2436 
Q 1619 2006 1619 1863 
Q 1619 1441 1641 1255 
Q 1663 1069 1716 984 
Q 1784 875 1895 815 
Q 2006 756 2150 756 
Q 2500 756 2700 1025 
Q 2900 1294 2900 1772 
L 2900 3500 
L 4019 3500 
L 4019 0 
L 2900 0 
L 2900 506 
Q 2647 200 2364 54 
Q 2081 -91 1741 -91 
Q 1134 -91 817 281 
Q 500 653 500 1363 
z
" transform="scale(0.015625)"/>
      <path id="DejaVuSans-Bold-57" d="M 1759 4494 
L 1759 3500 
L 2913 3500 
L 2913 2700 
L 1759 2700 
L 1759 1216 
Q 1759 972 1856 886 
Q 1953 800 2241 800 
L 2816 800 
L 2816 0 
L 1856 0 
Q 1194 0 917 276 
Q 641 553 641 1216 
L 641 2700 
L 84 2700 
L 84 3500 
L 641 3500 
L 641 4494 
L 1759 4494 
z
" transform="scale(0.015625)"/>
      <path id="DejaVuSans-Bold-4b" d="M 4056 2131 
L 4056 0 
L 2931 0 
L 2931 347 
L 2931 1625 
Q 2931 2084 2911 2256 
Q 2891 2428 2841 2509 
Q 2775 2619 2662 2680 
Q 2550 2741 2406 2741 
Q 2056 2741 1856 2470 
Q 1656 2200 1656 1722 
L 1656 0 
L 538 0 
L 538 4863 
L 1656 4863 
L 1656 2988 
Q 1909 3294 2193 3439 
Q 2478 3584 2822 3584 
Q 3428 3584 3742 3212 
Q 4056 2841 4056 2131 
z
" transform="scale(0.015625)"/>
      <path id="DejaVuSans-Bold-5c" d="M 78 3500 
L 1197 3500 
L 2138 1125 
L 2938 3500 
L 4056 3500 
L 2584 -331 
Q 2363 -916 2067 -1148 
Q 1772 -1381 1288 -1381 
L 641 -1381 
L 641 -647 
L 991 -647 
Q 1275 -647 1404 -556 
Q 1534 -466 1606 -231 
L 1638 -134 
L 78 3500 
z
" transform="scale(0.015625)"/>
      <path id="DejaVuSans-Bold-4c" d="M 538 3500 
L 1656 3500 
L 1656 0 
L 538 0 
L 538 3500 
z
M 538 4863 
L 1656 4863 
L 1656 3950 
L 538 3950 
L 538 4863 
z
" transform="scale(0.015625)"/>
      <path id="DejaVuSans-Bold-13ac" d="M 1984 4863 
L 4206 4863 
L 4206 0 
L 3078 0 
L 3078 4128 
L 2222 4128 
Q 1984 4128 1890 4042 
Q 1797 3956 1797 3744 
L 1797 3500 
L 2675 3500 
L 2675 2700 
L 1797 2700 
L 1797 0 
L 678 0 
L 678 2700 
L 122 2700 
L 122 3500 
L 678 3500 
L 678 3744 
Q 678 4316 997 4589 
Q 1316 4863 1984 4863 
z
" transform="scale(0.015625)"/>
      <path id="DejaVuSans-Bold-5a" d="M 225 3500 
L 1313 3500 
L 1900 1088 
L 2491 3500 
L 3425 3500 
L 4013 1113 
L 4603 3500 
L 5691 3500 
L 4769 0 
L 3547 0 
L 2956 2406 
L 2369 0 
L 1147 0 
L 225 3500 
z
" transform="scale(0.015625)"/>
      <path id="DejaVuSans-Bold-47" d="M 2919 2988 
L 2919 4863 
L 4044 4863 
L 4044 0 
L 2919 0 
L 2919 506 
Q 2688 197 2409 53 
Q 2131 -91 1766 -91 
Q 1119 -91 703 423 
Q 288 938 288 1747 
Q 288 2556 703 3070 
Q 1119 3584 1766 3584 
Q 2128 3584 2408 3439 
Q 2688 3294 2919 2988 
z
M 2181 722 
Q 2541 722 2730 984 
Q 2919 1247 2919 1747 
Q 2919 2247 2730 2509 
Q 2541 2772 2181 2772 
Q 1825 2772 1636 2509 
Q 1447 2247 1447 1747 
Q 1447 1247 1636 984 
Q 1825 722 2181 722 
z
" transform="scale(0.015625)"/>
      <path id="DejaVuSans-Bold-4a" d="M 2919 594 
Q 2688 288 2409 144 
Q 2131 0 1766 0 
Q 1125 0 706 504 
Q 288 1009 288 1791 
Q 288 2575 706 3076 
Q 1125 3578 1766 3578 
Q 2131 3578 2409 3434 
Q 2688 3291 2919 2981 
L 2919 3500 
L 4044 3500 
L 4044 353 
Q 4044 -491 3511 -936 
Q 2978 -1381 1966 -1381 
Q 1638 -1381 1331 -1331 
Q 1025 -1281 716 -1178 
L 716 -306 
Q 1009 -475 1290 -558 
Q 1572 -641 1856 -641 
Q 2406 -641 2662 -400 
Q 2919 -159 2919 353 
L 2919 594 
z
M 2181 2772 
Q 1834 2772 1640 2515 
Q 1447 2259 1447 1791 
Q 1447 1309 1634 1061 
Q 1822 813 2181 813 
Q 2531 813 2725 1069 
Q 2919 1325 2919 1791 
Q 2919 2259 2725 2515 
Q 2531 2772 2181 2772 
z
" transform="scale(0.015625)"/>
      <path id="DejaVuSans-Bold-11" d="M 653 1209 
L 1778 1209 
L 1778 0 
L 653 0 
L 653 1209 
z
" transform="scale(0.015625)"/>
     </defs>
     <use xlink:href="#DejaVuSans-Bold-30"/>
     <use xlink:href="#DejaVuSans-Bold-44" transform="translate(99.515625 0)"/>
     <use xlink:href="#DejaVuSans-Bold-53" transform="translate(167 0)"/>
     <use xlink:href="#DejaVuSans-Bold-3" transform="translate(238.578125 0)"/>
     <use xlink:href="#DejaVuSans-Bold-56" transform="translate(273.390625 0)"/>
     <use xlink:href="#DejaVuSans-Bold-44" transform="translate(332.90625 0)"/>
     <use xlink:href="#DejaVuSans-Bold-50" transform="translate(400.390625 0)"/>
     <use xlink:href="#DejaVuSans-Bold-53" transform="translate(504.59375 0)"/>
     <use xlink:href="#DejaVuSans-Bold-4f" transform="translate(576.171875 0)"/>
     <use xlink:href="#DejaVuSans-Bold-48" transform="translate(610.453125 0)"/>
     <use xlink:href="#DejaVuSans-Bold-f" transform="translate(678.28125 0)"/>
     <use xlink:href="#DejaVuSans-Bold-3" transform="translate(716.265625 0)"/>
     <use xlink:href="#DejaVuSans-Bold-56" transform="translate(751.078125 0)"/>
     <use xlink:href="#DejaVuSans-Bold-48" transform="translate(810.59375 0)"/>
     <use xlink:href="#DejaVuSans-Bold-51" transform="translate(878.421875 0)"/>
     <use xlink:href="#DejaVuSans-Bold-56" transform="translate(949.609375 0)"/>
     <use xlink:href="#DejaVuSans-Bold-52" transform="translate(1009.125 0)"/>
     <use xlink:href="#DejaVuSans-Bold-55" transform="translate(1077.828125 0)"/>
     <use xlink:href="#DejaVuSans-Bold-f" transform="translate(1112.4375 0)"/>
     <use xlink:href="#DejaVuSans-Bold-3" transform="translate(1150.421875 0)"/>
     <use xlink:href="#DejaVuSans-Bold-27" transform="translate(1185.234375 0)"/>
     <use xlink:href="#DejaVuSans-Bold-24" transform="translate(1268.25 0)"/>
     <use xlink:href="#DejaVuSans-Bold-34" transform="translate(1345.640625 0)"/>
     <use xlink:href="#DejaVuSans-Bold-f" transform="translate(1430.65625 0)"/>
     <use xlink:href="#DejaVuSans-Bold-3" transform="translate(1468.640625 0)"/>
     <use xlink:href="#DejaVuSans-Bold-46" transform="translate(1503.453125 0)"/>
     <use xlink:href="#DejaVuSans-Bold-52" transform="translate(1562.734375 0)"/>
     <use xlink:href="#DejaVuSans-Bold-50" transform="translate(1631.4375 0)"/>
     <use xlink:href="#DejaVuSans-Bold-53" transform="translate(1735.640625 0)"/>
     <use xlink:href="#DejaVuSans-Bold-58" transform="translate(1807.21875 0)"/>
     <use xlink:href="#DejaVuSans-Bold-57" transform="translate(1878.40625 0)"/>
     <use xlink:href="#DejaVuSans-Bold-48" transform="translate(1926.203125 0)"/>
     <use xlink:href="#DejaVuSans-Bold-55" transform="translate(1994.03125 0)"/>
     <use xlink:href="#DejaVuSans-Bold-f" transform="translate(2028.640625 0)"/>
     <use xlink:href="#DejaVuSans-Bold-3" transform="translate(2066.625 0)"/>
     <use xlink:href="#DejaVuSans-Bold-53" transform="translate(2101.4375 0)"/>
     <use xlink:href="#DejaVuSans-Bold-4b" transform="translate(2173.015625 0)"/>
     <use xlink:href="#DejaVuSans-Bold-5c" transform="translate(2244.203125 0)"/>
     <use xlink:href="#DejaVuSans-Bold-56" transform="translate(2309.390625 0)"/>
     <use xlink:href="#DejaVuSans-Bold-4c" transform="translate(2368.90625 0)"/>
     <use xlink:href="#DejaVuSans-Bold-46" transform="translate(2403.1875 0)"/>
     <use xlink:href="#DejaVuSans-Bold-44" transform="translate(2462.46875 0)"/>
     <use xlink:href="#DejaVuSans-Bold-4f" transform="translate(2529.953125 0)"/>
     <use xlink:href="#DejaVuSans-Bold-3" transform="translate(2564.234375 0)"/>
     <use xlink:href="#DejaVuSans-Bold-13ac" transform="translate(2599.046875 0)"/>
     <use xlink:href="#DejaVuSans-Bold-52" transform="translate(2673.171875 0)"/>
     <use xlink:href="#DejaVuSans-Bold-5a" transform="translate(2741.875 0)"/>
     <use xlink:href="#DejaVuSans-Bold-f" transform="translate(2827.875 0)"/>
     <use xlink:href="#DejaVuSans-Bold-3" transform="translate(2865.859375 0)"/>
     <use xlink:href="#DejaVuSans-Bold-44" transform="translate(2900.671875 0)"/>
     <use xlink:href="#DejaVuSans-Bold-51" transform="translate(2968.15625 0)"/>
     <use xlink:href="#DejaVuSans-Bold-47" transform="translate(3039.34375 0)"/>
     <use xlink:href="#DejaVuSans-Bold-3" transform="translate(3110.921875 0)"/>
     <use xlink:href="#DejaVuSans-Bold-56" transform="translate(3145.734375 0)"/>
     <use xlink:href="#DejaVuSans-Bold-4c" transform="translate(3205.25 0)"/>
     <use xlink:href="#DejaVuSans-Bold-4a" transform="translate(3239.53125 0)"/>
     <use xlink:href="#DejaVuSans-Bold-51" transform="translate(3311.109375 0)"/>
     <use xlink:href="#DejaVuSans-Bold-44" transform="translate(3382.296875 0)"/>
     <use xlink:href="#DejaVuSans-Bold-4f" transform="translate(3449.78125 0)"/>
     <use xlink:href="#DejaVuSans-Bold-3" transform="translate(3484.0625 0)"/>
     <use xlink:href="#DejaVuSans-Bold-13ac" transform="translate(3518.875 0)"/>
     <use xlink:href="#DejaVuSans-Bold-52" transform="translate(3593 0)"/>
     <use xlink:href="#DejaVuSans-Bold-5a" transform="translate(3661.703125 0)"/>
     <use xlink:href="#DejaVuSans-Bold-11" transform="translate(3747.703125 0)"/>
    </g>
   </g>
   <g id="text_2">
    <!-- Editable vector source is the SVG file in editable/ and final/. -->
    <g transform="translate(100.221563 84.493122) scale(0.09 -0.09)">
     <defs>
      <path id="DejaVuSans-28" d="M 628 4666 
L 3578 4666 
L 3578 4134 
L 1259 4134 
L 1259 2753 
L 3481 2753 
L 3481 2222 
L 1259 2222 
L 1259 531 
L 3634 531 
L 3634 0 
L 628 0 
L 628 4666 
z
" transform="scale(0.015625)"/>
      <path id="DejaVuSans-47" d="M 2906 2969 
L 2906 4863 
L 3481 4863 
L 3481 0 
L 2906 0 
L 2906 525 
Q 2725 213 2448 61 
Q 2172 -91 1784 -91 
Q 1150 -91 751 415 
Q 353 922 353 1747 
Q 353 2572 751 3078 
Q 1150 3584 1784 3584 
Q 2172 3584 2448 3432 
Q 2725 3281 2906 2969 
z
M 947 1747 
Q 947 1113 1208 752 
Q 1469 391 1925 391 
Q 2381 391 2643 752 
Q 2906 1113 2906 1747 
Q 2906 2381 2643 2742 
Q 2381 3103 1925 3103 
Q 1469 3103 1208 2742 
Q 947 2381 947 1747 
z
" transform="scale(0.015625)"/>
      <path id="DejaVuSans-4c" d="M 603 3500 
L 1178 3500 
L 1178 0 
L 603 0 
L 603 3500 
z
M 603 4863 
L 1178 4863 
L 1178 4134 
L 603 4134 
L 603 4863 
z
" transform="scale(0.015625)"/>
      <path id="DejaVuSans-57" d="M 1172 4494 
L 1172 3500 
L 2356 3500 
L 2356 3053 
L 1172 3053 
L 1172 1153 
Q 1172 725 1289 603 
Q 1406 481 1766 481 
L 2356 481 
L 2356 0 
L 1766 0 
Q 1100 0 847 248 
Q 594 497 594 1153 
L 594 3053 
L 172 3053 
L 172 3500 
L 594 3500 
L 594 4494 
L 1172 4494 
z
" transform="scale(0.015625)"/>
      <path id="DejaVuSans-44" d="M 2194 1759 
Q 1497 1759 1228 1600 
Q 959 1441 959 1056 
Q 959 750 1161 570 
Q 1363 391 1709 391 
Q 2188 391 2477 730 
Q 2766 1069 2766 1631 
L 2766 1759 
L 2194 1759 
z
M 3341 1997 
L 3341 0 
L 2766 0 
L 2766 531 
Q 2569 213 2275 61 
Q 1981 -91 1556 -91 
Q 1019 -91 701 211 
Q 384 513 384 1019 
Q 384 1609 779 1909 
Q 1175 2209 1959 2209 
L 2766 2209 
L 2766 2266 
Q 2766 2663 2505 2880 
Q 2244 3097 1772 3097 
Q 1472 3097 1187 3025 
Q 903 2953 641 2809 
L 641 3341 
Q 956 3463 1253 3523 
Q 1550 3584 1831 3584 
Q 2591 3584 2966 3190 
Q 3341 2797 3341 1997 
z
" transform="scale(0.015625)"/>
      <path id="DejaVuSans-45" d="M 3116 1747 
Q 3116 2381 2855 2742 
Q 2594 3103 2138 3103 
Q 1681 3103 1420 2742 
Q 1159 2381 1159 1747 
Q 1159 1113 1420 752 
Q 1681 391 2138 391 
Q 2594 391 2855 752 
Q 3116 1113 3116 1747 
z
M 1159 2969 
Q 1341 3281 1617 3432 
Q 1894 3584 2278 3584 
Q 2916 3584 3314 3078 
Q 3713 2572 3713 1747 
Q 3713 922 3314 415 
Q 2916 -91 2278 -91 
Q 1894 -91 1617 61 
Q 1341 213 1159 525 
L 1159 0 
L 581 0 
L 581 4863 
L 1159 4863 
L 1159 2969 
z
" transform="scale(0.015625)"/>
      <path id="DejaVuSans-4f" d="M 603 4863 
L 1178 4863 
L 1178 0 
L 603 0 
L 603 4863 
z
" transform="scale(0.015625)"/>
      <path id="DejaVuSans-48" d="M 3597 1894 
L 3597 1613 
L 953 1613 
Q 991 1019 1311 708 
Q 1631 397 2203 397 
Q 2534 397 2845 478 
Q 3156 559 3463 722 
L 3463 178 
Q 3153 47 2828 -22 
Q 2503 -91 2169 -91 
Q 1331 -91 842 396 
Q 353 884 353 1716 
Q 353 2575 817 3079 
Q 1281 3584 2069 3584 
Q 2775 3584 3186 3129 
Q 3597 2675 3597 1894 
z
M 3022 2063 
Q 3016 2534 2758 2815 
Q 2500 3097 2075 3097 
Q 1594 3097 1305 2825 
Q 1016 2553 972 2059 
L 3022 2063 
z
" transform="scale(0.015625)"/>
      <path id="DejaVuSans-3" transform="scale(0.015625)"/>
      <path id="DejaVuSans-59" d="M 191 3500 
L 800 3500 
L 1894 563 
L 2988 3500 
L 3597 3500 
L 2284 0 
L 1503 0 
L 191 3500 
z
" transform="scale(0.015625)"/>
      <path id="DejaVuSans-46" d="M 3122 3366 
L 3122 2828 
Q 2878 2963 2633 3030 
Q 2388 3097 2138 3097 
Q 1578 3097 1268 2742 
Q 959 2388 959 1747 
Q 959 1106 1268 751 
Q 1578 397 2138 397 
Q 2388 397 2633 464 
Q 2878 531 3122 666 
L 3122 134 
Q 2881 22 2623 -34 
Q 2366 -91 2075 -91 
Q 1284 -91 818 406 
Q 353 903 353 1747 
Q 353 2603 823 3093 
Q 1294 3584 2113 3584 
Q 2378 3584 2631 3529 
Q 2884 3475 3122 3366 
z
" transform="scale(0.015625)"/>
      <path id="DejaVuSans-52" d="M 1959 3097 
Q 1497 3097 1228 2736 
Q 959 2375 959 1747 
Q 959 1119 1226 758 
Q 1494 397 1959 397 
Q 2419 397 2687 759 
Q 2956 1122 2956 1747 
Q 2956 2369 2687 2733 
Q 2419 3097 1959 3097 
z
M 1959 3584 
Q 2709 3584 3137 3096 
Q 3566 2609 3566 1747 
Q 3566 888 3137 398 
Q 2709 -91 1959 -91 
Q 1206 -91 779 398 
Q 353 888 353 1747 
Q 353 2609 779 3096 
Q 1206 3584 1959 3584 
z
" transform="scale(0.015625)"/>
      <path id="DejaVuSans-55" d="M 2631 2963 
Q 2534 3019 2420 3045 
Q 2306 3072 2169 3072 
Q 1681 3072 1420 2755 
Q 1159 2438 1159 1844 
L 1159 0 
L 581 0 
L 581 3500 
L 1159 3500 
L 1159 2956 
Q 1341 3275 1631 3429 
Q 1922 3584 2338 3584 
Q 2397 3584 2469 3576 
Q 2541 3569 2628 3553 
L 2631 2963 
z
" transform="scale(0.015625)"/>
      <path id="DejaVuSans-56" d="M 2834 3397 
L 2834 2853 
Q 2591 2978 2328 3040 
Q 2066 3103 1784 3103 
Q 1356 3103 1142 2972 
Q 928 2841 928 2578 
Q 928 2378 1081 2264 
Q 1234 2150 1697 2047 
L 1894 2003 
Q 2506 1872 2764 1633 
Q 3022 1394 3022 966 
Q 3022 478 2636 193 
Q 2250 -91 1575 -91 
Q 1294 -91 989 -36 
Q 684 19 347 128 
L 347 722 
Q 666 556 975 473 
Q 1284 391 1588 391 
Q 1994 391 2212 530 
Q 2431 669 2431 922 
Q 2431 1156 2273 1281 
Q 2116 1406 1581 1522 
L 1381 1569 
Q 847 1681 609 1914 
Q 372 2147 372 2553 
Q 372 3047 722 3315 
Q 1072 3584 1716 3584 
Q 2034 3584 2315 3537 
Q 2597 3491 2834 3397 
z
" transform="scale(0.015625)"/>
      <path id="DejaVuSans-58" d="M 544 1381 
L 544 3500 
L 1119 3500 
L 1119 1403 
Q 1119 906 1312 657 
Q 1506 409 1894 409 
Q 2359 409 2629 706 
Q 2900 1003 2900 1516 
L 2900 3500 
L 3475 3500 
L 3475 0 
L 2900 0 
L 2900 538 
Q 2691 219 2414 64 
Q 2138 -91 1772 -91 
Q 1169 -91 856 284 
Q 544 659 544 1381 
z
M 1991 3584 
L 1991 3584 
z
" transform="scale(0.015625)"/>
      <path id="DejaVuSans-4b" d="M 3513 2113 
L 3513 0 
L 2938 0 
L 2938 2094 
Q 2938 2591 2744 2837 
Q 2550 3084 2163 3084 
Q 1697 3084 1428 2787 
Q 1159 2491 1159 1978 
L 1159 0 
L 581 0 
L 581 4863 
L 1159 4863 
L 1159 2956 
Q 1366 3272 1645 3428 
Q 1925 3584 2291 3584 
Q 2894 3584 3203 3211 
Q 3513 2838 3513 2113 
z
" transform="scale(0.015625)"/>
      <path id="DejaVuSans-36" d="M 3425 4513 
L 3425 3897 
Q 3066 4069 2747 4153 
Q 2428 4238 2131 4238 
Q 1616 4238 1336 4038 
Q 1056 3838 1056 3469 
Q 1056 3159 1242 3001 
Q 1428 2844 1947 2747 
L 2328 2669 
Q 3034 2534 3370 2195 
Q 3706 1856 3706 1288 
Q 3706 609 3251 259 
Q 2797 -91 1919 -91 
Q 1588 -91 1214 -16 
Q 841 59 441 206 
L 441 856 
Q 825 641 1194 531 
Q 1563 422 1919 422 
Q 2459 422 2753 634 
Q 3047 847 3047 1241 
Q 3047 1584 2836 1778 
Q 2625 1972 2144 2069 
L 1759 2144 
Q 1053 2284 737 2584 
Q 422 2884 422 3419 
Q 422 4038 858 4394 
Q 1294 4750 2059 4750 
Q 2388 4750 2728 4690 
Q 3069 4631 3425 4513 
z
" transform="scale(0.015625)"/>
      <path id="DejaVuSans-39" d="M 1831 0 
L 50 4666 
L 709 4666 
L 2188 738 
L 3669 4666 
L 4325 4666 
L 2547 0 
L 1831 0 
z
" transform="scale(0.015625)"/>
      <path id="DejaVuSans-2a" d="M 3809 666 
L 3809 1919 
L 2778 1919 
L 2778 2438 
L 4434 2438 
L 4434 434 
Q 4069 175 3628 42 
Q 3188 -91 2688 -91 
Q 1594 -91 976 548 
Q 359 1188 359 2328 
Q 359 3472 976 4111 
Q 1594 4750 2688 4750 
Q 3144 4750 3555 4637 
Q 3966 4525 4313 4306 
L 4313 3634 
Q 3963 3931 3569 4081 
Q 3175 4231 2741 4231 
Q 1884 4231 1454 3753 
Q 1025 3275 1025 2328 
Q 1025 1384 1454 906 
Q 1884 428 2741 428 
Q 3075 428 3337 486 
Q 3600 544 3809 666 
z
" transform="scale(0.015625)"/>
      <path id="DejaVuSans-13af" d="M 3431 3500 
L 3431 0 
L 2853 0 
L 2853 3053 
L 1275 3053 
L 1275 0 
L 697 0 
L 697 3053 
L 147 3053 
L 147 3500 
L 697 3500 
L 697 3744 
Q 697 4316 967 4589 
Q 1238 4863 1797 4863 
L 2375 4863 
L 2375 4384 
L 1825 4384 
Q 1516 4384 1395 4259 
Q 1275 4134 1275 3809 
L 1275 3500 
L 3431 3500 
z
M 2853 4856 
L 3431 4856 
L 3431 4128 
L 2853 4128 
L 2853 4856 
z
" transform="scale(0.015625)"/>
      <path id="DejaVuSans-51" d="M 3513 2113 
L 3513 0 
L 2938 0 
L 2938 2094 
Q 2938 2591 2744 2837 
Q 2550 3084 2163 3084 
Q 1697 3084 1428 2787 
Q 1159 2491 1159 1978 
L 1159 0 
L 581 0 
L 581 3500 
L 1159 3500 
L 1159 2956 
Q 1366 3272 1645 3428 
Q 1925 3584 2291 3584 
Q 2894 3584 3203 3211 
Q 3513 2838 3513 2113 
z
" transform="scale(0.015625)"/>
      <path id="DejaVuSans-12" d="M 1625 4666 
L 2156 4666 
L 531 -594 
L 0 -594 
L 1625 4666 
z
" transform="scale(0.015625)"/>
      <path id="DejaVuSans-11" d="M 684 794 
L 1344 794 
L 1344 0 
L 684 0 
L 684 794 
z
" transform="scale(0.015625)"/>
     </defs>
     <use xlink:href="#DejaVuSans-28"/>
     <use xlink:href="#DejaVuSans-47" transform="translate(63.1875 0)"/>
     <use xlink:href="#DejaVuSans-4c" transform="translate(126.671875 0)"/>
     <use xlink:href="#DejaVuSans-57" transform="translate(154.453125 0)"/>
     <use xlink:href="#DejaVuSans-44" transform="translate(193.65625 0)"/>
     <use xlink:href="#DejaVuSans-45" transform="translate(254.9375 0)"/>
     <use xlink:href="#DejaVuSans-4f" transform="translate(318.421875 0)"/>
     <use xlink:href="#DejaVuSans-48" transform="translate(346.203125 0)"/>
     <use xlink:href="#DejaVuSans-3" transform="translate(407.734375 0)"/>
     <use xlink:href="#DejaVuSans-59" transform="translate(439.515625 0)"/>
     <use xlink:href="#DejaVuSans-48" transform="translate(498.703125 0)"/>
     <use xlink:href="#DejaVuSans-46" transform="translate(560.234375 0)"/>
     <use xlink:href="#DejaVuSans-57" transform="translate(615.21875 0)"/>
     <use xlink:href="#DejaVuSans-52" transform="translate(654.421875 0)"/>
     <use xlink:href="#DejaVuSans-55" transform="translate(715.609375 0)"/>
     <use xlink:href="#DejaVuSans-3" transform="translate(756.71875 0)"/>
     <use xlink:href="#DejaVuSans-56" transform="translate(788.5 0)"/>
     <use xlink:href="#DejaVuSans-52" transform="translate(840.59375 0)"/>
     <use xlink:href="#DejaVuSans-58" transform="translate(901.78125 0)"/>
     <use xlink:href="#DejaVuSans-55" transform="translate(965.15625 0)"/>
     <use xlink:href="#DejaVuSans-46" transform="translate(1004.0625 0)"/>
     <use xlink:href="#DejaVuSans-48" transform="translate(1059.046875 0)"/>
     <use xlink:href="#DejaVuSans-3" transform="translate(1120.578125 0)"/>
     <use xlink:href="#DejaVuSans-4c" transform="translate(1152.359375 0)"/>
     <use xlink:href="#DejaVuSans-56" transform="translate(1180.140625 0)"/>
     <use xlink:href="#DejaVuSans-3" transform="translate(1232.234375 0)"/>
     <use xlink:href="#DejaVuSans-57" transform="translate(1264.015625 0)"/>
     <use xlink:href="#DejaVuSans-4b" transform="translate(1303.21875 0)"/>
     <use xlink:href="#DejaVuSans-48" transform="translate(1366.59375 0)"/>
     <use xlink:href="#DejaVuSans-3" transform="translate(1428.125 0)"/>
     <use xlink:href="#DejaVuSans-36" transform="translate(1459.90625 0)"/>
     <use xlink:href="#DejaVuSans-39" transform="translate(1523.390625 0)"/>
     <use xlink:href="#DejaVuSans-2a" transform="translate(1591.796875 0)"/>
     <use xlink:href="#DejaVuSans-3" transform="translate(1669.28125 0)"/>
     <use xlink:href="#DejaVuSans-13af" transform="translate(1701.0625 0)"/>
     <use xlink:href="#DejaVuSans-4f" transform="translate(1764.046875 0)"/>
     <use xlink:href="#DejaVuSans-48" transform="translate(1791.828125 0)"/>
     <use xlink:href="#DejaVuSans-3" transform="translate(1853.359375 0)"/>
     <use xlink:href="#DejaVuSans-4c" transform="translate(1885.140625 0)"/>
     <use xlink:href="#DejaVuSans-51" transform="translate(1912.921875 0)"/>
     <use xlink:href="#DejaVuSans-3" transform="translate(1976.296875 0)"/>
     <use xlink:href="#DejaVuSans-48" transform="translate(2008.078125 0)"/>
     <use xlink:href="#DejaVuSans-47" transform="translate(2069.609375 0)"/>
     <use xlink:href="#DejaVuSans-4c" transform="translate(2133.09375 0)"/>
     <use xlink:href="#DejaVuSans-57" transform="translate(2160.875 0)"/>
     <use xlink:href="#DejaVuSans-44" transform="translate(2200.078125 0)"/>
     <use xlink:href="#DejaVuSans-45" transform="translate(2261.359375 0)"/>
     <use xlink:href="#DejaVuSans-4f" transform="translate(2324.84375 0)"/>
     <use xlink:href="#DejaVuSans-48" transform="translate(2352.625 0)"/>
     <use xlink:href="#DejaVuSans-12" transform="translate(2414.15625 0)"/>
     <use xlink:href="#DejaVuSans-3" transform="translate(2447.84375 0)"/>
     <use xlink:href="#DejaVuSans-44" transform="translate(2479.625 0)"/>
     <use xlink:href="#DejaVuSans-51" transform="translate(2540.90625 0)"/>
     <use xlink:href="#DejaVuSans-47" transform="translate(2604.28125 0)"/>
     <use xlink:href="#DejaVuSans-3" transform="translate(2667.765625 0)"/>
     <use xlink:href="#DejaVuSans-13af" transform="translate(2699.546875 0)"/>
     <use xlink:href="#DejaVuSans-51" transform="translate(2762.53125 0)"/>
     <use xlink:href="#DejaVuSans-44" transform="translate(2825.90625 0)"/>
     <use xlink:href="#DejaVuSans-4f" transform="translate(2887.1875 0)"/>
     <use xlink:href="#DejaVuSans-12" transform="translate(2914.96875 0)"/>
     <use xlink:href="#DejaVuSans-11" transform="translate(2948.65625 0)"/>
    </g>
   </g>
   <g id="text_3">
    <!-- This PDF/PNG is a renderer fallback preview for environments without Cairo/Inkscape. -->
    <g transform="translate(62.755625 110.179238) scale(0.08 -0.08)">
     <defs>
      <path id="DejaVuSans-37" d="M -19 4666 
L 3928 4666 
L 3928 4134 
L 2272 4134 
L 2272 0 
L 1638 0 
L 1638 4134 
L -19 4134 
L -19 4666 
z
" transform="scale(0.015625)"/>
      <path id="DejaVuSans-33" d="M 1259 4147 
L 1259 2394 
L 2053 2394 
Q 2494 2394 2734 2622 
Q 2975 2850 2975 3272 
Q 2975 3691 2734 3919 
Q 2494 4147 2053 4147 
L 1259 4147 
z
M 628 4666 
L 2053 4666 
Q 2838 4666 3239 4311 
Q 3641 3956 3641 3272 
Q 3641 2581 3239 2228 
Q 2838 1875 2053 1875 
L 1259 1875 
L 1259 0 
L 628 0 
L 628 4666 
z
" transform="scale(0.015625)"/>
      <path id="DejaVuSans-27" d="M 1259 4147 
L 1259 519 
L 2022 519 
Q 2988 519 3436 956 
Q 3884 1394 3884 2338 
Q 3884 3275 3436 3711 
Q 2988 4147 2022 4147 
L 1259 4147 
z
M 628 4666 
L 1925 4666 
Q 3281 4666 3915 4102 
Q 4550 3538 4550 2338 
Q 4550 1131 3912 565 
Q 3275 0 1925 0 
L 628 0 
L 628 4666 
z
" transform="scale(0.015625)"/>
      <path id="DejaVuSans-29" d="M 628 4666 
L 3309 4666 
L 3309 4134 
L 1259 4134 
L 1259 2759 
L 3109 2759 
L 3109 2228 
L 1259 2228 
L 1259 0 
L 628 0 
L 628 4666 
z
" transform="scale(0.015625)"/>
      <path id="DejaVuSans-31" d="M 628 4666 
L 1478 4666 
L 3547 763 
L 3547 4666 
L 4159 4666 
L 4159 0 
L 3309 0 
L 1241 3903 
L 1241 0 
L 628 0 
L 628 4666 
z
" transform="scale(0.015625)"/>
      <path id="DejaVuSans-49" d="M 2375 4863 
L 2375 4384 
L 1825 4384 
Q 1516 4384 1395 4259 
Q 1275 4134 1275 3809 
L 1275 3500 
L 2222 3500 
L 2222 3053 
L 1275 3053 
L 1275 0 
L 697 0 
L 697 3053 
L 147 3053 
L 147 3500 
L 697 3500 
L 697 3744 
Q 697 4328 969 4595 
Q 1241 4863 1831 4863 
L 2375 4863 
z
" transform="scale(0.015625)"/>
      <path id="DejaVuSans-4e" d="M 581 4863 
L 1159 4863 
L 1159 1991 
L 2875 3500 
L 3609 3500 
L 1753 1863 
L 3688 0 
L 2938 0 
L 1159 1709 
L 1159 0 
L 581 0 
L 581 4863 
z
" transform="scale(0.015625)"/>
      <path id="DejaVuSans-53" d="M 1159 525 
L 1159 -1331 
L 581 -1331 
L 581 3500 
L 1159 3500 
L 1159 2969 
Q 1341 3281 1617 3432 
Q 1894 3584 2278 3584 
Q 2916 3584 3314 3078 
Q 3713 2572 3713 1747 
Q 3713 922 3314 415 
Q 2916 -91 2278 -91 
Q 1894 -91 1617 61 
Q 1341 213 1159 525 
z
M 3116 1747 
Q 3116 2381 2855 2742 
Q 2594 3103 2138 3103 
Q 1681 3103 1420 2742 
Q 1159 2381 1159 1747 
Q 1159 1113 1420 752 
Q 1681 391 2138 391 
Q 2594 391 2855 752 
Q 3116 1113 3116 1747 
z
" transform="scale(0.015625)"/>
      <path id="DejaVuSans-5a" d="M 269 3500 
L 844 3500 
L 1563 769 
L 2278 3500 
L 2956 3500 
L 3675 769 
L 4391 3500 
L 4966 3500 
L 4050 0 
L 3372 0 
L 2619 2869 
L 1863 0 
L 1184 0 
L 269 3500 
z
" transform="scale(0.015625)"/>
      <path id="DejaVuSans-50" d="M 3328 2828 
Q 3544 3216 3844 3400 
Q 4144 3584 4550 3584 
Q 5097 3584 5394 3201 
Q 5691 2819 5691 2113 
L 5691 0 
L 5113 0 
L 5113 2094 
Q 5113 2597 4934 2840 
Q 4756 3084 4391 3084 
Q 3944 3084 3684 2787 
Q 3425 2491 3425 1978 
L 3425 0 
L 2847 0 
L 2847 2094 
Q 2847 2600 2669 2842 
Q 2491 3084 2119 3084 
Q 1678 3084 1418 2786 
Q 1159 2488 1159 1978 
L 1159 0 
L 581 0 
L 581 3500 
L 1159 3500 
L 1159 2956 
Q 1356 3278 1631 3431 
Q 1906 3584 2284 3584 
Q 2666 3584 2933 3390 
Q 3200 3197 3328 2828 
z
" transform="scale(0.015625)"/>
      <path id="DejaVuSans-26" d="M 4122 4306 
L 4122 3641 
Q 3803 3938 3442 4084 
Q 3081 4231 2675 4231 
Q 1875 4231 1450 3742 
Q 1025 3253 1025 2328 
Q 1025 1406 1450 917 
Q 1875 428 2675 428 
Q 3081 428 3442 575 
Q 3803 722 4122 1019 
L 4122 359 
Q 3791 134 3420 21 
Q 3050 -91 2638 -91 
Q 1578 -91 968 557 
Q 359 1206 359 2328 
Q 359 3453 968 4101 
Q 1578 4750 2638 4750 
Q 3056 4750 3426 4639 
Q 3797 4528 4122 4306 
z
" transform="scale(0.015625)"/>
      <path id="DejaVuSans-2c" d="M 628 4666 
L 1259 4666 
L 1259 0 
L 628 0 
L 628 4666 
z
" transform="scale(0.015625)"/>
     </defs>
     <use xlink:href="#DejaVuSans-37"/>
     <use xlink:href="#DejaVuSans-4b" transform="translate(61.078125 0)"/>
     <use xlink:href="#DejaVuSans-4c" transform="translate(124.453125 0)"/>
     <use xlink:href="#DejaVuSans-56" transform="translate(152.234375 0)"/>
     <use xlink:href="#DejaVuSans-3" transform="translate(204.328125 0)"/>
     <use xlink:href="#DejaVuSans-33" transform="translate(236.109375 0)"/>
     <use xlink:href="#DejaVuSans-27" transform="translate(296.40625 0)"/>
     <use xlink:href="#DejaVuSans-29" transform="translate(373.40625 0)"/>
     <use xlink:href="#DejaVuSans-12" transform="translate(430.921875 0)"/>
     <use xlink:href="#DejaVuSans-33" transform="translate(464.609375 0)"/>
     <use xlink:href="#DejaVuSans-31" transform="translate(524.90625 0)"/>
     <use xlink:href="#DejaVuSans-2a" transform="translate(599.71875 0)"/>
     <use xlink:href="#DejaVuSans-3" transform="translate(677.203125 0)"/>
     <use xlink:href="#DejaVuSans-4c" transform="translate(708.984375 0)"/>
     <use xlink:href="#DejaVuSans-56" transform="translate(736.765625 0)"/>
     <use xlink:href="#DejaVuSans-3" transform="translate(788.859375 0)"/>
     <use xlink:href="#DejaVuSans-44" transform="translate(820.640625 0)"/>
     <use xlink:href="#DejaVuSans-3" transform="translate(881.921875 0)"/>
     <use xlink:href="#DejaVuSans-55" transform="translate(913.703125 0)"/>
     <use xlink:href="#DejaVuSans-48" transform="translate(952.609375 0)"/>
     <use xlink:href="#DejaVuSans-51" transform="translate(1014.140625 0)"/>
     <use xlink:href="#DejaVuSans-47" transform="translate(1077.515625 0)"/>
     <use xlink:href="#DejaVuSans-48" transform="translate(1141 0)"/>
     <use xlink:href="#DejaVuSans-55" transform="translate(1202.53125 0)"/>
     <use xlink:href="#DejaVuSans-48" transform="translate(1241.4375 0)"/>
     <use xlink:href="#DejaVuSans-55" transform="translate(1302.96875 0)"/>
     <use xlink:href="#DejaVuSans-3" transform="translate(1344.078125 0)"/>
     <use xlink:href="#DejaVuSans-49" transform="translate(1375.859375 0)"/>
     <use xlink:href="#DejaVuSans-44" transform="translate(1411.0625 0)"/>
     <use xlink:href="#DejaVuSans-4f" transform="translate(1472.34375 0)"/>
     <use xlink:href="#DejaVuSans-4f" transform="translate(1500.125 0)"/>
     <use xlink:href="#DejaVuSans-45" transform="translate(1527.90625 0)"/>
     <use xlink:href="#DejaVuSans-44" transform="translate(1591.390625 0)"/>
     <use xlink:href="#DejaVuSans-46" transform="translate(1652.671875 0)"/>
     <use xlink:href="#DejaVuSans-4e" transform="translate(1707.65625 0)"/>
     <use xlink:href="#DejaVuSans-3" transform="translate(1765.5625 0)"/>
     <use xlink:href="#DejaVuSans-53" transform="translate(1797.34375 0)"/>
     <use xlink:href="#DejaVuSans-55" transform="translate(1860.828125 0)"/>
     <use xlink:href="#DejaVuSans-48" transform="translate(1899.734375 0)"/>
     <use xlink:href="#DejaVuSans-59" transform="translate(1961.265625 0)"/>
     <use xlink:href="#DejaVuSans-4c" transform="translate(2020.453125 0)"/>
     <use xlink:href="#DejaVuSans-48" transform="translate(2048.234375 0)"/>
     <use xlink:href="#DejaVuSans-5a" transform="translate(2109.765625 0)"/>
     <use xlink:href="#DejaVuSans-3" transform="translate(2191.546875 0)"/>
     <use xlink:href="#DejaVuSans-49" transform="translate(2223.328125 0)"/>
     <use xlink:href="#DejaVuSans-52" transform="translate(2258.53125 0)"/>
     <use xlink:href="#DejaVuSans-55" transform="translate(2319.71875 0)"/>
     <use xlink:href="#DejaVuSans-3" transform="translate(2360.828125 0)"/>
     <use xlink:href="#DejaVuSans-48" transform="translate(2392.609375 0)"/>
     <use xlink:href="#DejaVuSans-51" transform="translate(2454.140625 0)"/>
     <use xlink:href="#DejaVuSans-59" transform="translate(2517.515625 0)"/>
     <use xlink:href="#DejaVuSans-4c" transform="translate(2576.703125 0)"/>
     <use xlink:href="#DejaVuSans-55" transform="translate(2604.484375 0)"/>
     <use xlink:href="#DejaVuSans-52" transform="translate(2643.390625 0)"/>
     <use xlink:href="#DejaVuSans-51" transform="translate(2704.578125 0)"/>
     <use xlink:href="#DejaVuSans-50" transform="translate(2767.953125 0)"/>
     <use xlink:href="#DejaVuSans-48" transform="translate(2865.359375 0)"/>
     <use xlink:href="#DejaVuSans-51" transform="translate(2926.890625 0)"/>
     <use xlink:href="#DejaVuSans-57" transform="translate(2990.265625 0)"/>
     <use xlink:href="#DejaVuSans-56" transform="translate(3029.46875 0)"/>
     <use xlink:href="#DejaVuSans-3" transform="translate(3081.5625 0)"/>
     <use xlink:href="#DejaVuSans-5a" transform="translate(3113.34375 0)"/>
     <use xlink:href="#DejaVuSans-4c" transform="translate(3195.125 0)"/>
     <use xlink:href="#DejaVuSans-57" transform="translate(3222.90625 0)"/>
     <use xlink:href="#DejaVuSans-4b" transform="translate(3262.109375 0)"/>
     <use xlink:href="#DejaVuSans-52" transform="translate(3325.484375 0)"/>
     <use xlink:href="#DejaVuSans-58" transform="translate(3386.671875 0)"/>
     <use xlink:href="#DejaVuSans-57" transform="translate(3450.046875 0)"/>
     <use xlink:href="#DejaVuSans-3" transform="translate(3489.25 0)"/>
     <use xlink:href="#DejaVuSans-26" transform="translate(3521.03125 0)"/>
     <use xlink:href="#DejaVuSans-44" transform="translate(3590.859375 0)"/>
     <use xlink:href="#DejaVuSans-4c" transform="translate(3652.140625 0)"/>
     <use xlink:href="#DejaVuSans-55" transform="translate(3679.921875 0)"/>
     <use xlink:href="#DejaVuSans-52" transform="translate(3718.828125 0)"/>
     <use xlink:href="#DejaVuSans-12" transform="translate(3780.015625 0)"/>
     <use xlink:href="#DejaVuSans-2c" transform="translate(3813.703125 0)"/>
     <use xlink:href="#DejaVuSans-51" transform="translate(3843.203125 0)"/>
     <use xlink:href="#DejaVuSans-4e" transform="translate(3906.578125 0)"/>
     <use xlink:href="#DejaVuSans-56" transform="translate(3964.484375 0)"/>
     <use xlink:href="#DejaVuSans-46" transform="translate(4016.578125 0)"/>
     <use xlink:href="#DejaVuSans-44" transform="translate(4071.5625 0)"/>
     <use xlink:href="#DejaVuSans-53" transform="translate(4132.84375 0)"/>
     <use xlink:href="#DejaVuSans-48" transform="translate(4196.328125 0)"/>
     <use xlink:href="#DejaVuSans-11" transform="translate(4257.859375 0)"/>
    </g>
   </g>
  </g>
 </g>
</svg>
